<svg width="16" height="16" fill="none" xmlns="http://www.w3.org/2000/svg"><path d="M2.972 1.282a2.12 2.12 0 0 0-1.644 1.477l-.061.214V14.12l.083.177c.206.433.574.655 1.046.631.421-.021.367.021 1.897-1.504l1.347-1.343 3.707-.008c4.156-.009 3.801.008 4.24-.208.405-.201.744-.539.944-.945.218-.441.202-.104.202-4.253 0-4.15.016-3.813-.202-4.254a2.099 2.099 0 0 0-.944-.944c-.445-.22.076-.2-5.507-.205-2.735-.003-5.034.005-5.108.018m9.902 1.506a.693.693 0 0 1 .329.319c.047.102.049.252.05 3.554 0 3.805.012 3.547-.168 3.735-.185.193.171.176-4.018.191l-3.774.013-.16.064c-.088.035-.22.103-.293.152-.073.049-.565.521-1.093 1.05a35.02 35.02 0 0 1-.98.961c-.011 0-.02-2.161-.02-4.801 0-5.302-.014-4.898.168-5.089a.762.762 0 0 1 .192-.14c.102-.047.287-.049 4.887-.05 4.26 0 4.792.004 4.88.041" fill-rule="evenodd" fill="#000"/></svg>