<svg width="16" height="16" fill="none" xmlns="http://www.w3.org/2000/svg"><path d="M10.274 1.201a2.082 2.082 0 0 0-.914.415c-.216.167-6.974 6.943-7.023 7.041-.023.046-.198.709-.39 1.473-.378 1.515-.39 1.592-.29 1.86.104.279.321.436.601.437.173 0 2.987-.71 3.115-.787.166-.098 6.997-6.954 7.122-7.146.229-.354.317-.677.317-1.161 0-.378-.031-.547-.153-.85-.12-.296-.397-.647-.683-.868-.381-.292-.734-.416-1.229-.43a3.207 3.207 0 0 0-.473.016m.615 1.508a.734.734 0 0 1 .402.402.642.642 0 0 1-.001.451c-.04.121-.312.401-3.355 3.446l-3.311 3.316-.625.156c-.343.086-.627.154-.63.151-.003-.003.065-.287.151-.63l.156-.625 3.316-3.311c2.89-2.888 3.33-3.317 3.435-3.353a.691.691 0 0 1 .462-.003M1.68 13.306c-.272.094-.427.345-.427.694 0 .232.068.421.197.55.213.214-.353.197 6.55.197s6.337.017 6.55-.197c.265-.265.265-.835 0-1.1-.213-.214.354-.197-6.562-.196-5.975.001-6.166.003-6.308.052" fill-rule="evenodd" fill="#000"/></svg>