<svg width="16" height="16" fill="none" xmlns="http://www.w3.org/2000/svg"><path d="M13.68 1.306a.603.603 0 0 0-.244.156c-.197.211-.183-.312-.183 6.538 0 6.903-.017 6.337.197 6.55.265.265.835.265 1.1 0 .214-.213.197.353.197-6.55s.017-6.337-.197-6.55c-.19-.19-.559-.252-.87-.144M5.209 3.892a.876.876 0 0 0-.2.089c-.178.106-3.657 3.605-3.731 3.752a.617.617 0 0 0 0 .534c.086.171 3.585 3.674 3.772 3.776.269.146.57.073.828-.204.241-.258.302-.523.177-.772-.041-.083-.399-.46-1.138-1.201a43.632 43.632 0 0 1-1.077-1.1c0-.011 1.42-.019 3.155-.019 3.554 0 3.347.011 3.555-.197.265-.265.265-.835 0-1.1-.208-.208.002-.197-3.574-.197H3.801l1.097-1.1c.753-.755 1.115-1.137 1.157-1.22.131-.261.051-.562-.216-.811-.209-.196-.435-.278-.63-.23" fill-rule="evenodd" fill="#000"/></svg>