<svg width="16" height="16" fill="none" xmlns="http://www.w3.org/2000/svg"><path d="M10.187 2.629a2.777 2.777 0 0 0-2.119 1.817l-.045.14-3.485.007-3.485.007-.146.083a.46.46 0 0 0-.227.238C.607 5.062.6 5.1.6 5.333c0 .234.007.272.08.413.066.127.106.17.227.238l.146.083 3.485.007 3.485.007.045.139c.112.341.335.711.598.99a2.742 2.742 0 0 0 2.467.828 2.769 2.769 0 0 0 2.134-1.816l.049-.139.815-.008.816-.008.144-.082a.519.519 0 0 0 .227-.227c.077-.136.082-.161.082-.425 0-.263-.005-.288-.082-.424a.519.519 0 0 0-.227-.227l-.144-.082-.816-.008-.815-.009-.049-.138a2.767 2.767 0 0 0-2.134-1.816 3.002 3.002 0 0 0-.946 0m.723 1.478c.454.085.849.46.969.921.223.854-.525 1.675-1.402 1.539-1.006-.156-1.41-1.394-.69-2.114a1.23 1.23 0 0 1 1.123-.346M4.853 7.962a2.786 2.786 0 0 0-1.52.828 2.804 2.804 0 0 0-.598.988l-.045.139-.818.008-.819.008-.146.083a.463.463 0 0 0-.227.238c-.073.141-.08.179-.08.413 0 .233.007.271.08.412a.46.46 0 0 0 .227.238l.146.083.819.008.818.009.045.138c.112.34.335.709.598.988a2.738 2.738 0 0 0 2.466.828 2.768 2.768 0 0 0 2.135-1.817l.05-.14 3.481-.007 3.482-.007.144-.082a.519.519 0 0 0 .227-.227c.077-.136.082-.161.082-.424 0-.264-.005-.289-.082-.425a.519.519 0 0 0-.227-.227l-.144-.082-3.482-.007-3.481-.007-.05-.139a2.769 2.769 0 0 0-2.135-1.818c-.285-.05-.67-.05-.946 0m.723 1.478c.455.085.85.46.97.921.222.854-.525 1.675-1.403 1.539-1.005-.156-1.409-1.394-.69-2.113a1.232 1.232 0 0 1 1.123-.347" fill-rule="evenodd" fill="#000"/></svg>