<svg width="19" height="19" fill="none" xmlns="http://www.w3.org/2000/svg"><path d="M9.066 2.283c-.822.096-1.559.462-2.183 1.086a3.955 3.955 0 0 0-1.137 2.268c-.033.217-.046.601-.046 1.381v1.081l-.451.016c-.35.012-.494.031-.639.083a2.043 2.043 0 0 0-1.301 1.475c-.043.194-.048.565-.041 2.851.009 2.622.01 2.629.08 2.834.171.501.558.954 1.002 1.173.47.231.194.22 5.15.22 4.952 0 4.681.011 5.147-.219.443-.218.835-.675 1.005-1.174.07-.205.071-.212.08-2.834.007-2.286.002-2.657-.041-2.851a2.043 2.043 0 0 0-1.301-1.475c-.145-.052-.289-.071-.639-.083l-.451-.016V7.026c0-1.161-.026-1.462-.172-1.966-.318-1.095-1.182-2.086-2.187-2.506a3.665 3.665 0 0 0-1.875-.271m.709 1.485c.508.066.928.286 1.312.689.266.278.435.536.55.844.148.391.175.667.175 1.781v1.025H7.188l.001-1.022c.001-1.1.02-1.324.144-1.697.226-.679.848-1.325 1.467-1.524a2.05 2.05 0 0 1 .975-.096m4.243 5.908a.685.685 0 0 1 .161.205l.071.139v4.822l-.073.138a.476.476 0 0 1-.211.21l-.138.073H5.172l-.138-.073a.476.476 0 0 1-.211-.21l-.073-.138v-2.403c0-2.564-.002-2.524.152-2.697.134-.15-.032-.145 4.635-.138 4.378.007 4.392.007 4.481.072" fill-rule="evenodd" fill="#000"/></svg>