<svg width="16" height="16" fill="none" xmlns="http://www.w3.org/2000/svg"><path d="M7.838 2.194c-.081.055-.156.219-.88 1.926-.715 1.688-.799 1.872-.878 1.927a.363.363 0 0 1-.157.061c-.038.001-.949.077-2.025.169l-1.954.167-.086.085c-.07.07-.085.106-.085.203 0 .097.016.134.086.207.047.048.739.652 1.537 1.341.798.689 1.47 1.285 1.494 1.324a.316.316 0 0 1 .043.139c0 .037-.205.945-.455 2.018-.294 1.26-.45 1.975-.439 2.019a.394.394 0 0 0 .094.143c.06.06.1.077.188.077.101 0 .291-.107 1.809-1.024.933-.564 1.73-1.04 1.77-1.058a.207.207 0 0 1 .161-.007c.047.015.855.491 1.795 1.058C11.39 13.894 11.577 14 11.678 14c.089 0 .129-.016.189-.077a.393.393 0 0 0 .093-.141c.01-.041-.155-.806-.438-2.027a74.69 74.69 0 0 1-.455-2.026c0-.035.019-.091.042-.124.023-.033.716-.646 1.54-1.361.824-.716 1.516-1.324 1.538-1.35a.318.318 0 0 0 .04-.164c0-.094-.016-.131-.085-.201l-.085-.085-2.038-.176c-1.642-.143-2.052-.186-2.106-.221-.082-.054-.02.084-.923-2.047-.673-1.586-.749-1.752-.829-1.807-.113-.076-.209-.076-.323.001m.348 2.759c.061.056.176.303.483 1.034.274.652.428.985.479 1.038l.076.078 1.048.089c.576.048 1.094.101 1.149.116a.287.287 0 0 1 .163.421c-.024.039-.404.383-.845.764-.55.477-.812.721-.837.78-.034.082-.02.158.204 1.115.132.564.241 1.063.241 1.107 0 .111-.063.222-.146.26-.162.073-.204.055-1.169-.528-.801-.484-.941-.56-1.035-.56-.093 0-.234.076-1.041.563-.9.544-.936.563-1.044.548-.142-.019-.259-.139-.259-.265 0-.048.11-.555.244-1.128.242-1.034.243-1.043.198-1.134-.029-.058-.331-.338-.846-.782-.521-.45-.816-.723-.844-.782-.038-.079-.038-.101-.004-.2.066-.188.082-.192 1.172-.285a70.968 70.968 0 0 0 1.089-.097c.203-.027.232-.074.653-1.078.213-.506.402-.954.421-.995.074-.162.313-.204.45-.079" fill="#2A2D32" fill-rule="evenodd"/></svg>