<svg width="16" height="16" fill="none" xmlns="http://www.w3.org/2000/svg"><path d="M7.838 2.194c-.081.055-.156.219-.88 1.926-.715 1.688-.799 1.872-.878 1.927a.363.363 0 0 1-.157.061c-.038.001-.949.077-2.025.169l-1.954.167-.086.085c-.07.07-.085.106-.085.203 0 .097.016.134.086.207.047.048.739.652 1.537 1.341.798.689 1.47 1.285 1.494 1.324a.316.316 0 0 1 .043.139c0 .037-.205.945-.455 2.018-.294 1.26-.45 1.975-.439 2.019a.394.394 0 0 0 .094.143c.06.06.1.077.188.077.101 0 .291-.107 1.809-1.024.933-.564 1.73-1.04 1.77-1.058a.207.207 0 0 1 .161-.007c.047.015.855.491 1.795 1.058 1.496.903 1.722 1.031 1.816 1.031a.276.276 0 0 0 .274-.197c.026-.079-.023-.311-.425-2.036-.25-1.07-.454-1.981-.453-2.023 0-.043.015-.103.033-.134.018-.031.68-.618 1.472-1.303.792-.685 1.488-1.293 1.547-1.35.093-.091.107-.12.107-.224 0-.098-.015-.133-.085-.203l-.085-.085-1.982-.168c-1.09-.093-2.02-.175-2.067-.184a.271.271 0 0 1-.144-.087c-.032-.04-.409-.901-.837-1.913-.707-1.672-.786-1.845-.867-1.9-.112-.076-.208-.076-.322.001" fill="#2A2D32" fill-rule="evenodd"/></svg>