<svg width="16" height="16" fill="none" xmlns="http://www.w3.org/2000/svg"><path d="M7.373 1.949c-1.293.13-2.549.619-3.717 1.447-.902.64-1.772 1.509-2.571 2.569a18.05 18.05 0 0 0-.899 1.357 1.373 1.373 0 0 1-.146.225c-.032.027-.04.112-.04.448 0 .363.006.422.048.47.027.03.119.175.205.322.768 1.31 1.87 2.609 2.949 3.474a8.646 8.646 0 0 0 1.691 1.074c2.024.993 4.19.993 6.214 0 1.429-.703 2.643-1.754 3.808-3.3a18.05 18.05 0 0 0 .899-1.357c.059-.105.124-.207.146-.225.032-.027.04-.113.04-.455 0-.238-.011-.428-.025-.437a3.104 3.104 0 0 1-.205-.315c-.954-1.596-2.162-2.953-3.426-3.85-1.025-.727-2.203-1.226-3.291-1.393a7.345 7.345 0 0 0-1.68-.054m1.454 1.53c1.047.176 2.042.642 3.013 1.412.58.46 1.343 1.26 1.886 1.979.173.227.754 1.098.754 1.128 0 .032-.579.902-.751 1.129-.546.722-1.308 1.521-1.889 1.982-.975.773-1.952 1.23-3.027 1.416-.371.063-1.255.063-1.626 0-1.087-.188-2.114-.674-3.08-1.458-.587-.477-1.351-1.288-1.862-1.978C2.053 8.83 1.52 8.029 1.52 8c0-.03.586-.908.751-1.127.756-.998 1.68-1.894 2.516-2.437a6.125 6.125 0 0 1 2.76-1.006c.195-.024 1.037.008 1.28.049m-1.28 1.815A2.75 2.75 0 0 0 5.342 7.32c-.062.235-.071.316-.071.68 0 .364.009.445.071.68a2.756 2.756 0 0 0 1.978 1.978c.235.062.316.071.68.071.364 0 .445-.009.68-.071a2.742 2.742 0 0 0 1.975-1.978 2.737 2.737 0 0 0-1.442-3.14 2.77 2.77 0 0 0-1.666-.246m.755 1.492c.231.061.413.164.58.332a1.237 1.237 0 0 1 0 1.764A1.23 1.23 0 0 1 7.12 8.88a1.23 1.23 0 0 1-.002-1.762 1.236 1.236 0 0 1 1.184-.332" fill-rule="evenodd" fill="#000"/></svg>