<svg width="44" height="44" viewBox="0 0 44 44" fill="none" xmlns="http://www.w3.org/2000/svg">
<rect width="44" height="44" rx="7" fill="#1253B5"/>
<path d="M30.0488 21.9158C30.0488 21.9158 33.2683 16.6947 33.561 15.0105C33.7073 14.5053 33.4146 14 32.8293 14H30.0488C29.4634 14 29.1707 14.3368 29.0244 14.8421C29.0244 14.8421 27.561 18.5474 25.6585 20.7368C25.0732 21.5789 24.7805 21.7474 24.4878 21.7474C24.1951 21.7474 24.1951 21.5789 24.1951 20.7368V15.0105C24.1951 14.1684 24.0488 14 23.4634 14H19.0732C18.7805 14 18.4878 14.1684 18.4878 14.5053C18.4878 15.3474 19.5122 15.5158 19.5122 17.5368V21.9158C19.5122 22.7579 19.5122 23.0947 19.0732 23.0947C18.0488 23.0947 15.8537 19.3895 14.6829 15.1789C14.3902 14.1684 14.2439 14 13.5122 14H10.7317C10.2927 14 10 14.3368 10 14.6737C10 15.5158 10.878 19.3895 14.2439 24.6105C16.439 28.1474 19.5122 30 22.1463 30C23.7561 30 24.1951 29.6632 24.1951 28.8211V26.1263C24.1951 25.4526 24.4878 25.1158 24.7805 25.1158C25.0732 25.1158 25.8049 25.2842 27.4146 26.9684C29.3171 28.9895 29.4634 29.8316 30.3415 29.8316H33.4146C33.7073 29.8316 34 29.6632 34 28.9895C34 28.1474 33.122 26.8 31.6585 25.1158C31.0732 24.2737 30.1951 23.2632 29.9024 22.9263C29.6098 22.7579 29.7561 22.4211 30.0488 21.9158Z" fill="white"/>
</svg>
