<svg width="19" height="19" fill="none" xmlns="http://www.w3.org/2000/svg"><path d="M8.508 1.313c-3.43.434-6.203 2.896-7.017 6.23-.175.717-.208 1.034-.208 1.957 0 .651.012.921.057 1.203a8.251 8.251 0 0 0 2.332 4.625 7.843 7.843 0 0 0 2.202 1.567 8.105 8.105 0 0 0 2.423.765c.518.081 1.888.081 2.406 0a8.105 8.105 0 0 0 2.423-.765 8.05 8.05 0 0 0 3.769-3.769c.293-.599.47-1.08.613-1.666.176-.72.209-1.036.209-1.96 0-.924-.033-1.24-.209-1.96a7.728 7.728 0 0 0-.613-1.666 8.05 8.05 0 0 0-3.769-3.769 8.148 8.148 0 0 0-2.391-.761c-.456-.072-1.761-.09-2.227-.031m1.852 1.492a6.745 6.745 0 0 1 5.885 6.694A6.734 6.734 0 0 1 9.5 16.245c-3.089 0-5.791-2.098-6.539-5.078-.987-3.926 1.648-7.822 5.652-8.361a8.293 8.293 0 0 1 1.747-.001M9.188 5.051a.554.554 0 0 0-.365.332c-.065.139-.067.191-.077 1.748l-.01 1.605-1.605.01c-1.463.009-1.616.015-1.731.067-.26.117-.36.27-.387.588-.033.396.094.654.386.786.116.052.267.058 1.732.067l1.605.01.01 1.605c.011 1.762.008 1.738.208 1.946.225.236.867.236 1.092 0 .2-.208.197-.184.208-1.946l.01-1.605 1.605-.01c1.762-.011 1.738-.008 1.946-.208.236-.225.236-.867 0-1.092-.208-.2-.184-.197-1.946-.208l-1.605-.01-.01-1.605c-.011-1.762-.008-1.738-.208-1.946-.157-.164-.56-.227-.858-.134" fill-rule="evenodd" fill="#000"/></svg>