<svg width="19" height="19" fill="none" xmlns="http://www.w3.org/2000/svg"><path d="M2.968 3.243a.751.751 0 0 0-.466.385l-.079.155v3.072c0 3.051 0 3.074.068 3.342.155.604.423 1.081.848 1.506.418.418.888.685 1.49.846.253.068.268.068 4.716.078l4.463.01-1 1.004c-.978.982-1.002 1.009-1.055 1.192a.564.564 0 0 0-.017.354.748.748 0 0 0 .593.586c.131.031.188.028.345-.017.188-.054.196-.062 1.876-1.738 1.118-1.116 1.707-1.727 1.747-1.81a.672.672 0 0 0 .049-.544c-.052-.183-.07-.202-1.736-1.872-1.199-1.201-1.724-1.707-1.824-1.755-.425-.206-.944.052-1.049.523a.565.565 0 0 0 .016.357c.053.183.077.21 1.056 1.193l1.001 1.005H9.657c-3.672-.001-4.379-.008-4.523-.046a1.652 1.652 0 0 1-1.172-1.214c-.025-.118-.035-1.038-.035-3.058 0-3.171.005-3.084-.189-3.319a.765.765 0 0 0-.77-.235" fill="#2A2D32" fill-rule="evenodd"/></svg>