<svg width="19" height="19" fill="none" xmlns="http://www.w3.org/2000/svg"><path d="M5.755 7.295c-.386.144-.578.539-.461.95.031.112.278.373 1.733 1.834 1.127 1.131 1.74 1.724 1.826 1.765a.87.87 0 0 0 .608.014c.082-.034.641-.572 1.803-1.732 1.863-1.861 1.834-1.826 1.808-2.181a.741.741 0 0 0-.356-.582c-.135-.083-.185-.095-.379-.095-.187 0-.248.014-.367.085-.078.046-.741.684-1.472 1.416l-1.33 1.332-1.362-1.358c-.749-.747-1.41-1.382-1.47-1.412a.9.9 0 0 0-.581-.036" fill="#2A2D32" fill-rule="evenodd"/></svg>