<svg width="19" height="19" fill="none" xmlns="http://www.w3.org/2000/svg"><path d="M8.926 7.293a1.028 1.028 0 0 0-.205.11c-.051.036-.821.797-1.713 1.691-1.23 1.233-1.637 1.66-1.686 1.768a.757.757 0 0 0 .356.979c.166.08.447.087.617.017.08-.034.556-.487 1.495-1.425l1.378-1.376 1.361 1.362c.886.886 1.407 1.384 1.491 1.425.152.074.44.084.592.02a.769.769 0 0 0 .401-1.002c-.049-.108-.459-.539-1.702-1.784-.9-.902-1.697-1.677-1.771-1.721a.83.83 0 0 0-.614-.064" fill="#2A2D32" fill-rule="evenodd"/></svg>