<svg width="19" height="19" fill="none" xmlns="http://www.w3.org/2000/svg"><path d="M2.913.858c-.953.081-1.616.512-1.901 1.235-.163.413-.165.448-.18 2.594-.014 2.129.003 2.547.122 2.935.161.529.489.923.95 1.145.581.279.795.297 3.259.281 2.134-.015 2.17-.017 2.636-.193.594-.225 1.017-.712 1.185-1.367.052-.202.057-.415.057-2.516 0-2.592.003-2.552-.244-3.045-.325-.65-.929-.994-1.883-1.071C6.451.818 3.359.82 2.913.858m9.095-.001c-1.131.106-1.806.655-2.005 1.633-.059.288-.062.422-.052 2.572.01 2.245.011 2.271.081 2.501.104.34.234.576.441.8.334.362.742.558 1.35.65.353.053 4.047.062 4.406.011.843-.121 1.402-.477 1.687-1.076.243-.51.238-.456.253-2.802.013-2.256.001-2.506-.141-2.936-.223-.675-.754-1.125-1.53-1.297-.285-.063-.402-.067-2.248-.075-1.071-.005-2.08.004-2.242.019m-4.74 1.581a.427.427 0 0 1 .221.206c.062.123.064.19.064 2.249 0 1.166-.012 2.174-.026 2.239-.038.18-.159.301-.365.365-.163.05-.364.056-2.206.056-1.866 0-2.042-.005-2.212-.058-.221-.068-.321-.159-.368-.333-.024-.089-.032-.797-.026-2.292.008-1.995.013-2.17.065-2.264a.402.402 0 0 1 .127-.141c.203-.111.357-.117 2.477-.112l2.09.006.159.079m9.05-.032c.165.06.262.166.303.332.044.173.049 4.214.005 4.4-.044.192-.129.28-.337.35-.179.061-.272.064-2.197.064-2.165.001-2.286-.007-2.469-.161-.177-.15-.175-.129-.175-2.451 0-2.33-.002-2.313.178-2.447.189-.14.304-.146 2.497-.138 1.679.005 2.097.015 2.195.051M2.692 9.991c-.817.13-1.404.576-1.663 1.264-.186.495-.19.546-.19 2.805 0 2.013.002 2.083.069 2.384.153.685.511 1.173 1.055 1.438.322.156.583.224 1.021.263.44.04 3.464.039 3.919-.001.707-.062 1.134-.238 1.524-.629.28-.28.427-.553.542-1.002.071-.282.072-.297.071-2.485 0-2.177-.001-2.203-.071-2.454-.232-.834-.711-1.313-1.543-1.543-.248-.068-.296-.07-2.359-.076-1.644-.006-2.165.002-2.375.036m9.262-.026a2.902 2.902 0 0 0-.866.252c-.412.198-.673.46-.87.871-.259.538-.253.476-.267 2.766-.009 1.429-.001 2.116.025 2.328.101.82.47 1.393 1.098 1.706.506.253.879.288 3.002.287 2.142-.001 2.415-.028 2.961-.293.372-.181.664-.473.845-.845.265-.546.292-.819.293-2.961.001-1.704-.023-2.198-.126-2.575-.186-.68-.645-1.183-1.276-1.398-.427-.146-.665-.16-2.76-.155-1.08.003-2.007.01-2.059.017m-4.798 1.54c.193.076.277.163.341.352.048.143.055.371.064 2.059.007 1.255-.001 1.974-.024 2.12-.046.296-.134.444-.315.534l-.144.071H2.834l-.158-.079a.44.44 0 0 1-.238-.238l-.079-.158v-2.122c0-2.108.001-2.122.069-2.27a.422.422 0 0 1 .174-.204c.242-.128.373-.135 2.433-.128 1.807.006 1.991.012 2.121.063m8.916-.039c.284.053.408.129.494.305l.075.152v4.243l-.079.158a.44.44 0 0 1-.238.238l-.158.079h-4.243l-.152-.075c-.18-.088-.256-.216-.308-.514-.024-.138-.032-.817-.025-2.134.01-1.756.016-1.945.067-2.074a.806.806 0 0 1 .122-.212c.068-.072.279-.155.454-.178.236-.032 3.814-.02 3.991.012" fill="#2A2D32" fill-rule="evenodd"/></svg>