<svg width="19" height="19" fill="none" xmlns="http://www.w3.org/2000/svg"><path d="M1.384 1.659a.79.79 0 0 0-.465.37c-.063.11-.079.184-.078.346a.692.692 0 0 0 .249.564c.208.182.32.196 1.553.196h1.112l.88 3.903c.485 2.147.917 3.995.962 4.109.295.75.97 1.296 1.781 1.443.349.063 7.22.063 7.569 0a2.356 2.356 0 0 0 1.781-1.443c.045-.114.39-1.596.767-3.294.667-2.999.686-3.092.65-3.254a.772.772 0 0 0-.395-.512l-.157-.081-6.058-.009c-3.331-.004-6.057-.019-6.057-.032 0-.03-.368-1.652-.413-1.817-.041-.152-.218-.355-.392-.448-.127-.068-.155-.069-1.633-.076-1.162-.005-1.539.003-1.656.035m15.073 3.938c-.197.968-1.117 4.986-1.161 5.073-.081.159-.314.361-.47.408-.178.053-7.149.053-7.327 0-.155-.047-.389-.249-.469-.406-.033-.065-.31-1.228-.616-2.584a526.244 526.244 0 0 0-.574-2.523c-.017-.052.251-.055 5.308-.055h5.327l-.018.087m-8.762 8.718c-.659.088-1.19.617-1.302 1.295-.117.709.324 1.426 1.035 1.684.263.095.714.095.977 0 .256-.093.463-.231.649-.435.198-.217.308-.441.375-.767.05-.243.05-.275 0-.517a1.504 1.504 0 0 0-.366-.759 1.553 1.553 0 0 0-1.368-.501m6.333 0c-.659.088-1.19.617-1.302 1.295-.117.709.324 1.426 1.036 1.684.262.095.714.095.976 0 .256-.093.463-.231.649-.435.199-.217.308-.441.376-.767.05-.243.05-.275 0-.517-.067-.322-.175-.545-.367-.759a1.552 1.552 0 0 0-1.368-.501m-6.08 1.518a.031.031 0 0 1-.031.032.032.032 0 0 1-.032-.032c0-.017.014-.031.032-.031.017 0 .031.014.031.031m6.334 0a.032.032 0 0 1-.032.032.032.032 0 0 1-.032-.032.032.032 0 0 1 .064 0" fill="#2A2D32" fill-rule="evenodd"/></svg>