<svg width="19" height="19" fill="none" xmlns="http://www.w3.org/2000/svg"><path d="M3.67 1.649c-.921.099-1.729.808-1.981 1.74-.052.192-.057.616-.066 6.602-.007 4.351.001 6.465.023 6.612.043.28.139.479.316.657.263.263.668.393 1.005.322.37-.078.38-.086 2.068-1.768l1.599-1.594 4.386-.01c4.05-.01 4.402-.015 4.591-.066a2.436 2.436 0 0 0 1.702-1.716c.053-.206.056-.494.056-4.511s-.003-4.305-.056-4.512a2.436 2.436 0 0 0-1.702-1.716c-.192-.052-.581-.056-5.953-.061-3.161-.003-5.855.006-5.988.021m11.707 1.546a.983.983 0 0 1 .428.428c.056.124.059.3.059 4.294 0 3.994-.003 4.169-.059 4.294a1.05 1.05 0 0 1-.392.416c-.096.052-.376.057-4.567.072-4.229.015-4.474.019-4.639.075a2.09 2.09 0 0 0-.317.139c-.083.047-.688.624-1.449 1.381l-1.306 1.3.001-5.921c0-5.706.003-5.925.059-6.05a.983.983 0 0 1 .428-.428c.125-.056.339-.059 5.877-.059 5.538 0 5.752.003 5.877.059" fill-rule="evenodd" fill="#000"/></svg>