<svg width="19" height="19" fill="none" xmlns="http://www.w3.org/2000/svg"><path d="M8.904 1.096a.74.74 0 0 0-.384.492c-.021.09-.032 2.651-.033 7.423 0 8.01-.014 7.469.192 7.718a.674.674 0 0 0 .568.258.721.721 0 0 0 .675-.409l.069-.127L10 9.073c.007-5.583 0-7.412-.028-7.515a.751.751 0 0 0-1.068-.462m6.016 3.99a.73.73 0 0 0-.368.401c-.043.103-.049.739-.048 5.524.001 5.197.003 5.413.059 5.537.118.259.415.457.686.457a.937.937 0 0 0 .476-.174.823.823 0 0 0 .184-.243l.083-.165v-5.398c0-3.952-.01-5.429-.036-5.517-.124-.414-.635-.622-1.036-.422M2.919 10.089a.81.81 0 0 0-.243.184c-.183.239-.174.084-.174 3.208 0 1.957.011 2.914.034 2.998.048.173.284.415.464.476a.656.656 0 0 0 .485.002.693.693 0 0 0 .423-.369l.082-.165v-2.929c0-2.905-.001-2.93-.066-3.066a.744.744 0 0 0-1.005-.339" fill="#2A2D32" fill-rule="evenodd"/></svg>