<svg width="19" height="19" fill="none" xmlns="http://www.w3.org/2000/svg"><path d="M3.787 3.233a.752.752 0 0 0-.559.58.57.57 0 0 0 .016.354l.054.187 2.57 2.573L8.438 9.5l-2.57 2.573-2.57 2.573-.054.187a.73.73 0 0 0 .115.651.722.722 0 0 0 .808.272l.187-.054 2.573-2.57 2.573-2.57 2.573 2.57 2.573 2.57.187.054a.564.564 0 0 0 .357.015.745.745 0 0 0 .59-.706c.004-.351.13-.209-2.649-2.992L10.562 9.5l2.569-2.573c2.112-2.116 2.576-2.595 2.61-2.699.164-.507-.171-1.002-.683-1.008-.342-.004-.208-.123-2.985 2.649L9.5 8.438 6.943 5.883C5.23 4.171 4.349 3.313 4.275 3.282a.853.853 0 0 0-.488-.049" fill="#2A2D32" fill-rule="evenodd"/></svg>