<svg width="19" height="19" fill="none" xmlns="http://www.w3.org/2000/svg"><path d="M7.663.855c-1.055.129-1.862.89-2.043 1.925a5.236 5.236 0 0 0-.047.738v.469l-1.687.01-1.687.009-.157.081a.88.88 0 0 0-.258.213.728.728 0 0 0 .067.973c.194.194.361.237.91.237h.437v5.221c0 4.463.007 5.26.047 5.489a2.33 2.33 0 0 0 1.91 1.91c.401.07 8.289.07 8.69 0a2.33 2.33 0 0 0 1.91-1.91c.04-.229.047-1.026.047-5.489V5.51h.437c.549 0 .716-.043.91-.237a.728.728 0 0 0 .067-.973.88.88 0 0 0-.258-.213l-.157-.081-1.687-.009-1.687-.01v-.469c0-.544-.055-.911-.183-1.226a2.37 2.37 0 0 0-1.236-1.26c-.444-.187-.44-.187-2.365-.195-.976-.004-1.866.004-1.98.018m3.792 1.56c.131.072.308.249.38.38.046.084.058.201.066.649l.011.546H7.093v-.483c0-.266.014-.532.031-.591a.887.887 0 0 1 .528-.541c.05-.015.903-.025 1.896-.022 1.659.006 1.813.011 1.907.062m2.825 8.344c-.001 4.249-.009 5.271-.043 5.365a.863.863 0 0 1-.406.451l-.163.082H5.332l-.163-.082a.863.863 0 0 1-.406-.451c-.034-.094-.042-1.116-.043-5.365L4.718 5.51h9.564l-.002 5.249" fill="#2A2D32" fill-rule="evenodd"/></svg>