<svg width="19" height="19" fill="none" xmlns="http://www.w3.org/2000/svg"><path d="M9.317 1.649a.604.604 0 0 0-.486.336l-.075.153-.016 4.683-.016 4.683-1.381-1.503C5.875 8.404 5.827 8.359 5.55 8.361c-.253.001-.58.235-.718.512-.121.243-.101.421.076.666.047.065.939 1.048 1.983 2.184 1.043 1.136 1.934 2.125 1.981 2.197.113.179.383.313.628.313a.797.797 0 0 0 .642-.329c.056-.082.957-1.08 2.002-2.217s1.94-2.128 1.989-2.203c.174-.266.143-.532-.092-.801-.162-.185-.414-.323-.593-.323-.268 0-.354.079-1.806 1.659l-1.366 1.487-.016-4.684-.016-4.684-.075-.153c-.136-.277-.433-.394-.852-.336m-7.125 8.709a.602.602 0 0 0-.486.335l-.075.153v2.66c0 2.451.004 2.677.056 2.881a2.426 2.426 0 0 0 1.718 1.717c.208.054.557.057 6.095.057 5.538 0 5.887-.003 6.095-.057a2.426 2.426 0 0 0 1.718-1.717c.052-.204.056-.43.056-2.881v-2.66l-.075-.153c-.134-.272-.435-.391-.846-.335-.234.032-.397.143-.492.335l-.075.153-.016 2.628c-.015 2.436-.02 2.636-.072 2.731a1.042 1.042 0 0 1-.416.391c-.125.057-.339.059-5.877.059-5.538 0-5.752-.002-5.877-.059a.976.976 0 0 1-.428-.427c-.055-.123-.059-.259-.06-2.584-.001-1.35-.014-2.545-.03-2.656-.065-.447-.375-.642-.913-.571" fill-rule="evenodd" fill="#000"/></svg>