<svg width="19" height="19" fill="none" xmlns="http://www.w3.org/2000/svg"><path d="M5.51 2.283a4.902 4.902 0 0 0-1.932.657A4.852 4.852 0 0 0 1.34 6.143c-.081.393-.08 1.469 0 1.821.164.716.426 1.325.799 1.855.227.324 1.677 1.813 4.548 4.67 2.218 2.208 2.16 2.158 2.599 2.233.161.027.267.027.428 0 .438-.074.39-.034 2.504-2.138 2.851-2.837 4.421-4.448 4.644-4.765.372-.53.634-1.139.798-1.855.08-.352.081-1.428 0-1.821-.313-1.535-1.322-2.821-2.698-3.442a4.5 4.5 0 0 0-1.604-.426 4.729 4.729 0 0 0-3.66 1.285l-.198.191-.198-.191A4.756 4.756 0 0 0 5.51 2.283" fill="#2A2D32" fill-rule="evenodd"/></svg>