<svg width="19" height="19" fill="none" xmlns="http://www.w3.org/2000/svg"><path d="M5.621 2.267a4.799 4.799 0 0 0-2.846 1.282c-.609.577-1.017 1.208-1.268 1.965-.518 1.56-.239 3.203.763 4.486.115.147 1.613 1.674 3.332 3.396 3.415 3.422 3.229 3.254 3.689 3.333.155.026.263.026.418 0 .461-.079.273.09 3.694-3.339 1.934-1.937 3.212-3.242 3.347-3.417a4.779 4.779 0 0 0 .746-4.452 4.68 4.68 0 0 0-1.265-1.966 4.727 4.727 0 0 0-2.376-1.218 5.377 5.377 0 0 0-1.781.001 4.87 4.87 0 0 0-2.313 1.146l-.261.227-.261-.227c-.897-.782-1.912-1.186-3.062-1.218a7.363 7.363 0 0 0-.556.001m1.298 1.607c.752.216 1.313.625 1.875 1.365.258.339.414.436.706.436.272 0 .451-.101.659-.373.362-.471.475-.596.734-.807a3.806 3.806 0 0 1 1.235-.638c.237-.064.34-.072.855-.071.542.003.607.009.864.088.9.275 1.585.827 2.005 1.617a3.306 3.306 0 0 1-.276 3.549c-.086.114-1.489 1.543-3.116 3.176L9.5 15.184l-2.969-2.977c-1.633-1.638-3.034-3.065-3.114-3.171a3.94 3.94 0 0 1-.514-1.01 3.302 3.302 0 0 1 2.185-4.13c.359-.109.5-.124 1.04-.114.43.009.549.023.791.092" fill="#2A2D32" fill-rule="evenodd"/></svg>