<svg width="19" height="19" fill="none" xmlns="http://www.w3.org/2000/svg"><path d="M12.544 3.296a3.894 3.894 0 0 0-.94.33 3.144 3.144 0 0 0-1.473 1.742l-.086.253-4.144.016c-3.78.014-4.152.02-4.239.068a.842.842 0 0 0-.409.575c-.049.272.149.637.418.77.113.056.309.06 4.246.075l4.128.016.107.299a3.12 3.12 0 0 0 3.114 2.049 3.242 3.242 0 0 0 1.631-.573c.221-.158.627-.569.768-.778.137-.202.306-.55.388-.799l.07-.214h.911c1.068 0 1.124-.011 1.344-.255a.84.84 0 0 0 .178-.298.743.743 0 0 0-.33-.824l-.155-.095-.972-.01-.971-.009-.087-.26a3.095 3.095 0 0 0-1.616-1.813c-.424-.204-.736-.275-1.267-.286a4.484 4.484 0 0 0-.614.021m.911 1.503c.576.135 1.076.63 1.205 1.192.048.209.039.627-.017.82-.231.786-.992 1.289-1.775 1.172a1.64 1.64 0 0 1-1.404-1.612 1.623 1.623 0 0 1 1.991-1.572M6.21 9.629a3.925 3.925 0 0 0-.94.33 3.142 3.142 0 0 0-1.472 1.742l-.086.253-.977.016c-1.064.017-1.066.018-1.258.21a.743.743 0 0 0 .183 1.193c.123.066.178.07 1.09.085l.962.016.106.299a3.121 3.121 0 0 0 3.115 2.05 3.251 3.251 0 0 0 1.631-.573c.221-.159.626-.57.768-.778.137-.203.306-.55.388-.8l.07-.214h4.077c3.643 0 4.092-.005 4.224-.05.19-.065.409-.301.465-.503a.742.742 0 0 0-.33-.823l-.155-.096-4.138-.008-4.138-.009-.087-.261a3.094 3.094 0 0 0-1.617-1.813c-.424-.205-.735-.275-1.267-.287a4.492 4.492 0 0 0-.614.021m.912 1.503c.576.136 1.075.63 1.205 1.192.048.209.039.627-.018.82-.23.786-.992 1.289-1.774 1.173a1.64 1.64 0 0 1-1.405-1.612 1.625 1.625 0 0 1 1.992-1.573" fill="#2A2D32" fill-rule="evenodd"/></svg>