<svg width="19" height="19" fill="none" xmlns="http://www.w3.org/2000/svg"><path d="M9.009.858c-2.245.143-4.19 1.286-5.438 3.195-.543.831-.927 1.859-1.09 2.918-.076.494-.076 1.434-.001 1.927a7.01 7.01 0 0 0 1.376 3.262c.115.148 1.325 1.526 2.69 3.062 2.718 3.058 2.597 2.937 2.954 2.937.36 0 .247.112 2.859-2.826 2.77-3.115 2.734-3.073 3.065-3.569a7.04 7.04 0 0 0 1.094-2.834c.077-.5.078-1.464 0-1.963a7.202 7.202 0 0 0-1.185-3.056C13.925 1.824 11.583.693 9.009.858m1.255 1.531c2.362.315 4.196 2.049 4.706 4.449.076.359.084.464.085 1.079.002.711-.025.938-.177 1.488a5.855 5.855 0 0 1-1.017 1.963c-.234.292-4.335 4.893-4.361 4.893-.028 0-4.094-4.568-4.352-4.888a5.42 5.42 0 0 1-1.221-3.45c.005-2.543 1.72-4.783 4.139-5.406a6.281 6.281 0 0 1 2.198-.128M9.057 5.588c-.509.109-.85.295-1.221.665-.481.481-.692.989-.692 1.664 0 .674.21 1.181.692 1.665.242.243.333.31.587.435.412.202.634.255 1.077.256.441.002.657-.05 1.077-.256.253-.124.346-.193.588-.435.243-.243.311-.335.435-.589.252-.512.327-.987.234-1.477a2.397 2.397 0 0 0-1.748-1.896c-.266-.071-.776-.087-1.029-.032" fill="#2A2D32" fill-rule="evenodd"/></svg>