<svg width="19" height="19" fill="none" xmlns="http://www.w3.org/2000/svg"><path d="M6.392.856a3.518 3.518 0 0 0-3.106 2.786 3.923 3.923 0 0 0 0 1.425c.078.372.216.734.399 1.045l.139.237-1.208.016-1.209.016-.157.081a.764.764 0 0 0-.392.505c-.047.221-.047 3.262 0 3.483a.765.765 0 0 0 .39.504c.143.073.197.081.656.092l.5.013.011 2.585c.011 2.798.001 2.637.186 3.092a2.378 2.378 0 0 0 1.274 1.258c.463.188.305.183 5.621.182 3.168 0 4.937-.011 5.071-.032a2.34 2.34 0 0 0 1.921-1.661l.088-.285.01-2.57.01-2.569.497-.013c.557-.014.715-.06.882-.258.192-.228.186-.16.186-2.08V6.951l-.074-.15a.85.85 0 0 0-.174-.234c-.22-.185-.218-.185-1.534-.196l-1.212-.01.083-.133c.394-.634.571-1.383.514-2.182-.119-1.671-1.49-3.044-3.184-3.189a3.493 3.493 0 0 0-2.85 1.067l-.229.237-.268-.27A3.515 3.515 0 0 0 6.392.856m.771 1.523c.574.12 1.132.569 1.39 1.12.177.377.187.465.187 1.717v1.149H7.602c-.694 0-1.204-.013-1.307-.034a2.717 2.717 0 0 1-.461-.175 1.867 1.867 0 0 1-.906-.907c-.166-.345-.21-.533-.21-.895s.044-.55.21-.895c.19-.396.492-.704.878-.895.148-.074.345-.152.438-.174a2.86 2.86 0 0 1 .919-.011m5.542 0c.416.087.894.392 1.156.739.287.379.421.772.421 1.236a2 2 0 0 1-1.18 1.835c-.361.166-.461.176-1.704.176H10.26V5.227c0-.694.013-1.204.034-1.307.019-.092.098-.299.175-.461.191-.396.492-.704.879-.895.148-.074.345-.152.438-.174a2.86 2.86 0 0 1 .919-.011M8.74 8.708v.824H2.343V7.885H8.74v.823m7.917 0v.824H10.26V7.885h6.397v.823M8.74 13.854v2.803H4.541l-.164-.082a.863.863 0 0 1-.406-.451c-.033-.092-.042-.632-.043-2.594l-.001-2.478H8.74v2.802m6.326-.293c-.008 2.41-.011 2.515-.07 2.633a1.011 1.011 0 0 1-.374.391c-.095.052-.266.057-2.232.065l-2.13.008v-5.606h4.814l-.008 2.509" fill="#2A2D32" fill-rule="evenodd"/></svg>