<svg width="19" height="19" fill="none" xmlns="http://www.w3.org/2000/svg"><path d="M9.171 1.334c-.067.036-1.774 1.304-3.793 2.818-3.216 2.413-3.687 2.777-3.809 2.943-.165.224-.26.461-.302.753-.042.29-.041 8.245.001 8.54a1.608 1.608 0 0 0 1.376 1.347c.161.022.966.03 2.201.023 1.907-.01 1.952-.012 2.153-.08a1.61 1.61 0 0 0 .91-.757c.203-.381.199-.308.199-3.073v-2.511h2.786v2.511c0 2.123.008 2.538.048 2.692.14.54.531.96 1.056 1.137.207.07.239.071 2.158.081 1.235.007 2.04-.001 2.201-.023a1.611 1.611 0 0 0 1.376-1.347c.042-.295.043-8.25.001-8.54a1.599 1.599 0 0 0-.302-.753c-.122-.166-.593-.53-3.81-2.943-2.019-1.515-3.728-2.783-3.799-2.819a.823.823 0 0 0-.651.001m3.707 4.136 3.367 2.526-.008 4.116-.008 4.117-1.898.008c-1.497.007-1.903 0-1.923-.031-.014-.022-.026-1.328-.026-2.902 0-2.172-.01-2.894-.039-2.993-.056-.187-.264-.383-.471-.445-.243-.072-4.493-.075-4.733-.003a.726.726 0 0 0-.453.38c-.067.142-.068.153-.068 3.033 0 1.589-.012 2.908-.026 2.93-.02.031-.426.038-1.923.031l-1.898-.008-.008-4.117-.008-4.116 3.364-2.525a638.5 638.5 0 0 1 3.378-2.525c.007-.001 1.529 1.135 3.381 2.524" fill="#2A2D32" fill-rule="evenodd"/></svg>