<svg width="19" height="19" fill="none" xmlns="http://www.w3.org/2000/svg"><path d="M9.89 1.581a2.218 2.218 0 0 0-1.061.633c-.075.084-.669.946-1.32 1.916L6.326 5.894l-.124-.256a1.493 1.493 0 0 0-.703-.713c-.428-.21-.523-.222-1.636-.222-1.115 0-1.207.012-1.64.224-.314.154-.536.38-.7.716-.235.479-.227.287-.218 5.142l.009 4.304.082.259c.156.496.43.827.862 1.039.395.194.583.22 1.605.22s1.211-.026 1.606-.22c.291-.143.531-.363.687-.629l.123-.21.13.105a75.285 75.285 0 0 0 1.827 1.408c.217.145.556.274.947.361.328.073.361.074 2.185.074 1.841 0 1.855-.001 2.138-.074.344-.09.807-.302 1.072-.492.358-.257.733-.687.914-1.049.086-.17 2.05-6.114 2.15-6.505a2.188 2.188 0 0 0-.149-1.433 1.987 1.987 0 0 0-.947-.901c-.459-.218-.408-.213-2.465-.232-1.797-.017-1.864-.02-1.908-.079a.245.245 0 0 1-.045-.111c0-.027.102-.705.227-1.506.224-1.434.227-1.46.189-1.72a2.197 2.197 0 0 0-1.396-1.759c-.212-.084-.284-.095-.635-.105-.316-.008-.441.002-.623.051m.859 1.176c.316.118.582.46.611.786.008.087-.071.681-.192 1.46-.267 1.708-.255 1.594-.2 1.857.111.534.462.921.986 1.09.095.031.604.046 2.027.059l1.9.018.158.085c.321.171.468.407.468.755 0 .185-.102.518-1.02 3.309-.561 1.707-1.057 3.172-1.103 3.255-.116.215-.487.556-.738.679-.414.203-.408.202-2.379.191-1.749-.011-1.787-.012-2.02-.083a1.953 1.953 0 0 1-.324-.125c-.048-.03-.628-.474-1.29-.988l-1.204-.934V7.869l1.618-2.406c.889-1.324 1.654-2.446 1.699-2.494.23-.244.67-.337 1.003-.212M4.892 5.94c.199.079.285.203.331.481.026.152.033 1.4.027 4.362-.009 3.913-.012 4.155-.066 4.274-.153.339-.294.379-1.321.38-1.025.001-1.167-.04-1.32-.38-.054-.119-.058-.361-.066-4.274-.007-2.906.001-4.21.025-4.352.09-.523.222-.576 1.425-.562.716.007.825.015.965.071" fill="#2A2D32" fill-rule="evenodd"/></svg>