<svg width="19" height="19" fill="none" xmlns="http://www.w3.org/2000/svg"><path d="M2.859.857A4.002 4.002 0 0 0 2.4.932c-.265.067-.671.27-.855.43-.209.181-.446.55-.543.844-.159.486-.163.548-.163 2.766 0 2.023.002 2.082.07 2.391.191.86.735 1.428 1.552 1.62.235.055.573.058 7.055.058h6.808l.269-.074c.604-.165 1.053-.519 1.291-1.019.172-.361.224-.59.265-1.171.045-.638.019-3.825-.033-4.117-.099-.545-.363-1.049-.694-1.319-.345-.283-.752-.431-1.334-.486-.4-.038-12.835-.036-13.229.002m13.497 1.566a.427.427 0 0 1 .206.221l.079.159v2.121c0 1.956-.005 2.133-.056 2.267a.653.653 0 0 1-.127.21c-.173.158.138.152-6.942.152-7.183 0-6.823.008-6.997-.174-.169-.176-.175-.254-.175-2.414-.001-1.298.011-2.04.033-2.144.051-.237.146-.357.331-.421.147-.051.606-.054 6.84-.048 6.611.007 6.682.008 6.808.071M2.677 9.978c-.512.076-.889.259-1.222.595-.277.28-.402.51-.53.977l-.085.309v2.154c-.001 1.968.004 2.176.057 2.422.197.916.683 1.421 1.605 1.669.192.051.643.056 6.776.065 4.698.008 6.661.001 6.888-.025.942-.105 1.578-.575 1.833-1.355.151-.463.154-.498.169-2.507.015-2.019-.001-2.389-.121-2.82-.199-.72-.706-1.222-1.444-1.432l-.247-.071-6.745-.004c-3.731-.003-6.83.008-6.934.023m13.647 1.549a.439.439 0 0 1 .238.237l.079.159.009 1.995c.012 2.425.004 2.496-.287 2.651l-.134.072H9.5c-6.666 0-6.73-.001-6.856-.063a.433.433 0 0 1-.206-.222l-.079-.158v-4.275l.079-.158c.093-.185.216-.267.453-.302.091-.013 3.115-.022 6.72-.02l6.555.005.158.079" fill="#2A2D32" fill-rule="evenodd"/></svg>