<svg width="19" height="19" fill="none" xmlns="http://www.w3.org/2000/svg"><path d="M7.776 1.066c-.775.166-1.421.726-1.669 1.446-.094.271-.116.788-.046 1.067.19.762.753 1.331 1.572 1.588.235.073.247.074 1.82.074 1.761 0 1.755 0 2.216-.223.59-.286 1.013-.782 1.175-1.379a2.225 2.225 0 0 0-.013-1.058c-.241-.775-.883-1.346-1.71-1.522-.313-.066-3.03-.061-3.345.007m.014 6.39c-.829.169-1.529.816-1.731 1.601-.068.262-.067.684.002.949.218.84.938 1.469 1.866 1.628.139.024.272.066.301.095.048.048.054.225.069 1.786l.016 1.733.084.232c.121.331.263.555.517.814.374.381.846.609 1.416.685 1.035.138 2.105-.494 2.451-1.448.135-.37.144-.622.131-3.561-.013-3.013-.004-2.862-.193-3.276-.256-.56-.744-.976-1.398-1.193-.219-.073-.243-.074-1.773-.08-1.184-.005-1.601.003-1.758.035" fill="#2A2D32" fill-rule="evenodd"/></svg>