<svg width="19" height="19" fill="none" xmlns="http://www.w3.org/2000/svg"><path d="M8.993.858c-3.343.181-6.329 2.351-7.561 5.495C1.016 7.412.843 8.34.843 9.5c0 .739.038 1.131.175 1.773a8.717 8.717 0 0 0 6.343 6.619 8.514 8.514 0 0 0 5.116-.26c2.42-.891 4.363-2.864 5.194-5.273.349-1.01.485-1.813.485-2.859s-.136-1.849-.485-2.859c-.724-2.098-2.284-3.865-4.308-4.879a10.5 10.5 0 0 0-.85-.382 8.736 8.736 0 0 0-3.52-.522m1.34 1.533a6.672 6.672 0 0 1 2.302.684c.27.134.64.344.823.466a7.2 7.2 0 0 1 3.069 4.597c.551 2.852-.662 5.723-3.105 7.345a7.316 7.316 0 0 1-2.782 1.095c-.4.072-1.465.099-1.903.049a7.11 7.11 0 0 1-4.289-2.075c-1.083-1.083-1.743-2.35-2.015-3.871-.062-.35-.072-.512-.072-1.181 0-.858.047-1.24.24-1.925a7.222 7.222 0 0 1 6.123-5.197 9.11 9.11 0 0 1 1.609.013m-4.38 6.183c-.208.073-.48.357-.555.578a.977.977 0 0 0 .236 1.047c.213.213.39.283.716.283a.744.744 0 0 0 .42-.097.938.938 0 0 0 .545-.885c0-.413-.203-.729-.584-.906-.193-.09-.553-.1-.778-.02m3.215-.014a1.001 1.001 0 0 0-.414 1.597c.198.219.386.305.703.319.227.01.282.002.448-.073a.999.999 0 0 0 .487-.46c.062-.12.074-.19.074-.443 0-.254-.012-.323-.074-.443a.956.956 0 0 0-.464-.447.76.76 0 0 0-.428-.089c-.131.001-.28.019-.332.039m3.166 0a1.001 1.001 0 0 0-.413 1.597c.198.219.386.305.703.319.227.01.282.002.447-.073a.98.98 0 0 0 .574-1.065.945.945 0 0 0-.551-.728.757.757 0 0 0-.427-.089 1.302 1.302 0 0 0-.333.039" fill="#2A2D32" fill-rule="evenodd"/></svg>