<svg width="19" height="19" fill="none" xmlns="http://www.w3.org/2000/svg"><path d="M2.502.857c-.613.069-1.131.447-1.407 1.027-.389.818-.346 1.991.13 3.531.586 1.897 1.788 4.075 3.297 5.974.563.709.995 1.192 1.684 1.881 2.51 2.512 5.354 4.119 8.345 4.714 1.229.245 1.617.24 2.188-.031.446-.212.875-.675 1.071-1.158.128-.314.171-.632.273-2.001.078-1.053.09-1.352.064-1.536-.115-.817-.571-1.462-1.284-1.813-.244-.119-.513-.198-1.853-.54-1.518-.389-1.578-.401-1.9-.401-.562 0-.82.094-1.63.593-.27.167-.507.303-.526.303-.101 0-1.269-1.048-1.802-1.618a25.379 25.379 0 0 1-1.558-1.823c-.018-.023.127-.274.414-.716.52-.801.547-.851.655-1.216.111-.374.119-.862.021-1.216-.068-.241-.897-2.322-1.038-2.603A2.317 2.317 0 0 0 6.106.999C5.97.967 5.473.937 4.56.904 3.82.878 3.1.851 2.961.845a3.564 3.564 0 0 0-.459.012m1.836 1.534c.741.027 1.403.064 1.473.083.218.06.373.19.49.411.033.063.261.611.506 1.218.479 1.189.5 1.273.399 1.559-.024.07-.312.539-.639 1.041-.616.947-.698 1.114-.657 1.34.04.222.197.462.787 1.204 1.07 1.344 2.309 2.582 3.419 3.417.403.303.536.377.722.401.217.028.383-.046 1.135-.51.831-.511.912-.552 1.118-.553.164 0 2.926.693 3.117.783.255.12.448.438.448.737 0 .095-.042.719-.093 1.385-.104 1.348-.113 1.39-.343 1.597-.202.183-.379.192-1.137.056-3.191-.573-6.289-2.48-8.842-5.445-1.555-1.806-2.813-3.908-3.468-5.794-.312-.899-.448-1.615-.421-2.218.018-.397.059-.563.17-.682.088-.095.02-.094 1.816-.03" fill="#2A2D32" fill-rule="evenodd"/></svg>