<svg width="19" height="19" fill="none" xmlns="http://www.w3.org/2000/svg"><path d="M9.301 2.451a.752.752 0 0 0-.466.386l-.079.154-.009 2.874-.008 2.873-2.874.009-2.874.009-.157.081a.88.88 0 0 0-.258.213.727.727 0 0 0 .067.973c.248.248.102.237 3.284.237h2.812l.008 2.875.009 2.874.081.157a.88.88 0 0 0 .213.258.732.732 0 0 0 .97-.061c.25-.242.24-.098.24-3.29V10.26h2.813c3.178 0 3.044.01 3.288-.234a.742.742 0 0 0-.37-1.251c-.109-.024-1.052-.035-2.945-.035h-2.784l-.009-2.89-.009-2.889-.07-.131a.766.766 0 0 0-.873-.379" fill="#2A2D32" fill-rule="evenodd"/></svg>