<svg width="19" height="19" fill="none" xmlns="http://www.w3.org/2000/svg"><path d="M9.12 1.65a3.95 3.95 0 0 0-2.428 1.173 3.808 3.808 0 0 0-1.098 2.719c0 1.075.395 2.023 1.159 2.776.573.566 1.199.899 2.02 1.074.422.09 1.118.078 1.57-.027.436-.101.877-.28 1.237-.502.376-.233.955-.803 1.201-1.183a3.892 3.892 0 0 0-.462-4.842A3.876 3.876 0 0 0 9.12 1.65M10 3.184c.146.03.373.112.563.204a2.396 2.396 0 0 1 1.294 2.654c-.168.821-.802 1.528-1.613 1.797a2.669 2.669 0 0 1-1.23.064c-.752-.167-1.343-.627-1.668-1.298-.344-.711-.342-1.42.006-2.139.141-.29.196-.367.451-.621.254-.255.331-.311.622-.451.182-.089.431-.182.553-.207A2.876 2.876 0 0 1 10 3.184m-5.408 7.951c-.678.07-1.208.34-1.625.83-.21.247-.351.508-.455.844l-.088.285-.001 1.853v1.854l.08.157a.779.779 0 0 0 .515.397.752.752 0 0 0 .827-.413c.064-.138.066-.203.082-1.932.015-1.688.019-1.796.077-1.913a.9.9 0 0 1 .385-.385c.121-.06.242-.061 5.127-.061 4.724 0 5.009.003 5.106.056.131.071.308.249.38.38.051.093.057.259.071 1.908l.016 1.806.081.157a.742.742 0 0 0 1.189.194c.234-.233.234-.24.234-2.144 0-1.803-.014-1.998-.171-2.398-.272-.692-.841-1.196-1.593-1.408l-.246-.07-4.94-.004c-2.717-.002-4.99.001-5.051.007" fill="#2A2D32" fill-rule="evenodd"/></svg>