<svg width="18" height="18" fill="none" xmlns="http://www.w3.org/2000/svg"><path d="M6.93.088a8.41 8.41 0 0 0-2.232.79A8.701 8.701 0 0 0 .736 5.082a9.092 9.092 0 0 0-.653 2.253c-.088.561-.095 1.811-.013 2.37.339 2.304 1.431 4.228 3.21 5.655 2.865 2.297 6.932 2.506 10.055.516 1.524-.971 2.783-2.513 3.42-4.191a8.246 8.246 0 0 0 .566-3.105 8.038 8.038 0 0 0-.325-2.397c-.9-3.124-3.44-5.457-6.65-6.106C9.973.001 9.948 0 8.651.002L7.335.004 6.93.088m2.666 1.487a7.218 7.218 0 0 1 4.968 3.15c.26.392.644 1.171.791 1.605.142.418.254.888.325 1.35.079.518.071 1.531-.016 2.07a7.159 7.159 0 0 1-2.108 4.065c-1.131 1.094-2.486 1.744-4.106 1.969-.41.057-1.402.05-1.832-.014A7.173 7.173 0 0 1 2.254 5.31a6.947 6.947 0 0 1 1.18-1.616 6.34 6.34 0 0 1 1.178-.985A7.253 7.253 0 0 1 7.92 1.53c.357-.037 1.27-.013 1.676.045M8.264 4.771c-.342.028-.553.07-.919.181-.439.133-.573.307-.459.592.107.267.326.326.749.202.148-.043.41-.093.58-.111.681-.072 1.136.122 1.352.575.067.142.078.205.078.454 0 .281-.003.294-.132.548-.113.223-.198.33-.595.747-.255.267-.529.574-.61.681-.312.415-.439.805-.405 1.245.025.33.045.345.47.345.411 0 .447-.025.448-.308.001-.252.042-.418.165-.662.15-.296.334-.523.795-.98.753-.746.958-1.112.959-1.713.001-1.031-.678-1.702-1.821-1.797a7.331 7.331 0 0 0-.369-.025 8.461 8.461 0 0 1-.286.026m-.198 6.593c-.299.155-.442.518-.342.863.065.223.268.433.474.491.2.056.469.027.632-.068.505-.296.45-1.103-.092-1.33a1.032 1.032 0 0 0-.304-.04.65.65 0 0 0-.368.084" fill="#89909A" fill-rule="evenodd"/></svg>