<svg width="19" height="19" fill="none" xmlns="http://www.w3.org/2000/svg"><path d="M7.318 1.366c-2.135.223-4.011 1.629-4.794 3.59-.475 1.19-.556 2.368-.246 3.57a5.623 5.623 0 0 0 3.327 3.807c.832.335 1.498.451 2.422.419a5.149 5.149 0 0 0 1.648-.302l.355-.122 1.469 2.546c.808 1.401 1.515 2.601 1.572 2.669.48.568 1.416.113 1.291-.628-.015-.085-.522-.994-1.526-2.733l-1.505-2.607.09-.075c1.095-.917 1.753-1.978 2.051-3.309a5.602 5.602 0 0 0-1.435-5.097 5.706 5.706 0 0 0-4.719-1.728m1.329 1.535a4.411 4.411 0 0 1 1.658.671c.301.198.884.786 1.09 1.099.308.466.51.95.628 1.504.081.377.08 1.27 0 1.639-.513 2.351-2.761 3.84-5.08 3.366a4.154 4.154 0 0 1-2.92-2.245c-.312-.626-.431-1.207-.404-1.981.026-.742.183-1.31.533-1.93a4.402 4.402 0 0 1 2.995-2.122c.35-.064 1.132-.064 1.5-.001" fill="#2A2D32" fill-rule="evenodd"/></svg>