<svg width="19" height="19" fill="none" xmlns="http://www.w3.org/2000/svg"><path d="M5.193 4.02a.876.876 0 0 0-.205.073c-.053.028-.839.797-1.749 1.708C1.981 7.061 1.571 7.492 1.522 7.6a.691.691 0 0 0 .001.57c.167.371.523.538.906.427.178-.051.214-.083 1.173-1.038l.99-.986v4.128c0 3.148.009 4.158.038 4.258.056.187.314.438.508.492a.758.758 0 0 0 .942-.596c.02-.109.032-1.638.032-4.227V6.571l.973.971c.536.533 1.017.992 1.07 1.018.24.12.566.084.789-.086.155-.118.271-.37.271-.589 0-.333-.012-.347-1.796-2.125-1.014-1.009-1.682-1.652-1.751-1.682a.872.872 0 0 0-.475-.058m8.3.005a.779.779 0 0 0-.437.277c-.161.238-.151-.032-.16 4.437l-.009 4.162-.989-.986c-.658-.657-1.028-1.003-1.107-1.036-.166-.069-.474-.063-.621.012a.72.72 0 0 0-.409.743.576.576 0 0 0 .113.34c.141.203 3.327 3.368 3.458 3.435.149.077.483.08.634.004.061-.03.882-.828 1.824-1.773 1.59-1.595 1.715-1.728 1.753-1.868a.764.764 0 0 0-.434-.899.907.907 0 0 0-.62.024c-.083.042-.498.43-1.107 1.036l-.974.969V8.774c0-3.041-.009-4.16-.036-4.25-.106-.353-.495-.573-.879-.499" fill="#2A2D32" fill-rule="evenodd"/></svg>