<svg width="19" height="19" fill="none" xmlns="http://www.w3.org/2000/svg"><path d="M9.408 2.466a.31.31 0 0 0-.135.1c-.032.043-.48 1.076-.996 2.295-.516 1.219-.966 2.248-1.001 2.286a.333.333 0 0 1-.147.087c-.046.009-1.102.103-2.347.208-2.765.232-2.591.212-2.682.303-.1.1-.101.297-.002.404.039.043.876.773 1.86 1.622.984.849 1.814 1.573 1.844 1.61.03.037.055.112.056.168 0 .055-.25 1.172-.556 2.482-.6 2.574-.587 2.49-.414 2.611.16.112.182.101 2.321-1.191 2.276-1.374 2.196-1.328 2.299-1.328.084 0-.005-.052 2.488 1.452 1.924 1.16 1.958 1.178 2.116 1.067.171-.12.184-.037-.415-2.621-.305-1.317-.555-2.428-.555-2.469 0-.041.022-.107.05-.146.027-.039.857-.771 1.844-1.626.987-.855 1.827-1.589 1.866-1.631.099-.108.098-.304-.004-.405-.092-.092.102-.07-2.632-.302a224.54 224.54 0 0 1-2.347-.207.338.338 0 0 1-.194-.088c-.035-.038-.48-1.053-.99-2.254a197.45 197.45 0 0 0-.972-2.275c-.036-.07-.223-.193-.27-.177a2.766 2.766 0 0 1-.085.025m.533 3.977c.078.04.145.175.482.97.281.663.412.937.465.972.056.037.418.079 1.43.168.746.065 1.386.134 1.422.153.089.048.13.134.13.273 0 .144.042.102-1.15 1.136-.54.467-.958.854-.976.9-.025.066.03.343.272 1.382.166.714.303 1.344.303 1.399-.001.127-.152.264-.292.264-.069 0-.409-.188-1.209-.671-1.273-.768-1.239-.746-1.284-.843-.023-.05-.034-.985-.033-2.992.001-3.133-.004-3.022.161-3.113.099-.055.17-.055.279.002" fill="#2A2D32" fill-rule="evenodd"/></svg>