<svg width="19" height="19" fill="none" xmlns="http://www.w3.org/2000/svg"><path d="M9.383 2.485a.36.36 0 0 0-.162.165c-.033.066-.471 1.09-.971 2.274-.501 1.185-.939 2.185-.974 2.223a.333.333 0 0 1-.147.087c-.046.009-1.102.103-2.347.208-2.765.232-2.591.212-2.682.303-.1.1-.101.297-.002.404.039.043.876.773 1.86 1.622.984.849 1.814 1.573 1.844 1.61.03.037.055.112.056.168 0 .055-.25 1.172-.556 2.482-.6 2.574-.587 2.49-.414 2.611.16.112.182.101 2.321-1.191 2.276-1.374 2.196-1.328 2.299-1.328.084 0-.005-.052 2.488 1.452 1.337.806 1.873 1.113 1.941 1.113.136 0 .217-.052.268-.174.042-.101.015-.229-.51-2.482-.304-1.306-.553-2.424-.553-2.484a.31.31 0 0 1 .055-.173c.031-.035.868-.765 1.861-1.621.992-.857 1.829-1.587 1.86-1.622.086-.099.073-.297-.025-.387-.099-.092.083-.072-2.675-.303a140.815 140.815 0 0 1-2.347-.208.324.324 0 0 1-.147-.087c-.036-.038-.481-1.053-.99-2.254a187.744 187.744 0 0 0-.971-2.275.35.35 0 0 0-.153-.135c-.127-.053-.102-.053-.227.002" fill="#2A2D32" fill-rule="evenodd"/></svg>