<svg width="19" height="19" fill="none" xmlns="http://www.w3.org/2000/svg"><path d="M9.036 2.442c-1.818.095-3.574.83-5.268 2.207-.43.349-1.424 1.345-1.809 1.811A19.3 19.3 0 0 0 .358 8.728a8.162 8.162 0 0 1-.247.392c-.085.123-.094.161-.094.383 0 .227.008.257.1.383.056.075.158.237.228.36.361.633 1.04 1.598 1.614 2.294.385.466 1.379 1.462 1.809 1.811 1.702 1.383 3.442 2.11 5.283 2.206 2.197.115 4.209-.604 6.181-2.206.43-.349 1.424-1.345 1.809-1.811a19.027 19.027 0 0 0 1.583-2.237c.094-.158.213-.348.265-.423.085-.123.094-.161.094-.38s-.009-.257-.094-.38a9.614 9.614 0 0 1-.265-.423A19.024 19.024 0 0 0 17.04 6.46c-.376-.456-1.338-1.424-1.771-1.781-1.942-1.608-4.017-2.353-6.233-2.237m1.525 1.559c1.1.21 1.96.568 2.944 1.226.963.645 2.023 1.68 2.874 2.806.239.317.643.911.862 1.269l.121.198-.121.198A14.395 14.395 0 0 1 15.2 12.33c-1.498 1.536-2.958 2.366-4.718 2.685-.324.058-1.64.058-1.964 0-1.76-.319-3.22-1.149-4.718-2.685a14.364 14.364 0 0 1-2.039-2.632L1.642 9.5l.119-.198A14.364 14.364 0 0 1 3.8 6.67c1.175-1.205 2.34-1.98 3.615-2.406.478-.16.804-.232 1.436-.319.226-.031 1.468.01 1.71.056m-1.362 2.4c-.579.05-1.23.318-1.686.694-1.512 1.249-1.492 3.624.042 4.843 1.521 1.209 3.8.733 4.697-.981.8-1.531.22-3.416-1.295-4.209-.351-.183-.77-.313-1.089-.337-.124-.01-.261-.021-.305-.026a2.993 2.993 0 0 0-.364.016m.747 1.535c.285.085.477.2.697.421.332.331.472.671.472 1.143a1.57 1.57 0 0 1-.742 1.368 1.636 1.636 0 0 1-1.746-.002c-.488-.32-.742-.787-.742-1.366 0-.485.181-.892.539-1.214.309-.278.626-.397 1.062-.399a1.8 1.8 0 0 1 .46.049" fill-rule="evenodd" fill="#000"/></svg>