<svg width="23" height="22" fill="none" xmlns="http://www.w3.org/2000/svg"><path d="M10.887 2.189c-1.916.216-3.738 1.128-5.099 2.55a8.38 8.38 0 0 0-2.26 4.825c-.03.264-.04 1.588-.032 4.236l.011 3.852.093.231c.128.32.545.737.866.866l.23.092H8.299l.249-.119a1.65 1.65 0 0 0 .717-.634c.239-.399.242-.431.242-2.876 0-1.472-.015-2.281-.043-2.416-.129-.619-.664-1.137-1.297-1.257-.114-.022-.817-.039-1.584-.039h-1.38l.021-.853c.024-1.006.104-1.533.336-2.228.578-1.728 1.873-3.188 3.476-3.92 3.123-1.425 6.733-.316 8.502 2.612.648 1.074.939 2.233.939 3.747v.642h-1.375c-.763 0-1.465.017-1.579.039a1.637 1.637 0 0 0-1.281 1.208c-.088.337-.087 4.568 0 4.907.123.472.439.847.9 1.068l.249.119h1.801c1.802 0 1.802 0 2.025-.09a1.62 1.62 0 0 0 .47-.321c.318-.298.463-.59.519-1.046.027-.219.035-1.553.023-3.96-.014-3.077-.026-3.688-.077-4.013-.17-1.064-.41-1.831-.838-2.679a8.402 8.402 0 0 0-6.557-4.545 12.417 12.417 0 0 0-1.87.002m-3.144 13.01v1.936h-2.53v-3.872h2.53v1.936m10.734 0v1.936h-2.53v-3.872h2.53v1.936" fill="#2A2D32" fill-rule="evenodd"/></svg>