<svg width="22" height="24" fill="none" xmlns="http://www.w3.org/2000/svg"><path d="M3.318 3.287c-1.068.226-1.812.974-2.135 2.144-.061.219-.065.632-.065 6.577 0 5.946.004 6.358.065 6.578.296 1.07.996 1.838 1.915 2.097.275.078 13.696.078 13.97 0 .77-.217 1.438-.841 1.763-1.645.212-.526.212-.524.234-2.318l.02-1.668.697-.019c.806-.021.893-.049 1.035-.329l.083-.163V9.476l-.083-.163c-.142-.281-.229-.308-1.035-.33l-.697-.018-.02-1.668c-.018-1.435-.029-1.699-.084-1.886-.307-1.051-.92-1.736-1.852-2.068-.156-.055-.747-.061-6.954-.066-3.731-.003-6.816.001-6.857.01m13.541 1.575c.224.111.405.31.538.59.175.369.185.481.185 2.046v1.467l-1.687.018c-1.649.018-1.692.021-1.925.104-.688.246-1.214.736-1.556 1.449-.25.521-.294.743-.294 1.472s.044.951.294 1.473c.342.713.868 1.203 1.556 1.449.233.083.276.085 1.925.103l1.687.019v1.466c0 1.565-.01 1.678-.185 2.047-.133.28-.314.479-.538.59l-.19.095-6.584-.001c-6.292-.001-6.59-.004-6.73-.067-.226-.103-.373-.247-.517-.505-.273-.487-.253.027-.253-6.65 0-6.522-.011-6.173.206-6.608.142-.284.293-.446.518-.558l.189-.094h13.171l.19.095m2.556 7.146v1.54h-2.457c-2.782 0-2.586.021-2.912-.305a1.652 1.652 0 0 1-.408-.762 2.882 2.882 0 0 1 0-.945c.126-.551.487-.965.919-1.052.07-.014 1.192-.024 2.493-.021l2.365.005v1.54" fill-rule="evenodd" fill="#000"/></svg>