<svg width="23" height="22" fill="none" xmlns="http://www.w3.org/2000/svg"><path d="M6.173 2.656a1.086 1.086 0 0 0-.312.217c-.165.16-.192.215-.336.673-.086.274-.465 1.464-.843 2.645l-.686 2.146-.359.025c-.54.037-.904.206-1.249.581a1.772 1.772 0 0 0-.416.816c-.05.215-.057.621-.047 2.789l.011 2.536.092.23c.25.627.785 1.066 1.422 1.167.137.022.706.04 1.265.041h1.016l.143.297a2.732 2.732 0 0 0 1.795 1.443c.326.079.935.079 1.26 0a2.8 2.8 0 0 0 1.86-1.577l.071-.163h2.199l.159.32a2.832 2.832 0 0 0 1.53 1.348c.239.084.388.108.758.122.554.022.852-.036 1.303-.257.576-.281.97-.674 1.238-1.235l.142-.296 1.016-.002c.559 0 1.128-.019 1.265-.04.536-.085 1.064-.45 1.313-.908.206-.378.219-.524.22-2.431 0-1.667-.003-1.762-.08-2.013a1.829 1.829 0 0 0-.84-1.055c-.095-.054-1.01-.423-2.035-.821l-1.862-.722-1.3-2.718c-.715-1.495-1.339-2.776-1.387-2.846a.966.966 0 0 0-.268-.235l-.182-.107-3.872-.006c-2.757-.005-3.909.006-4.004.036m8.358 4.378c1.097 2.294 1.287 2.666 1.427 2.8.146.139.36.231 2.222.955l2.06.801v3.168h-2.051l-.073-.182a2.9 2.9 0 0 0-.637-.905c-1.347-1.247-3.497-.847-4.277.795l-.139.292h-2.196l-.14-.297c-.336-.709-1.006-1.25-1.794-1.45-.295-.075-.884-.084-1.209-.018-.352.071-.956.38-1.235.633-.26.236-.577.68-.682.956l-.067.176H3.68v-4.676l.565-.001c.515 0 .583-.008.762-.091a.944.944 0 0 0 .303-.232c.079-.103.263-.628.696-1.988l.839-2.624.25-.776 3.085.009 3.086.01 1.265 2.645M8.726 14.77a1.1 1.1 0 0 1 .441.467c.084.186.094.581.019.762-.076.18-.279.399-.462.495-.218.115-.631.116-.847.001a.938.938 0 0 1-.524-.879.906.906 0 0 1 .514-.837c.176-.09.237-.101.47-.087.148.008.323.044.389.078m7.328.011c.717.357.702 1.367-.027 1.729-.2.1-.626.092-.828-.015-.417-.221-.609-.696-.475-1.177.051-.187.383-.527.571-.586.249-.079.541-.06.759.049" fill="#2A2D32" fill-rule="evenodd"/></svg>