<svg width="22" height="22" fill="none" xmlns="http://www.w3.org/2000/svg"><path d="M7.561.236c-.432.105-.916.413-1.222.78-.182.218-.415.695-.471.964-.059.284-.05.822.018 1.079A2.285 2.285 0 0 0 7.095 4.55c.531.262.442.257 4.064.245 3.232-.01 3.233-.01 3.471-.092A2.331 2.331 0 0 0 16 3.513c.192-.4.243-.618.243-1.034 0-.385-.104-.8-.28-1.119-.194-.349-.626-.765-.969-.933-.521-.254-.355-.244-3.974-.241C8.502.189 7.711.2 7.561.236m6.688 1.765c.166.124.244.256.259.444a.572.572 0 0 1-.281.541c-.127.075-.167.076-3.19.076-2.996 0-3.065-.002-3.187-.074a.535.535 0 0 1-.288-.466c-.018-.224.069-.389.283-.533l.124-.084 3.09.01c3.055.01 3.09.011 3.19.086M3.991 6.034c-1.028.187-1.973.9-2.451 1.849a3.442 3.442 0 0 0-.329.997c-.03.193-.039 1.38-.03 4.228l.012 3.96.084.275c.405 1.332 1.456 2.281 2.782 2.512.467.082 13.483.083 13.949.001 1.443-.252 2.542-1.335 2.837-2.794.051-.253.056-.757.047-4.247l-.011-3.96-.085-.292a3.562 3.562 0 0 0-2.484-2.482l-.29-.084-6.875-.007c-5.749-.006-6.921.001-7.156.044M17.96 7.802c.555.201.914.559 1.113 1.11l.085.236.011 3.575c.007 2.29-.003 3.687-.027 3.887a1.743 1.743 0 0 1-1.51 1.539c-.367.048-12.828.047-13.195 0-.746-.097-1.368-.68-1.501-1.408-.026-.147-.039-1.394-.039-3.814.001-3.917 0-3.893.208-4.284.245-.457.782-.84 1.268-.904.126-.017 3.182-.028 6.792-.026l6.563.005.232.084M5.482 9.509c-.331.11-.56.304-.72.611-.072.138-.086.22-.086.495 0 .287.012.354.097.513.166.312.476.554.8.624l.129.028-.195.05c-.848.217-1.138 1.302-.516 1.925.213.212.411.298.734.317.374.023.594-.052.852-.288.272-.248.37-.476.369-.859 0-.263-.013-.317-.124-.524a1.127 1.127 0 0 0-.762-.588l-.138-.03.208-.062c1-.296 1.123-1.68.19-2.137-.238-.116-.613-.15-.838-.075m7.841.005c-1.804.328-3.06 2.02-2.839 3.827a3.478 3.478 0 0 0 2.374 2.902c1.916.616 3.925-.484 4.454-2.438.105-.387.116-1.262.021-1.64a3.5 3.5 0 0 0-.958-1.698 3.49 3.49 0 0 0-3.052-.953m1.092 2.375c.251.116.456.321.577.578.077.162.096.255.095.476-.001.364-.104.599-.37.841a1.125 1.125 0 0 1-1.593-.031c-.249-.248-.345-.489-.34-.848.003-.296.095-.517.31-.75a1.116 1.116 0 0 1 1.321-.266m-9.367 3.417c-.177.064-.278.154-.341.304-.112.264-.029.538.218.722.102.075.133.076 2.042.076 1.909 0 1.939-.001 2.041-.076.37-.275.358-.76-.025-.985-.124-.073-.186-.076-1.961-.084-1.483-.006-1.86.002-1.974.043" fill="#2A2D32" fill-rule="evenodd"/></svg>