<svg width="23" height="22" fill="none" xmlns="http://www.w3.org/2000/svg"><path d="M4.542 4.088a3.433 3.433 0 0 0-1.598.854A3.551 3.551 0 0 0 1.91 6.674c-.085.32-.086.34-.099 4.04-.01 2.602-.001 3.834.03 4.102a3.506 3.506 0 0 0 2.607 3.018l.324.087H18.611l.324-.087a3.507 3.507 0 0 0 2.608-3.018c.03-.268.039-1.5.03-4.102-.014-3.7-.014-3.72-.099-4.04a3.559 3.559 0 0 0-1.034-1.732 3.114 3.114 0 0 0-1.031-.668c-.615-.264-.155-.249-7.744-.246-5.897.003-6.892.011-7.123.06m13.924 1.701a1.794 1.794 0 0 1 1.31 1.333c.029.141.042 1.333.042 3.873 0 3.996.005 3.897-.216 4.304-.138.252-.477.58-.728.703-.45.22-.163.212-7.182.212s-6.732.008-7.182-.212c-.252-.123-.591-.451-.728-.703-.222-.407-.217-.308-.217-4.304 0-2.591.013-3.729.043-3.873a1.768 1.768 0 0 1 1.26-1.319c.218-.06 13.336-.074 13.598-.014m-4.264 1.728c-1.387.145-2.533 1.119-2.957 2.515-.091.299-.103.403-.105.912-.003.484.011.626.084.895.171.631.49 1.172.953 1.621.461.446.936.716 1.55.882.452.122 1.29.122 1.74 0A3.521 3.521 0 0 0 18 11.683a4.134 4.134 0 0 0-.021-1.512 3.982 3.982 0 0 0-.683-1.388c-.726-.904-1.912-1.389-3.094-1.266m.934 2.431c.678.369.825 1.233.307 1.8-.238.26-.495.375-.845.379-.219.002-.294-.017-.516-.13-.742-.379-.871-1.314-.258-1.874.267-.245.452-.311.821-.297.232.01.329.034.491.122" fill="#2A2D32" fill-rule="evenodd"/></svg>