<svg width="23" height="22" fill="none" xmlns="http://www.w3.org/2000/svg"><path d="M8.964 1.002c-.19.053-.449.282-.535.472-.066.144-.071.294-.071 2.12l-.001 1.964-1.045.001c-.931.001-1.061.009-1.198.071a.915.915 0 0 0-.445.446c-.066.144-.071.313-.071 2.779 0 2.825.01 3.012.205 3.757.313 1.194.885 2.145 1.827 3.041a6.251 6.251 0 0 0 3.065 1.589l.364.073.019 1.531.019 1.53.098.191a.88.88 0 0 0 .919.459.999.999 0 0 0 .612-.441l.096-.173.02-1.549.019-1.55.348-.066c1.946-.371 3.661-1.715 4.523-3.543.198-.42.373-.945.487-1.457.084-.377.085-.428.085-3.264V6.102l-.115-.165a.947.947 0 0 0-.321-.272l-.205-.107h-2.061v-1.89c0-2.149-.002-2.166-.274-2.437a.906.906 0 0 0-.745-.255.983.983 0 0 0-.629.442l-.097.173-.01 1.984-.011 1.983h-3.754l-.001-1.926c0-1.132-.015-1.982-.037-2.06-.051-.182-.243-.407-.429-.502a.998.998 0 0 0-.651-.068m7.634 8.227c0 1.07-.018 2.1-.039 2.29a4.64 4.64 0 0 1-3.181 3.884 7.21 7.21 0 0 1-.613.164c-.375.074-1.293.063-1.687-.02-1.862-.395-3.267-1.791-3.639-3.615-.074-.363-.079-.518-.079-2.518V7.283h9.238v1.946" fill="#2A2D32" fill-rule="evenodd"/></svg>