<svg width="22" height="24" fill="none" xmlns="http://www.w3.org/2000/svg"><path d="M7.425 1.287c-.861.076-1.677.473-2.336 1.135-.632.635-1.024 1.412-1.189 2.358-.086.493-.052 1.348.073 1.829.118.456.344.971.59 1.344l.192.293-1.598.011c-1.405.01-1.612.019-1.709.072a.693.693 0 0 0-.309.336c-.026.069-.039.847-.039 2.348v2.245l.083.163c.142.28.229.308 1.035.329l.697.018.019 3.41c.021 3.792.006 3.558.276 4.097.262.523.67.946 1.158 1.201.567.297.062.276 6.632.276 6.57 0 6.065.021 6.632-.276a2.725 2.725 0 0 0 1.158-1.201c.271-.54.255-.304.276-4.097l.019-3.41.697-.018c.806-.021.893-.049 1.035-.329l.083-.163v-2.245c0-1.501-.013-2.279-.039-2.348a.693.693 0 0 0-.309-.336c-.097-.053-.304-.062-1.71-.072l-1.599-.011.166-.246a4.587 4.587 0 0 0 .708-1.866c.057-.433.021-1.262-.071-1.642-.206-.844-.564-1.496-1.135-2.07-.841-.844-1.881-1.23-3.053-1.133-.618.052-1.234.277-1.808.661-.247.165-.854.761-.962.942-.037.063-.077.115-.088.115-.011 0-.051-.052-.088-.115-.108-.181-.715-.777-.962-.942-.536-.358-1.181-.606-1.692-.649l-.375-.032a3.844 3.844 0 0 0-.458.018m1.073 1.586c.39.132.579.256.925.608.358.363.516.61.663 1.038.152.441.18.804.18 2.347l.001 1.384-1.384-.001c-1.097 0-1.433-.011-1.617-.055-1.223-.288-2.058-1.604-1.912-3.015.071-.685.33-1.226.821-1.717.397-.397.74-.585 1.232-.677.28-.053.799-.011 1.091.088m6.417 0c.39.132.579.256.925.608.358.363.515.61.663 1.038.539 1.564-.315 3.332-1.776 3.677-.176.041-.531.053-1.61.053l-1.384.001.001-1.366c0-.751.017-1.519.037-1.707.072-.684.33-1.225.821-1.715.396-.397.739-.585 1.231-.677.281-.053.8-.011 1.092.088m-4.657 8.136.01 1.238H2.567v-1.223c0-.672.011-1.233.024-1.246.014-.014 1.742-.021 3.841-.016l3.816.01.01 1.237m9.167 0 .009 1.238H11.733v-1.223c0-.672.011-1.233.025-1.246.013-.014 1.742-.021 3.841-.016l3.816.01.01 1.237m-9.177 6.499v3.74H5.262l-.172-.084a1.351 1.351 0 0 1-.544-.569 1.925 1.925 0 0 1-.107-.392c-.043-.264-.057-6.387-.014-6.429.013-.013 1.329-.02 2.924-.015l2.899.009v3.74m7.334-.476v3.263l-.085.209c-.106.262-.359.548-.585.659l-.174.085h-4.986l-.01-3.703c-.005-2.037-.001-3.724.008-3.749.014-.037.619-.045 2.925-.037l2.907.009v3.264" fill-rule="evenodd" fill="#000"/></svg>