<svg width="23" height="22" fill="none" xmlns="http://www.w3.org/2000/svg"><path d="M7.762 1.496c-.844.169-1.517.812-1.825 1.743-.086.26-.089.317-.102 1.864l-.013 1.595-.831.608c-.458.335-.905.684-.994.775-.195.2-.371.555-.431.87-.031.166-.04 1.56-.032 5.041l.012 4.81.09.269c.298.888.919 1.508 1.735 1.734.229.063.665.067 6.934.067 7.255 0 6.851.012 7.341-.21.677-.306 1.204-.974 1.388-1.76.065-.274.068-.725.068-7.766 0-8.411.027-7.673-.294-8.338-.292-.606-.937-1.134-1.569-1.282-.213-.051-.973-.058-5.784-.055-3.047.002-5.608.018-5.693.035m11.16 1.759a.752.752 0 0 1 .394.482c.058.212.059 14.658.002 14.865a.915.915 0 0 1-.385.471c-.093.048-1.008.055-6.617.055-6.265 0-6.515-.002-6.643-.071a.886.886 0 0 1-.249-.233l-.115-.162-.01-4.706-.01-4.707.911-.666c1.077-.788 1.186-.881 1.291-1.108.076-.165.081-.249.099-1.996l.019-1.824.102-.154a.766.766 0 0 1 .269-.237l.166-.082 5.309.001c5.103 0 5.315.003 5.467.072M9.873 4.38c-.199.052-.487.341-.549.55-.035.115-.047.676-.047 2.072v1.915l.101.202a.86.86 0 0 0 1.401.209c.225-.236.223-.215.222-2.36-.001-1.821-.006-1.977-.071-2.119-.185-.404-.602-.59-1.057-.469m2.998.004c-.286.106-.472.291-.561.557-.062.187-.06 2.566.004 2.779.064.218.354.503.571.561a.855.855 0 0 0 1-.418l.107-.205-.001-1.328c-.001-1.205-.007-1.342-.071-1.481a.962.962 0 0 0-.401-.428.993.993 0 0 0-.648-.037m2.982.005a.856.856 0 0 0-.557.59c-.063.224-.049 3.86.015 4.039a.867.867 0 0 0 1.448.31c.225-.236.223-.215.223-2.362V4.998l-.097-.194a.829.829 0 0 0-1.032-.415" fill="#2A2D32" fill-rule="evenodd"/></svg>