<svg width="23" height="22" fill="none" xmlns="http://www.w3.org/2000/svg"><path d="M7.008 1.037a3.463 3.463 0 0 0-2.022 1.031 3.535 3.535 0 0 0-.962 2.034c-.029.252-.038 2.431-.03 7.11l.012 6.747.085.297c.383 1.35 1.294 2.241 2.647 2.588.237.062.612.067 4.724.067h4.465l.345-.088a4.34 4.34 0 0 0 .69-.255c.918-.446 1.529-1.171 1.848-2.19l.107-.342.012-6.9c.009-5.116.001-6.974-.033-7.188A3.591 3.591 0 0 0 17.543 1.7a4.297 4.297 0 0 0-1.232-.597l-.307-.086-4.389-.006c-2.414-.004-4.487.008-4.607.026m8.986 1.803a1.79 1.79 0 0 1 1.06.955l.1.211.009 6.037.008 6.038-.084-.115a3.152 3.152 0 0 0-1.537-1.109c-.513-.167-.904-.182-4.395-.167-3.206.014-3.242.015-3.546.099-.67.186-1.323.606-1.679 1.08l-.18.239v-5.919c0-6.464-.011-6.133.218-6.554.196-.36.689-.742 1.076-.833.079-.019 2.072-.036 4.428-.038 4.242-.004 4.288-.003 4.522.076M8.381 4.814c-.48.116-.994.443-1.327.843-.191.229-.4.644-.481.955-.078.301-.078.927 0 1.227a2.53 2.53 0 0 0 1.311 1.612c.503.253.477.251 3.693.239 2.874-.011 2.896-.011 3.144-.096a2.556 2.556 0 0 0 1.595-1.593c.09-.272.104-.378.104-.775s-.014-.503-.104-.775a2.476 2.476 0 0 0-1.732-1.622c-.285-.072-.424-.076-3.138-.072-2.313.002-2.882.013-3.065.057m5.997 1.798a.75.75 0 0 1-.011 1.237l-.159.105-2.648.012c-1.838.008-2.692-.002-2.792-.031-.181-.052-.407-.248-.475-.41a.956.956 0 0 1-.011-.575c.058-.153.222-.316.4-.399.146-.068.29-.071 2.843-.063l2.69.009.163.115m-5.09 5.691c-.451.275-.356.979.15 1.116.091.024.865.035 2.109.028 1.904-.011 1.97-.014 2.1-.09a.687.687 0 0 0 .306-.519c.001-.193-.147-.453-.307-.539-.124-.066-.259-.071-2.184-.071-1.965.001-2.056.004-2.174.075m5.921 4.291c.288.156.481.36.617.651.086.183.101.268.101.561 0 .292-.015.378-.101.56a1.354 1.354 0 0 1-.617.651l-.24.13H7.992l-.21-.099a1.44 1.44 0 0 1-.667-.686 1.324 1.324 0 0 1 .257-1.488c.088-.091.218-.201.288-.245.295-.183.235-.18 3.878-.172l3.431.007.24.13" fill="#2A2D32" fill-rule="evenodd"/></svg>