<svg width="22" height="22" fill="none" xmlns="http://www.w3.org/2000/svg"><path d="M10.491.995c-.238.039-.557.165-.84.33-.131.078-.489.399-.961.866-.413.409-.79.769-.837.802-.195.134-.433.159-1.495.16-1.172 0-1.384.033-1.861.284-.359.189-.871.701-1.06 1.06-.251.477-.284.689-.284 1.861-.001 1.119-.026 1.317-.197 1.541-.05.066-.375.399-.721.74-.667.656-.882.92-1.062 1.305-.292.625-.292 1.487 0 2.112.18.385.395.649 1.062 1.305.346.341.671.674.721.74.171.224.196.422.197 1.541 0 1.172.033 1.384.284 1.861.189.359.701.871 1.06 1.06.477.251.689.284 1.861.284 1.119.001 1.317.026 1.541.197.066.05.399.375.74.721.62.63.899.863 1.243 1.035.576.289 1.447.325 2.043.084.44-.178.621-.319 1.394-1.09.519-.516.816-.785.935-.843.169-.083.211-.087 1.384-.107 1.091-.018 1.233-.028 1.437-.096a2.747 2.747 0 0 0 1.673-1.673c.068-.204.078-.346.096-1.437.02-1.179.023-1.214.108-1.387.061-.124.292-.378.765-.843.675-.664.909-.942 1.083-1.29.289-.576.325-1.447.084-2.043-.177-.438-.32-.621-1.091-1.397-.509-.512-.787-.82-.844-.935-.081-.165-.085-.214-.105-1.381-.018-1.091-.028-1.233-.096-1.437a2.747 2.747 0 0 0-1.673-1.673c-.204-.068-.346-.078-1.437-.096-1.167-.02-1.216-.024-1.381-.105-.115-.057-.423-.335-.935-.844-.775-.77-.959-.914-1.395-1.09-.379-.153-.955-.202-1.436-.122m.967 1.553c.087.041.479.396.956.865.78.768.82.801 1.155.961.495.239.624.257 1.868.261 1.046.003 1.087.006 1.265.088.239.11.47.339.575.572.082.181.085.22.088 1.268.003 1.244.021 1.37.261 1.868.16.335.193.375.961 1.155.458.466.825.871.866.956.054.11.072.224.072.458s-.018.348-.072.458c-.041.085-.408.49-.866.956-.768.78-.801.82-.961 1.155-.24.498-.258.624-.261 1.868-.003 1.047-.006 1.087-.088 1.265a1.24 1.24 0 0 1-.572.575c-.181.082-.221.085-1.268.088-1.244.004-1.371.022-1.868.261-.335.16-.375.193-1.155.961-.466.458-.871.825-.956.866-.222.109-.713.102-.935-.014-.099-.052-.478-.396-.953-.866-.764-.755-.799-.785-1.137-.947-.499-.239-.625-.257-1.87-.261-1.047-.003-1.087-.006-1.268-.088a1.24 1.24 0 0 1-.572-.575c-.082-.178-.085-.219-.089-1.265-.003-.68-.021-1.164-.049-1.302a3.078 3.078 0 0 0-.211-.568c-.162-.338-.192-.373-.947-1.137-.47-.475-.814-.854-.866-.953-.124-.238-.124-.716 0-.954.052-.099.396-.478.866-.953.755-.764.785-.799.947-1.137.092-.191.187-.447.211-.568.028-.138.046-.622.049-1.302.004-1.046.007-1.087.089-1.268a1.24 1.24 0 0 1 .575-.572c.178-.082.219-.085 1.265-.088 1.245-.004 1.373-.022 1.87-.261.338-.162.373-.192 1.137-.947.695-.688.896-.855 1.137-.947.119-.046.606-.002.751.068M7.771 6.309c-.567.083-1.099.459-1.399.988-.173.305-.229.537-.229.953 0 .277.019.441.068.587.315.939 1.202 1.492 2.176 1.358.714-.099 1.374-.66 1.587-1.35.1-.324.1-.866 0-1.19-.209-.677-.871-1.248-1.559-1.347a1.681 1.681 0 0 0-.644.001m6.841.237a3.292 3.292 0 0 1-.147.035c-.083.018-1.043.955-3.934 3.844-2.104 2.101-3.859 3.875-3.9 3.941a.632.632 0 0 0 .002.607c.085.137.315.358.446.428.106.057.402.057.515-.001.118-.06 7.679-7.612 7.775-7.766a.632.632 0 0 0-.002-.607 1.596 1.596 0 0 0-.431-.419c-.08-.04-.272-.077-.324-.062M8.428 7.934c.114.114.129.152.129.316s-.015.202-.127.314c-.226.225-.571.195-.729-.064-.293-.481.328-.965.727-.566m5.122 3.875c-.479.074-1.017.44-1.31.893a1.997 1.997 0 0 0 0 2.096c.628.969 1.924 1.213 2.829.532 1.115-.838 1.056-2.475-.117-3.245-.37-.242-.918-.35-1.402-.276m.549 1.517c.361.151.356.699-.009.851-.192.081-.364.042-.522-.115-.112-.112-.13-.154-.13-.303 0-.2.086-.342.257-.428.139-.071.244-.072.404-.005" fill-rule="evenodd" fill="#000"/></svg>