<svg width="44" height="44" viewBox="0 0 44 44" fill="none" xmlns="http://www.w3.org/2000/svg">
<path fill-rule="evenodd" clip-rule="evenodd" d="M41.5703 10.4935C41.6157 12.4651 39.912 14.0816 37.9593 14.0688C37.4792 14.0695 37.0039 13.9755 36.5608 13.7921C36.1177 13.6087 35.7157 13.3397 35.3782 13.0007C35.0408 12.6617 34.7745 12.2595 34.5949 11.8173C34.4154 11.3752 34.3261 10.9021 34.3323 10.4254C34.3385 9.94874 34.4401 9.47805 34.6311 9.0407C34.8221 8.60335 35.0987 8.20806 35.4449 7.87783C35.7911 7.54759 36.2 7.289 36.6477 7.11707C37.0954 6.94514 37.5731 6.86331 38.0529 6.87634C39.931 6.90667 41.6381 8.48815 41.5703 10.4935ZM39.1643 10.4901C39.1718 9.84053 38.6398 9.27721 37.9979 9.27721H38.0006C37.2896 9.27451 36.7698 9.79875 36.7536 10.4477C36.7366 11.1228 37.3099 11.6767 37.943 11.6707C38.1015 11.6739 38.2591 11.6458 38.4066 11.588C38.5541 11.5302 38.6886 11.4439 38.8022 11.334C38.9159 11.2242 39.0064 11.093 39.0685 10.9482C39.1307 10.8033 39.1632 10.6476 39.1643 10.4901ZM29.8469 25.1008C28.8305 24.7942 28.1004 24.1743 27.7686 23.1413C27.5522 22.4742 27.5461 21.7855 27.5434 21.0989C27.5379 20.0208 27.5379 18.9426 27.5434 17.8645C27.5468 17.1718 27.6139 16.4879 27.9165 15.8504C28.3236 14.9846 29.0354 14.4745 29.9521 14.2501C31.0451 13.9832 32.1402 14.0008 33.1892 14.4239C34.1697 14.8195 34.7396 15.5789 34.9533 16.6051C35.0892 17.2576 35.0682 17.9149 35.0496 18.4997C35.0389 18.8348 35.0289 19.1461 35.0497 19.419C35.0497 19.7789 35.0533 20.1092 35.0566 20.4194L35.0567 20.4199V20.42V20.4202C35.0636 21.0633 35.0697 21.6199 35.0409 22.1743C34.99 23.1413 34.6304 23.9863 33.8257 24.5894C33.2686 25.0071 32.6159 25.1877 31.9374 25.2511C31.2378 25.3171 30.5254 25.307 29.8469 25.1008ZM30.6564 16.279C30.1909 16.4656 29.9873 16.8699 29.9711 17.3416C29.9535 17.8732 29.9567 18.4055 29.9599 18.939V18.9391C29.9614 19.19 29.9629 19.4411 29.9622 19.6926C29.9622 19.9209 29.9612 20.1492 29.9602 20.3776V20.3776V20.3777C29.9578 20.9151 29.9554 21.4526 29.9663 21.9897C29.9785 22.5086 30.2167 22.8994 30.7127 23.1218C30.9193 23.2146 31.1306 23.2072 31.3415 23.1999C31.3986 23.1979 31.4557 23.1959 31.5126 23.1959C31.7642 23.1937 32.0076 23.1075 32.2038 22.9511C32.4 22.7948 32.5375 22.5774 32.5942 22.334C32.6673 22.0323 32.7055 21.7233 32.7082 21.4129C32.6992 20.5689 32.7005 19.725 32.7018 18.881C32.7023 18.5795 32.7027 18.2779 32.7027 17.9764C32.6992 17.7168 32.6754 17.458 32.6315 17.2021C32.4625 16.1146 31.3349 16.0027 30.6564 16.279ZM25.3131 19.7593C24.9121 19.0275 24.2798 18.6179 23.4669 18.479C22.5272 18.32 21.5963 18.2574 20.7658 18.8658C20.6253 18.9682 20.5622 18.9164 20.5622 18.7621C20.5657 18.605 20.5637 18.4477 20.5617 18.2904C20.5572 17.9343 20.5526 17.5782 20.6124 17.2244C20.7061 16.6671 21.0819 16.281 21.6383 16.1826C21.8981 16.1363 22.1642 16.1379 22.4234 16.1873C22.9356 16.2884 23.3685 16.5472 23.3658 17.1887C23.3658 17.504 23.6874 17.7803 24.0151 17.8362C24.3562 17.9036 24.7069 17.907 25.0492 17.8463C25.3803 17.7789 25.6307 17.5768 25.6761 17.2446C25.7419 16.7925 25.6753 16.3312 25.4841 15.9158C25.0092 14.8821 24.1359 14.366 23.0625 14.1679C22.2849 14.0312 21.4873 14.0542 20.7189 14.2352C19.1584 14.5877 18.2763 15.7399 18.2159 17.2783C18.1953 17.8294 18.2006 18.3816 18.2058 18.9335V18.9336V18.9336V18.9337V18.9337V18.9338V18.9339C18.2081 19.1822 18.2105 19.4304 18.2105 19.6785V22.0281C18.212 22.2548 18.2377 22.4807 18.2872 22.702C18.5118 23.7612 19.0837 24.5489 20.1117 24.9539C21.1091 25.3467 22.1404 25.3643 23.1806 25.1419C23.9948 24.9674 24.6733 24.584 25.1394 23.8711C25.7501 22.9277 25.7501 21.8846 25.6551 20.828C25.6154 20.4524 25.4991 20.0888 25.3131 19.7593ZM22.9031 23.0537C22.7224 23.2327 22.4797 23.3366 22.2246 23.3441C22.1601 23.3441 22.0954 23.3466 22.0306 23.3491C21.842 23.3564 21.6529 23.3638 21.468 23.3091C21.2623 23.2545 21.076 23.1439 20.9303 22.9897C20.7846 22.8355 20.6853 22.6438 20.6436 22.4365C20.5244 21.9701 20.5317 21.4807 20.6647 21.018C20.7848 20.6212 21.0311 20.3691 21.4354 20.2674C21.8568 20.1616 22.2795 20.1569 22.673 20.3435C23.0666 20.5302 23.2328 20.9062 23.2891 21.324C23.3033 21.4274 23.3066 21.5325 23.3098 21.634V21.6341L23.3098 21.6342C23.3113 21.6788 23.3126 21.7226 23.3149 21.7653C23.3027 22.2424 23.2776 22.7053 22.9003 23.053L22.9031 23.0537ZM19.9618 30.2711L21.4545 31.7536C21.6689 31.9685 21.8772 32.1808 21.9933 32.4712C22.1656 32.9435 22.0313 33.3478 21.7083 33.676C20.6272 34.7667 19.5373 35.8484 18.4386 36.9212C18.0715 37.2797 17.5809 37.3295 17.1453 37.1381C16.6744 36.9306 16.4302 36.5371 16.4302 35.9091C16.4173 35.6463 16.6046 35.372 16.8495 35.1274C17.0884 34.885 17.3299 34.6462 17.5704 34.4085L17.5706 34.4083L17.5707 34.4083L17.5709 34.4081C17.6718 34.3083 17.7725 34.2088 17.8727 34.1093C17.8816 34.1006 17.8916 34.0919 17.9017 34.083L17.9018 34.083C17.9503 34.0407 18.004 33.9937 17.9799 33.9246C17.9553 33.8541 17.8824 33.8489 17.8162 33.8441C17.8039 33.8432 17.7919 33.8423 17.7804 33.8411C17.5788 33.8178 17.3776 33.7966 17.1767 33.7754H17.1766H17.1766H17.1766H17.1766C16.6971 33.7248 16.2189 33.6744 15.7408 33.5965C14.8669 33.453 13.997 33.2993 13.1306 33.116C12.1652 32.9131 11.2109 32.6614 10.2714 32.362C9.06375 31.9808 7.88981 31.5014 6.76144 30.9288C5.69686 30.3837 4.69403 29.7489 3.80314 28.9524C2.70803 27.9767 1.8599 26.8366 1.51318 25.3811C1.19089 24.0287 1.44872 22.7667 2.11638 21.574C2.83356 20.293 3.90085 19.3456 5.10588 18.537C5.14837 18.508 5.19087 18.4787 5.23349 18.4492L5.2335 18.4492L5.23351 18.4492C5.47536 18.2821 5.72086 18.1125 5.98794 17.9979C6.59589 17.7351 7.29407 17.9932 7.56004 18.537C7.84637 19.1253 7.62993 19.8038 7.04438 20.1542C6.13246 20.7 5.28162 21.3193 4.62075 22.1629C4.06302 22.8778 3.71087 23.6595 3.82621 24.5887C3.92527 25.3885 4.33102 26.0428 4.86094 26.6237C5.80067 27.6546 6.96771 28.3709 8.2148 28.9774C8.91113 29.3157 9.62709 29.6128 10.3589 29.8668C11.2167 30.1658 12.089 30.4219 12.9725 30.6343C13.6944 30.8068 14.4211 30.9605 15.1491 31.0952C15.6613 31.1919 16.1815 31.2487 16.7011 31.3056L16.7012 31.3056C16.7866 31.3149 16.872 31.3242 16.9574 31.3338C17.0338 31.3407 17.1076 31.3575 17.1809 31.3742L17.1809 31.3742C17.2643 31.3932 17.3471 31.412 17.4323 31.416C17.4805 31.4187 17.5511 31.4173 17.5741 31.3883C17.6156 31.3357 17.5715 31.2957 17.5335 31.2613C17.5268 31.2552 17.5203 31.2493 17.5144 31.2435C17.4251 31.1538 17.3341 31.0654 17.2432 30.9771L17.2432 30.9771C17.08 30.8186 16.9169 30.6601 16.7626 30.4935C16.3481 30.0481 16.3033 29.4275 16.6358 28.9666C16.737 28.8262 16.8674 28.7091 17.0182 28.6232C17.169 28.5373 17.3367 28.4846 17.5098 28.4687C17.6829 28.4528 17.8574 28.474 18.0215 28.531C18.1856 28.5879 18.3355 28.6793 18.4609 28.7988C18.8627 29.1792 19.2551 29.5692 19.6476 29.9592L19.6476 29.9593L19.6477 29.9593C19.7523 30.0633 19.857 30.1673 19.9618 30.2711ZM41.9075 21.6326C42.2406 22.2276 42.4842 22.8603 42.548 23.5523C42.5564 23.6396 42.5719 23.7264 42.5868 23.8101L42.5869 23.8102C42.6117 23.9493 42.6351 24.0801 42.6219 24.1911C42.5839 25.7052 42.0283 26.9545 41.0912 28.0535C40.1189 29.1903 38.9058 30.0218 37.6017 30.7401C36.3783 31.4139 35.0885 31.9314 33.764 32.3613C32.8352 32.6632 31.8866 32.9051 30.9299 33.116C29.7744 33.3707 28.6087 33.5554 27.439 33.7225C27.0461 33.7784 26.502 33.5473 26.2529 33.054C25.8574 32.2697 26.4402 31.4328 27.1649 31.3324C27.3157 31.3115 27.4668 31.2922 27.6178 31.2729C27.9696 31.2279 28.3212 31.1829 28.6691 31.1188C29.4073 30.9827 30.1422 30.8302 30.8736 30.6613C31.4313 30.5326 31.9836 30.3755 32.5339 30.2159C33.628 29.8973 34.6944 29.4917 35.7229 29.003C36.7047 28.5367 37.6308 27.9875 38.4559 27.282C39.0571 26.7685 39.5754 26.189 39.9147 25.4626C40.3232 24.5819 40.275 23.7201 39.8326 22.8697C39.3563 21.9553 38.6113 21.2882 37.7815 20.7074C37.3608 20.4123 37.067 20.0619 37.0982 19.5228C37.1518 18.5862 38.1662 18.0646 38.958 18.5909C40.1603 19.3901 41.1978 20.3624 41.9075 21.6326ZM10.043 24.5725C10.7894 25.119 11.6517 25.2874 12.6573 25.2686C13.215 25.3117 13.842 25.1843 14.4506 24.9606C15.0394 24.7581 15.5435 24.3664 15.8829 23.8475C16.3904 23.0665 16.4814 22.1952 16.4155 21.3037C16.392 20.829 16.2093 20.3758 15.8965 20.016C15.6838 19.7759 15.4235 19.5821 15.1318 19.4467C14.992 19.3793 14.8909 19.3206 15.0986 19.1845C15.3111 19.0435 15.4832 18.8501 15.5979 18.6232C16.0526 17.752 16.1638 16.8463 15.8945 15.8935C15.6807 15.1368 15.182 14.6678 14.4614 14.3828C14.0263 14.2214 13.5685 14.1286 13.1044 14.1079C12.0989 14.0405 11.1184 14.1281 10.2547 14.7143C9.45678 15.2534 9.08902 16.0404 9.12905 16.9824C9.15009 17.4791 9.30275 17.6489 9.79399 17.7237C10.1131 17.7734 10.4379 17.775 10.7575 17.7284C11.2324 17.661 11.4088 17.4588 11.4652 16.9872C11.4774 16.8874 11.4957 16.785 11.5154 16.6887C11.5323 16.5796 11.5804 16.4777 11.6539 16.3949C11.7273 16.3122 11.8231 16.2521 11.9299 16.2217C12.3132 16.1059 12.7208 16.095 13.1099 16.19C13.2192 16.2093 13.3224 16.2539 13.4111 16.3202C13.4999 16.3864 13.5717 16.4725 13.6208 16.5714C13.8515 17.0694 13.7911 17.5721 13.5902 18.0606C13.551 18.1495 13.4928 18.229 13.4197 18.2936C13.3467 18.3581 13.2604 18.4062 13.1669 18.4346C12.9499 18.5072 12.7221 18.5427 12.4931 18.5397C12.3947 18.5398 12.2983 18.567 12.2145 18.6181C12.1307 18.6692 12.0628 18.7424 12.0181 18.8294C11.8661 19.0679 11.8149 19.3563 11.8757 19.632C11.9951 20.1151 12.1152 20.3429 12.639 20.3327C12.8623 20.3283 13.0915 20.3907 13.3112 20.4505L13.3589 20.4635C13.6622 20.549 13.8501 20.7566 13.9526 21.0618C14.0739 21.4239 14.0473 21.7913 14.021 22.1541L14.0204 22.1615C13.9831 22.615 13.7863 22.9836 13.3087 23.1352C13.0305 23.2234 12.7466 23.2106 12.4633 23.1977H12.4633H12.4632C12.3831 23.1941 12.303 23.1905 12.2231 23.1891C11.6511 23.1797 11.341 22.8792 11.2813 22.3192C11.2453 21.9951 11.1422 21.7067 10.7676 21.6252C10.3158 21.5268 9.86049 21.5005 9.41063 21.6171C9.16773 21.6804 8.98385 21.8192 8.95332 22.0955C8.83458 23.1285 9.20437 23.9593 10.043 24.5725Z" fill="#2A2D32"/>
</svg>
