<svg width="134" height="43" viewBox="0 0 134 43" fill="none" xmlns="http://www.w3.org/2000/svg">
<path d="M8.29036 9.98884H4.72795C3.78754 9.96879 2.87509 10.2819 2.18154 10.8627C1.48799 11.4434 1.0671 12.2468 1.00695 13.1047C0.946805 13.9626 1.25205 14.8085 1.85883 15.4653C2.4656 16.1222 3.32686 16.5392 4.26238 16.629C4.36296 16.6374 4.45632 16.6803 4.52375 16.749C4.59118 16.8177 4.62769 16.9072 4.62595 16.9995V21.5697C4.61528 22.4407 4.97401 23.2816 5.62694 23.9162C6.27986 24.5507 7.17626 24.9296 8.12819 24.9735C8.61777 24.9885 9.10568 24.9136 9.56302 24.7532C10.0204 24.5928 10.4378 24.3502 10.7907 24.0398C11.1437 23.7293 11.4248 23.3573 11.6176 22.9457C11.8103 22.5342 11.9107 22.0915 11.9129 21.6438V13.3185C11.9174 12.8817 11.827 12.4484 11.6468 12.0439C11.4666 11.6393 11.2002 11.2714 10.8632 10.9617C10.5262 10.6519 10.1252 10.4064 9.68357 10.2394C9.2419 10.0724 8.76834 9.98724 8.29036 9.98884Z" fill="#2A2D32"/>
<path d="M8.29103 0H4.64754C3.68123 0 2.75449 0.350801 2.07121 0.975232C1.38792 1.59966 1.00405 2.44657 1.00405 3.32965C1.00405 4.21273 1.38792 5.05964 2.07121 5.68407C2.75449 6.3085 3.68123 6.6593 4.64754 6.6593H8.29103C9.25734 6.6593 10.1841 6.3085 10.8674 5.68407C11.5506 5.05964 11.9345 4.21273 11.9345 3.32965C11.9345 2.44657 11.5506 1.59966 10.8674 0.975232C10.1841 0.350801 9.25734 0 8.29103 0Z" fill="#2A2D32"/>
<path d="M45.4942 9.08309C45.5588 8.65372 45.5929 8.22097 45.5962 7.78756C45.5151 3.43965 41.5264 5.25528e-05 36.7686 5.25528e-05H21.0412C20.0764 0.00445025 19.1525 0.356664 18.4702 0.980143C17.788 1.60362 17.4026 2.44798 17.3977 3.3297V21.644C17.4026 22.5257 17.788 23.37 18.4702 23.9935C19.1525 24.617 20.0764 24.9692 21.0412 24.9736H43.2056C47.9633 24.9736 52.0122 21.4217 52.0122 17.0857C52.0123 15.3726 51.4046 13.7056 50.2804 12.3347C49.1562 10.9639 47.5759 9.96301 45.7767 9.48226C45.6849 9.45784 45.6059 9.40405 45.5541 9.33075C45.5022 9.25745 45.4809 9.16954 45.4942 9.08309ZM36.8942 6.65935C37.2322 6.65613 37.5601 6.76505 37.8169 6.96593C38.0738 7.1668 38.2422 7.44599 38.2909 7.75171C38.315 7.92763 38.2979 8.10622 38.2407 8.27564C38.1835 8.44505 38.0875 8.60141 37.9591 8.73433C37.8308 8.86726 37.6729 8.9737 37.4961 9.04661C37.3192 9.11951 37.1274 9.15721 36.9334 9.15719H25.0901C24.9828 9.15656 24.8801 9.11732 24.8042 9.04798C24.7283 8.97863 24.6854 8.88476 24.6847 8.78669V7.02984C24.6854 6.93178 24.7283 6.8379 24.8042 6.76856C24.8801 6.69921 24.9828 6.65998 25.0901 6.65935H36.8942ZM43.3729 15.8165C43.567 15.8165 43.7587 15.8542 43.9356 15.9271C44.1124 16 44.2703 16.1064 44.3987 16.2393C44.5271 16.3723 44.623 16.5286 44.6802 16.698C44.7374 16.8674 44.7545 17.046 44.7304 17.222C44.6812 17.5275 44.5126 17.8064 44.2559 18.0072C43.9992 18.2079 43.6716 18.317 43.3337 18.3143H25.1111C25.0037 18.3137 24.901 18.2745 24.8251 18.2051C24.7493 18.1358 24.7063 18.0419 24.7056 17.9438V16.187C24.7056 16.0887 24.7484 15.9945 24.8244 15.925C24.9004 15.8555 25.0035 15.8165 25.1111 15.8165H43.3729Z" fill="#2A2D32"/>
<path d="M79.439 5.25528e-05H69.3194C65.6955 5.25528e-05 62.2201 1.31562 59.6577 3.65735C57.0952 5.99907 55.6557 9.17514 55.6557 12.4868C55.6557 15.7985 57.0952 18.9746 59.6577 21.3163C62.2201 23.6581 65.6955 24.9736 69.3194 24.9736H79.439C83.0629 24.9736 86.5383 23.6581 89.1007 21.3163C91.6632 18.9746 93.1028 15.7985 93.1028 12.4868C93.1028 9.17514 91.6632 5.99907 89.1007 3.65735C86.5383 1.31562 83.0629 5.25528e-05 79.439 5.25528e-05ZM79.439 18.3143H69.3194C67.6282 18.3143 66.0062 17.7004 64.8103 16.6075C63.6145 15.5146 62.9426 14.0324 62.9426 12.4868C62.9426 10.9413 63.6145 9.45905 64.8103 8.36618C66.0062 7.27332 67.6282 6.65935 69.3194 6.65935H79.439C81.1303 6.65935 82.7522 7.27332 83.9481 8.36618C85.144 9.45905 85.8158 10.9413 85.8158 12.4868C85.8158 14.0324 85.144 15.5146 83.9481 16.6075C82.7522 17.7004 81.1303 18.3143 79.439 18.3143Z" fill="#2A2D32"/>
<path d="M125.915 12.893C125.857 12.843 125.811 12.7828 125.78 12.716C125.748 12.6492 125.732 12.5773 125.732 12.5046C125.732 12.4319 125.748 12.36 125.78 12.2932C125.811 12.2265 125.857 12.1662 125.915 12.1162L132.938 5.69831C133.607 5.07875 133.986 4.24509 133.994 3.37436C134.002 2.50363 133.638 1.6644 132.979 1.03489C131.562 -0.315616 129.153 -0.258249 127.717 1.05401L119.133 8.89649C118.945 9.07055 118.691 9.1709 118.424 9.17616H113.193C113.06 9.17766 112.928 9.15353 112.806 9.10535C112.683 9.05716 112.574 8.986 112.484 8.89649L103.892 1.05401C102.453 -0.258249 100.044 -0.315616 98.6292 1.03489C97.9705 1.66409 97.6061 2.50314 97.6135 3.37387C97.6208 4.2446 97.9992 5.07843 98.6684 5.69831L105.694 12.1162C105.751 12.1666 105.796 12.2269 105.827 12.2936C105.858 12.3604 105.874 12.4321 105.874 12.5046C105.874 12.5771 105.858 12.6488 105.827 12.7156C105.796 12.7823 105.751 12.8427 105.694 12.893L98.6684 19.3109C98.3294 19.6195 98.0602 19.986 97.8762 20.3897C97.6922 20.7933 97.597 21.2261 97.596 21.6633C97.595 22.1006 97.6883 22.5338 97.8705 22.9381C98.0527 23.3424 98.3203 23.7099 98.6579 24.0197C98.9956 24.3296 99.3967 24.5756 99.8384 24.7437C100.28 24.9119 100.754 24.9989 101.232 24.9998C101.711 25.0006 102.185 24.9154 102.627 24.7489C103.069 24.5824 103.472 24.3379 103.811 24.0293L112.473 16.1127C112.661 15.9398 112.915 15.8403 113.182 15.8355H118.413C118.546 15.8332 118.678 15.8567 118.8 15.9045C118.922 15.9523 119.032 16.0233 119.122 16.1127L127.785 24.0293C128.124 24.3379 128.526 24.5824 128.969 24.7489C129.411 24.9154 129.885 25.0006 130.363 24.9998C130.842 24.9989 131.315 24.9119 131.757 24.7437C132.199 24.5756 132.6 24.3296 132.938 24.0197C133.275 23.7099 133.543 23.3424 133.725 22.9381C133.907 22.5338 134 22.1006 133.999 21.6633C133.999 21.2261 133.903 20.7933 133.719 20.3897C133.535 19.986 133.266 19.6195 132.927 19.3109L125.915 12.893Z" fill="#2A2D32"/>
<path d="M4.57805 36.0846V40.8598H3.50311V36.9942H1.72533V40.8598H0.650391V36.0846H4.57805Z" fill="#2A2D32"/>
<path d="M7.51642 36.0295C8.22845 36.0295 8.77511 36.1558 9.15639 36.4085C9.53767 36.6566 9.72831 37.0654 9.72831 37.635C9.72831 38.2092 9.53538 38.625 9.1495 38.8822C8.76363 39.1349 8.21237 39.2612 7.49575 39.2612H7.15811V40.8598H6.08317V36.1535C6.31745 36.1076 6.56551 36.0755 6.82736 36.0571C7.0892 36.0387 7.31889 36.0295 7.51642 36.0295ZM7.58533 36.946C7.50723 36.946 7.42914 36.9483 7.35105 36.9529C7.27754 36.9575 7.21323 36.962 7.15811 36.9666V38.3448H7.49575C7.86784 38.3448 8.14806 38.2942 8.33641 38.1932C8.52475 38.0921 8.61892 37.9038 8.61892 37.6281C8.61892 37.4949 8.59366 37.3847 8.54313 37.2974C8.49719 37.2101 8.42828 37.1412 8.33641 37.0907C8.24913 37.0355 8.14117 36.9988 8.01255 36.9804C7.88392 36.9575 7.74151 36.946 7.58533 36.946Z" fill="#2A2D32"/>
<path d="M11.8197 38.4688C11.8197 38.7031 11.8473 38.9144 11.9024 39.1027C11.9621 39.2911 12.0448 39.4542 12.1505 39.592C12.2607 39.7252 12.3939 39.8285 12.5501 39.9021C12.7063 39.9756 12.8855 40.0123 13.0876 40.0123C13.2851 40.0123 13.462 39.9756 13.6182 39.9021C13.779 39.8285 13.9122 39.7252 14.0178 39.592C14.1281 39.4542 14.2108 39.2911 14.2659 39.1027C14.3256 38.9144 14.3555 38.7031 14.3555 38.4688C14.3555 38.2345 14.3256 38.0232 14.2659 37.8349C14.2108 37.6419 14.1281 37.4788 14.0178 37.3456C13.9122 37.2078 13.779 37.1022 13.6182 37.0287C13.462 36.9552 13.2851 36.9184 13.0876 36.9184C12.8855 36.9184 12.7063 36.9575 12.5501 37.0355C12.3939 37.109 12.2607 37.2147 12.1505 37.3525C12.0448 37.4857 11.9621 37.6488 11.9024 37.8417C11.8473 38.0301 11.8197 38.2391 11.8197 38.4688ZM15.4649 38.4688C15.4649 38.8776 15.4029 39.2383 15.2788 39.5506C15.1594 39.8584 14.994 40.118 14.7827 40.3293C14.5714 40.536 14.3187 40.6922 14.0247 40.7978C13.7353 40.9035 13.4229 40.9563 13.0876 40.9563C12.7614 40.9563 12.4537 40.9035 12.1643 40.7978C11.8749 40.6922 11.6222 40.536 11.4063 40.3293C11.1904 40.118 11.0204 39.8584 10.8964 39.5506C10.7724 39.2383 10.7103 38.8776 10.7103 38.4688C10.7103 38.06 10.7746 37.7016 10.9033 37.3939C11.0319 37.0815 11.2042 36.8196 11.4201 36.6083C11.6406 36.397 11.8932 36.2385 12.178 36.1329C12.4674 36.0272 12.7706 35.9744 13.0876 35.9744C13.4138 35.9744 13.7215 36.0272 14.0109 36.1329C14.3004 36.2385 14.553 36.397 14.7689 36.6083C14.9848 36.8196 15.1548 37.0815 15.2788 37.3939C15.4029 37.7016 15.4649 38.06 15.4649 38.4688Z" fill="#2A2D32"/>
<path d="M16.7603 40.8598V36.0846H17.8284V38.9029C17.9937 38.6548 18.1706 38.3976 18.3589 38.1312C18.5473 37.8601 18.7356 37.6006 18.924 37.3525C19.1169 37.0999 19.3053 36.8633 19.489 36.6428C19.6728 36.4223 19.8404 36.2362 19.992 36.0846H20.8671V40.8598H19.806V37.7315C19.4017 38.2047 19.0204 38.7077 18.6621 39.2405C18.3038 39.7734 17.9708 40.3132 17.663 40.8598H16.7603Z" fill="#2A2D32"/>
<path d="M22.7953 37.9451H23.5188C23.6428 37.9451 23.7577 37.9359 23.8633 37.9175C23.9736 37.8992 24.0677 37.867 24.1458 37.8211C24.2285 37.7751 24.2928 37.7154 24.3388 37.6419C24.3847 37.5684 24.4077 37.4765 24.4077 37.3663C24.4077 37.2101 24.3457 37.093 24.2216 37.0149C24.0976 36.9368 23.923 36.8977 23.6979 36.8977C23.4453 36.8977 23.2248 36.9276 23.0364 36.9873C22.8481 37.0424 22.6689 37.1182 22.499 37.2147L22.1544 36.3672C22.3382 36.2523 22.5587 36.1604 22.8159 36.0915C23.0778 36.018 23.3741 35.9813 23.7048 35.9813C23.9621 35.9813 24.201 36.0111 24.4215 36.0709C24.642 36.126 24.8326 36.211 24.9934 36.3258C25.1542 36.4361 25.2782 36.5785 25.3655 36.753C25.4573 36.923 25.5033 37.1228 25.5033 37.3525C25.5033 37.5271 25.455 37.7016 25.3586 37.8762C25.2667 38.0462 25.1243 38.1909 24.9314 38.3103C25.037 38.3654 25.1358 38.4297 25.2277 38.5033C25.3241 38.5768 25.4068 38.6617 25.4757 38.7582C25.5492 38.8547 25.6066 38.9649 25.648 39.089C25.6893 39.2084 25.71 39.3439 25.71 39.4955C25.71 40.0054 25.5285 40.3775 25.1656 40.6118C24.8073 40.8415 24.3066 40.9563 23.6635 40.9563C23.5027 40.9563 23.3419 40.9448 23.1811 40.9219C23.025 40.8989 22.8734 40.8713 22.7264 40.8392C22.584 40.8024 22.4484 40.7611 22.3198 40.7151C22.1958 40.6692 22.0855 40.621 21.9891 40.5704L22.306 39.7298C22.3703 39.7573 22.4484 39.7895 22.5403 39.8263C22.6368 39.8584 22.7424 39.8906 22.8573 39.9227C22.9721 39.9549 23.0916 39.9824 23.2156 40.0054C23.3396 40.0284 23.4637 40.0399 23.5877 40.0399C23.8909 40.0399 24.1343 39.9962 24.3181 39.9089C24.5064 39.8217 24.6006 39.6701 24.6006 39.4542C24.6006 39.3209 24.5708 39.213 24.511 39.1303C24.4513 39.0476 24.3686 38.9856 24.263 38.9443C24.1619 38.8983 24.0402 38.8685 23.8978 38.8547C23.76 38.8363 23.6084 38.8271 23.443 38.8271H22.7953V37.9451Z" fill="#2A2D32"/>
<path d="M28.5649 40.9219C28.303 40.9219 28.0412 40.9127 27.7793 40.8943C27.5221 40.8805 27.2534 40.8438 26.9731 40.784V36.1535C27.1936 36.1122 27.4348 36.0823 27.6967 36.064C27.9585 36.041 28.202 36.0295 28.4271 36.0295C28.7303 36.0295 29.0082 36.0525 29.2608 36.0984C29.5181 36.1398 29.7386 36.2133 29.9223 36.3189C30.1061 36.4246 30.2485 36.5647 30.3496 36.7392C30.4552 36.9092 30.508 37.1205 30.508 37.3732C30.508 37.7545 30.3243 38.0554 29.9568 38.2759C30.26 38.3907 30.4667 38.5469 30.5769 38.7444C30.6872 38.942 30.7423 39.1648 30.7423 39.4128C30.7423 39.9135 30.5586 40.2902 30.1911 40.5429C29.8282 40.7955 29.2861 40.9219 28.5649 40.9219ZM28.0205 38.7789V40.0123C28.0986 40.0215 28.1836 40.0284 28.2755 40.033C28.3673 40.0376 28.4684 40.0399 28.5787 40.0399C28.9002 40.0399 29.1598 39.9939 29.3573 39.9021C29.5548 39.8102 29.6536 39.6402 29.6536 39.3921C29.6536 39.1716 29.5709 39.0155 29.4055 38.9236C29.2402 38.8271 29.0036 38.7789 28.6958 38.7789H28.0205ZM28.0205 37.9589H28.5442C28.875 37.9589 29.1115 37.9175 29.2539 37.8349C29.3963 37.7476 29.4675 37.6098 29.4675 37.4214C29.4675 37.2285 29.394 37.093 29.247 37.0149C29.1 36.9368 28.8841 36.8977 28.5993 36.8977C28.5075 36.8977 28.4087 36.9 28.303 36.9046C28.1974 36.9046 28.1032 36.9092 28.0205 36.9184V37.9589Z" fill="#2A2D32"/>
<path d="M32.9048 38.4688C32.9048 38.7031 32.9324 38.9144 32.9875 39.1027C33.0472 39.2911 33.1299 39.4542 33.2356 39.592C33.3458 39.7252 33.4791 39.8285 33.6353 39.9021C33.7914 39.9756 33.9706 40.0123 34.1727 40.0123C34.3703 40.0123 34.5471 39.9756 34.7033 39.9021C34.8641 39.8285 34.9973 39.7252 35.103 39.592C35.2132 39.4542 35.2959 39.2911 35.351 39.1027C35.4107 38.9144 35.4406 38.7031 35.4406 38.4688C35.4406 38.2345 35.4107 38.0232 35.351 37.8349C35.2959 37.6419 35.2132 37.4788 35.103 37.3456C34.9973 37.2078 34.8641 37.1022 34.7033 37.0287C34.5471 36.9552 34.3703 36.9184 34.1727 36.9184C33.9706 36.9184 33.7914 36.9575 33.6353 37.0355C33.4791 37.109 33.3458 37.2147 33.2356 37.3525C33.1299 37.4857 33.0472 37.6488 32.9875 37.8417C32.9324 38.0301 32.9048 38.2391 32.9048 38.4688ZM36.55 38.4688C36.55 38.8776 36.488 39.2383 36.3639 39.5506C36.2445 39.8584 36.0791 40.118 35.8678 40.3293C35.6565 40.536 35.4038 40.6922 35.1098 40.7978C34.8204 40.9035 34.5081 40.9563 34.1727 40.9563C33.8466 40.9563 33.5388 40.9035 33.2494 40.7978C32.96 40.6922 32.7073 40.536 32.4914 40.3293C32.2755 40.118 32.1055 39.8584 31.9815 39.5506C31.8575 39.2383 31.7955 38.8776 31.7955 38.4688C31.7955 38.06 31.8598 37.7016 31.9884 37.3939C32.117 37.0815 32.2893 36.8196 32.5052 36.6083C32.7257 36.397 32.9783 36.2385 33.2632 36.1329C33.5526 36.0272 33.8557 35.9744 34.1727 35.9744C34.4989 35.9744 34.8067 36.0272 35.0961 36.1329C35.3855 36.2385 35.6381 36.397 35.854 36.6083C36.0699 36.8196 36.2399 37.0815 36.3639 37.3939C36.488 37.7016 36.55 38.06 36.55 38.4688Z" fill="#2A2D32"/>
<path d="M37.432 39.9503H38.1211C38.291 39.6563 38.4242 39.3646 38.5207 39.0752C38.6172 38.7858 38.6884 38.4918 38.7343 38.1932C38.7848 37.8946 38.8147 37.5868 38.8239 37.2698C38.8377 36.9529 38.8446 36.6198 38.8446 36.2707V36.0846H42.0005V39.9503H42.8205V42.1346H41.7869V40.8598H38.4656V42.1346H37.432V39.9503ZM39.8575 36.9942C39.8483 37.2423 39.8322 37.4972 39.8093 37.7591C39.7863 38.0209 39.7518 38.2805 39.7059 38.5377C39.66 38.7904 39.5979 39.0384 39.5198 39.2819C39.4463 39.5208 39.3522 39.7436 39.2373 39.9503H40.9531V36.9942H39.8575Z" fill="#2A2D32"/>
<path d="M43.9107 40.8598V36.0846H44.9788V38.9029C45.1442 38.6548 45.321 38.3976 45.5094 38.1312C45.6977 37.8601 45.8861 37.6006 46.0744 37.3525C46.2673 37.0999 46.4557 36.8633 46.6394 36.6428C46.8232 36.4223 46.9909 36.2362 47.1424 36.0846H48.0176V40.8598H46.9564V37.7315C46.5522 38.2047 46.1709 38.7077 45.8126 39.2405C45.4542 39.7734 45.1212 40.3132 44.8134 40.8598H43.9107Z" fill="#2A2D32"/>
<path d="M53.0603 36.0846V37.0011H51.6201V40.8598H50.5452V37.0011H49.105V36.0846H53.0603Z" fill="#2A2D32"/>
<path d="M54.1505 40.8598V36.0846H57.3753V36.9873H55.2254V37.9244H57.1341V38.8064H55.2254V39.9572H57.5338V40.8598H54.1505Z" fill="#2A2D32"/>
<path d="M60.8165 36.9942C60.8027 37.302 60.7844 37.6121 60.7614 37.9244C60.743 38.2322 60.7063 38.5308 60.6511 38.8202C60.6006 39.1096 60.5248 39.3807 60.4238 39.6333C60.3273 39.886 60.1918 40.1088 60.0172 40.3017C59.8472 40.4946 59.6336 40.6485 59.3764 40.7634C59.1191 40.8782 58.8045 40.9425 58.4324 40.9563L58.3152 40.0192C58.646 39.9824 58.9009 39.8997 59.0801 39.7711C59.2592 39.6379 59.3948 39.4358 59.4866 39.1647C59.6015 38.8294 59.6819 38.3976 59.7278 37.8693C59.7783 37.3364 59.8036 36.7415 59.8036 36.0846H63.0629V40.8598H61.9879V36.9942H60.8165Z" fill="#2A2D32"/>
<path d="M68.2448 39.2957C68.2448 39.8285 68.0473 40.2328 67.6522 40.5084C67.2571 40.7841 66.7059 40.9219 65.9984 40.9219C65.8009 40.9219 65.5735 40.9081 65.3163 40.8805C65.0636 40.853 64.8133 40.8093 64.5652 40.7496V36.0846H65.6401V37.6695C65.6998 37.6649 65.7527 37.6626 65.7986 37.6626C65.8491 37.6626 65.8997 37.6626 65.9502 37.6626C66.7266 37.6626 67.3031 37.7958 67.6798 38.0622C68.0564 38.3287 68.2448 38.7398 68.2448 39.2957ZM65.8537 38.5722C65.8308 38.5722 65.7986 38.5722 65.7573 38.5722C65.7159 38.5722 65.6769 38.5745 65.6401 38.579V40.0054C65.6907 40.01 65.7481 40.0123 65.8124 40.0123C65.8767 40.0123 65.9548 40.0123 66.0467 40.0123C66.1891 40.0123 66.3269 40.0008 66.4601 39.9778C66.5933 39.9549 66.7105 39.9158 66.8115 39.8607C66.9126 39.8056 66.993 39.7321 67.0527 39.6402C67.1124 39.5483 67.1423 39.4335 67.1423 39.2957C67.1423 39.1533 67.1124 39.0361 67.0527 38.9443C66.993 38.8524 66.9057 38.7789 66.7909 38.7238C66.6806 38.6686 66.5451 38.6296 66.3843 38.6066C66.2281 38.5836 66.0513 38.5722 65.8537 38.5722Z" fill="#2A2D32"/>
<path d="M74.7588 40.8598C74.7082 40.6945 74.6508 40.5245 74.5865 40.3499C74.5268 40.1754 74.467 40.0008 74.4073 39.8263H72.5469C72.4871 40.0008 72.4251 40.1754 72.3608 40.3499C72.3011 40.5245 72.246 40.6945 72.1954 40.8598H71.0791C71.2583 40.3453 71.4283 39.8699 71.5891 39.4335C71.7498 38.9971 71.906 38.5859 72.0576 38.2001C72.2138 37.8142 72.3654 37.449 72.5124 37.1045C72.664 36.7553 72.8202 36.4154 72.981 36.0846H74.0077C74.1639 36.4154 74.3177 36.7553 74.4693 37.1045C74.6209 37.449 74.7725 37.8142 74.9241 38.2001C75.0803 38.5859 75.2388 38.9971 75.3996 39.4335C75.5604 39.8699 75.7303 40.3453 75.9095 40.8598H74.7588ZM73.4702 37.1665C73.4472 37.2354 73.4128 37.3295 73.3668 37.449C73.3209 37.5684 73.2681 37.7062 73.2084 37.8624C73.1486 38.0186 73.082 38.1909 73.0085 38.3792C72.9396 38.5676 72.8684 38.7651 72.7949 38.9718H74.1524C74.0789 38.7651 74.0077 38.5676 73.9388 38.3792C73.8699 38.1909 73.8033 38.0186 73.7389 37.8624C73.6792 37.7062 73.6264 37.5684 73.5805 37.449C73.5345 37.3295 73.4978 37.2354 73.4702 37.1665Z" fill="#2A2D32"/>
<path d="M78.5187 40.9219C78.2569 40.9219 77.995 40.9127 77.7332 40.8943C77.4759 40.8805 77.2072 40.8438 76.927 40.784V36.1535C77.1475 36.1122 77.3887 36.0823 77.6505 36.064C77.9123 36.041 78.1558 36.0295 78.3809 36.0295C78.6841 36.0295 78.962 36.0525 79.2147 36.0984C79.4719 36.1398 79.6924 36.2133 79.8762 36.3189C80.0599 36.4246 80.2023 36.5647 80.3034 36.7392C80.409 36.9092 80.4619 37.1205 80.4619 37.3732C80.4619 37.7545 80.2781 38.0554 79.9106 38.2759C80.2138 38.3907 80.4205 38.5469 80.5308 38.7444C80.641 38.942 80.6962 39.1648 80.6962 39.4128C80.6962 39.9135 80.5124 40.2902 80.1449 40.5429C79.782 40.7955 79.2399 40.9219 78.5187 40.9219ZM77.9744 38.7789V40.0123C78.0525 40.0215 78.1374 40.0284 78.2293 40.033C78.3212 40.0376 78.4222 40.0399 78.5325 40.0399C78.8541 40.0399 79.1136 39.9939 79.3111 39.9021C79.5087 39.8102 79.6074 39.6402 79.6074 39.3921C79.6074 39.1716 79.5247 39.0155 79.3594 38.9236C79.194 38.8271 78.9574 38.7789 78.6496 38.7789H77.9744ZM77.9744 37.9589H78.498C78.8288 37.9589 79.0654 37.9175 79.2078 37.8349C79.3502 37.7476 79.4214 37.6098 79.4214 37.4214C79.4214 37.2285 79.3479 37.093 79.2009 37.0149C79.0539 36.9368 78.838 36.8977 78.5532 36.8977C78.4613 36.8977 78.3625 36.9 78.2569 36.9046C78.1512 36.9046 78.057 36.9092 77.9744 36.9184V37.9589Z" fill="#2A2D32"/>
<path d="M85.3767 36.0846V37.0011H83.9365V40.8598H82.8616V37.0011H81.4214V36.0846H85.3767Z" fill="#2A2D32"/>
<path d="M87.2081 38.4688C87.2081 38.7031 87.2356 38.9144 87.2908 39.1027C87.3505 39.2911 87.4332 39.4542 87.5388 39.592C87.6491 39.7252 87.7823 39.8285 87.9385 39.9021C88.0947 39.9756 88.2738 40.0123 88.4759 40.0123C88.6735 40.0123 88.8503 39.9756 89.0065 39.9021C89.1673 39.8285 89.3005 39.7252 89.4062 39.592C89.5164 39.4542 89.5991 39.2911 89.6542 39.1027C89.714 38.9144 89.7438 38.7031 89.7438 38.4688C89.7438 38.2345 89.714 38.0232 89.6542 37.8349C89.5991 37.6419 89.5164 37.4788 89.4062 37.3456C89.3005 37.2078 89.1673 37.1022 89.0065 37.0287C88.8503 36.9552 88.6735 36.9184 88.4759 36.9184C88.2738 36.9184 88.0947 36.9575 87.9385 37.0355C87.7823 37.109 87.6491 37.2147 87.5388 37.3525C87.4332 37.4857 87.3505 37.6488 87.2908 37.8417C87.2356 38.0301 87.2081 38.2391 87.2081 38.4688ZM90.8532 38.4688C90.8532 38.8776 90.7912 39.2383 90.6672 39.5506C90.5477 39.8584 90.3824 40.118 90.171 40.3293C89.9597 40.536 89.7071 40.6922 89.4131 40.7978C89.1237 40.9035 88.8113 40.9563 88.4759 40.9563C88.1498 40.9563 87.842 40.9035 87.5526 40.7978C87.2632 40.6922 87.0105 40.536 86.7946 40.3293C86.5787 40.118 86.4088 39.8584 86.2847 39.5506C86.1607 39.2383 86.0987 38.8776 86.0987 38.4688C86.0987 38.06 86.163 37.7016 86.2916 37.3939C86.4202 37.0815 86.5925 36.8196 86.8084 36.6083C87.0289 36.397 87.2816 36.2385 87.5664 36.1329C87.8558 36.0272 88.159 35.9744 88.4759 35.9744C88.8021 35.9744 89.1099 36.0272 89.3993 36.1329C89.6887 36.2385 89.9414 36.397 90.1573 36.6083C90.3732 36.8196 90.5431 37.0815 90.6672 37.3939C90.7912 37.7016 90.8532 38.06 90.8532 38.4688Z" fill="#2A2D32"/>
<path d="M93.2236 40.8598H92.1487V36.0846H95.4079V36.9942H93.2236V40.8598Z" fill="#2A2D32"/>
<path d="M99.2646 40.8598C99.2141 40.6945 99.1567 40.5245 99.0924 40.3499C99.0326 40.1754 98.9729 40.0008 98.9132 39.8263H97.0527C96.993 40.0008 96.931 40.1754 96.8667 40.3499C96.807 40.5245 96.7518 40.6945 96.7013 40.8598H95.585C95.7642 40.3453 95.9342 39.8699 96.0949 39.4335C96.2557 38.9971 96.4119 38.5859 96.5635 38.2001C96.7197 37.8142 96.8713 37.449 97.0183 37.1045C97.1699 36.7553 97.3261 36.4154 97.4868 36.0846H98.5135C98.6697 36.4154 98.8236 36.7553 98.9752 37.1045C99.1268 37.449 99.2784 37.8142 99.43 38.2001C99.5862 38.5859 99.7447 38.9971 99.9055 39.4335C100.066 39.8699 100.236 40.3453 100.415 40.8598H99.2646ZM97.9761 37.1665C97.9531 37.2354 97.9187 37.3295 97.8727 37.449C97.8268 37.5684 97.7739 37.7062 97.7142 37.8624C97.6545 38.0186 97.5879 38.1909 97.5144 38.3792C97.4455 38.5676 97.3743 38.7651 97.3008 38.9718H98.6583C98.5848 38.7651 98.5135 38.5676 98.4446 38.3792C98.3757 38.1909 98.3091 38.0186 98.2448 37.8624C98.1851 37.7062 98.1323 37.5684 98.0863 37.449C98.0404 37.3295 98.0036 37.2354 97.9761 37.1665Z" fill="#2A2D32"/>
<path d="M101.147 39.9503H101.836C102.006 39.6563 102.14 39.3646 102.236 39.0752C102.332 38.7858 102.404 38.4918 102.45 38.1932C102.5 37.8946 102.53 37.5868 102.539 37.2698C102.553 36.9529 102.56 36.6198 102.56 36.2707V36.0846H105.716V39.9503H106.536V42.1346H105.502V40.8598H102.181V42.1346H101.147V39.9503ZM103.573 36.9942C103.564 37.2423 103.548 37.4972 103.525 37.7591C103.502 38.0209 103.467 38.2805 103.421 38.5377C103.375 38.7904 103.313 39.0384 103.235 39.2819C103.162 39.5208 103.067 39.7436 102.953 39.9503H104.668V36.9942H103.573Z" fill="#2A2D32"/>
<path d="M107.272 40.8598C107.405 40.6256 107.547 40.3913 107.699 40.157C107.85 39.9227 108.004 39.6976 108.16 39.4817C108.321 39.2612 108.484 39.0568 108.65 38.8685C108.82 38.6755 108.99 38.5033 109.16 38.3517C108.967 38.1541 108.787 37.9612 108.622 37.7728C108.457 37.5845 108.298 37.3985 108.147 37.2147C108 37.031 107.855 36.8472 107.713 36.6635C107.57 36.4751 107.425 36.2822 107.278 36.0846H108.574C108.712 36.2776 108.84 36.4544 108.96 36.6152C109.084 36.776 109.203 36.9322 109.318 37.0838C109.437 37.2354 109.557 37.3847 109.676 37.5317C109.796 37.6787 109.924 37.8349 110.062 38.0002V36.0846H111.11V38.0002C111.247 37.8303 111.378 37.6695 111.502 37.5179C111.631 37.3617 111.755 37.2078 111.874 37.0562C111.994 36.9046 112.113 36.7507 112.233 36.5945C112.352 36.4338 112.474 36.2638 112.598 36.0846H113.887C113.721 36.3005 113.565 36.5027 113.418 36.691C113.276 36.8794 113.131 37.0631 112.984 37.2423C112.837 37.4214 112.685 37.6006 112.529 37.7797C112.377 37.9589 112.21 38.1472 112.026 38.3448C112.398 38.6893 112.738 39.0775 113.046 39.5093C113.354 39.9365 113.641 40.3867 113.907 40.8598H112.708C112.566 40.6439 112.433 40.4441 112.309 40.2604C112.185 40.0766 112.061 39.8997 111.937 39.7298C111.812 39.5598 111.684 39.3944 111.551 39.2337C111.417 39.0683 111.27 38.8983 111.11 38.7238V40.8598H110.062V38.7238C109.897 38.9167 109.748 39.0958 109.614 39.2612C109.481 39.4266 109.353 39.592 109.228 39.7573C109.109 39.9227 108.987 40.095 108.863 40.2741C108.739 40.4487 108.606 40.6439 108.464 40.8598H107.272Z" fill="#2A2D32"/>
<path d="M114.93 40.8598V36.0846H118.154V36.9873H116.004V37.9244H117.913V38.8064H116.004V39.9572H118.313V40.8598H114.93Z" fill="#2A2D32"/>
<path d="M123.049 36.0846V37.0011H121.609V40.8598H120.534V37.0011H119.094V36.0846H123.049Z" fill="#2A2D32"/>
<path d="M124.881 38.4688C124.881 38.7031 124.908 38.9144 124.964 39.1027C125.023 39.2911 125.106 39.4542 125.212 39.592C125.322 39.7252 125.455 39.8285 125.611 39.9021C125.767 39.9756 125.947 40.0123 126.149 40.0123C126.346 40.0123 126.523 39.9756 126.679 39.9021C126.84 39.8285 126.973 39.7252 127.079 39.592C127.189 39.4542 127.272 39.2911 127.327 39.1027C127.387 38.9144 127.417 38.7031 127.417 38.4688C127.417 38.2345 127.387 38.0232 127.327 37.8349C127.272 37.6419 127.189 37.4788 127.079 37.3456C126.973 37.2078 126.84 37.1022 126.679 37.0287C126.523 36.9552 126.346 36.9184 126.149 36.9184C125.947 36.9184 125.767 36.9575 125.611 37.0355C125.455 37.109 125.322 37.2147 125.212 37.3525C125.106 37.4857 125.023 37.6488 124.964 37.8417C124.908 38.0301 124.881 38.2391 124.881 38.4688ZM128.526 38.4688C128.526 38.8776 128.464 39.2383 128.34 39.5506C128.221 39.8584 128.055 40.118 127.844 40.3293C127.633 40.536 127.38 40.6922 127.086 40.7978C126.796 40.9035 126.484 40.9563 126.149 40.9563C125.823 40.9563 125.515 40.9035 125.225 40.7978C124.936 40.6922 124.683 40.536 124.467 40.3293C124.252 40.118 124.082 39.8584 123.958 39.5506C123.833 39.2383 123.771 38.8776 123.771 38.4688C123.771 38.06 123.836 37.7016 123.964 37.3939C124.093 37.0815 124.265 36.8196 124.481 36.6083C124.702 36.397 124.954 36.2385 125.239 36.1329C125.529 36.0272 125.832 35.9744 126.149 35.9744C126.475 35.9744 126.783 36.0272 127.072 36.1329C127.361 36.2385 127.614 36.397 127.83 36.6083C128.046 36.8196 128.216 37.0815 128.34 37.3939C128.464 37.7016 128.526 38.06 128.526 38.4688Z" fill="#2A2D32"/>
<path d="M131.413 40.9219C131.151 40.9219 130.89 40.9127 130.628 40.8943C130.37 40.8805 130.102 40.8438 129.821 40.784V36.1535C130.042 36.1122 130.283 36.0823 130.545 36.064C130.807 36.041 131.05 36.0295 131.275 36.0295C131.579 36.0295 131.857 36.0525 132.109 36.0984C132.366 36.1398 132.587 36.2133 132.771 36.3189C132.954 36.4246 133.097 36.5647 133.198 36.7392C133.304 36.9092 133.356 37.1205 133.356 37.3732C133.356 37.7545 133.173 38.0554 132.805 38.2759C133.108 38.3907 133.315 38.5469 133.425 38.7444C133.536 38.942 133.591 39.1648 133.591 39.4128C133.591 39.9135 133.407 40.2902 133.039 40.5429C132.676 40.7955 132.134 40.9219 131.413 40.9219ZM130.869 38.7789V40.0123C130.947 40.0215 131.032 40.0284 131.124 40.033C131.216 40.0376 131.317 40.0399 131.427 40.0399C131.749 40.0399 132.008 39.9939 132.206 39.9021C132.403 39.8102 132.502 39.6402 132.502 39.3921C132.502 39.1716 132.419 39.0155 132.254 38.9236C132.088 38.8271 131.852 38.7789 131.544 38.7789H130.869ZM130.869 37.9589H131.393C131.723 37.9589 131.96 37.9175 132.102 37.8349C132.245 37.7476 132.316 37.6098 132.316 37.4214C132.316 37.2285 132.242 37.093 132.095 37.0149C131.948 36.9368 131.732 36.8977 131.448 36.8977C131.356 36.8977 131.257 36.9 131.151 36.9046C131.046 36.9046 130.952 36.9092 130.869 36.9184V37.9589Z" fill="#2A2D32"/>
</svg>
