<svg width="44" height="44" viewBox="0 0 44 44" fill="none" xmlns="http://www.w3.org/2000/svg">
<rect width="44" height="44" rx="7" fill="#F16437"/>
<path fill-rule="evenodd" clip-rule="evenodd" d="M21.9379 22.4238C25.383 22.4237 28.1788 19.6367 28.1898 16.1916C28.2008 12.7466 25.4229 9.94176 21.9779 9.91957C18.5329 9.89738 15.7191 12.6662 15.6857 16.1111C15.6696 17.7797 16.3211 19.3856 17.4954 20.5713C18.6697 21.7569 20.2692 22.4239 21.9379 22.4238ZM21.9379 13.5829C23.3676 13.5829 24.5266 14.7419 24.5266 16.1716C24.5266 17.6013 23.3676 18.7603 21.9379 18.7603C20.5082 18.7603 19.3492 17.6013 19.3492 16.1716C19.3371 15.4758 19.6039 14.8041 20.0903 14.3063C20.5767 13.8086 21.242 13.5263 21.9379 13.5223V13.5829ZM28.0993 25.9512C26.9788 26.6506 25.7515 27.1619 24.466 27.465L27.963 30.962C28.633 31.6841 28.6119 32.8067 27.9155 33.5032C27.219 34.1996 26.0964 34.2207 25.3743 33.5507L21.9379 30.1143L18.5014 33.5507C18.1599 33.8911 17.6969 34.0818 17.2147 34.0806C16.7285 34.0792 16.2617 33.8893 15.9128 33.5507C15.1986 32.8356 15.1986 31.6772 15.9128 30.962L19.4855 27.4802C18.1999 27.1771 16.9726 26.6657 15.8522 25.9663C15.0018 25.4225 14.7456 24.2965 15.2769 23.4382C15.5356 23.0263 15.9475 22.7342 16.4217 22.6263C16.896 22.5184 17.3937 22.6035 17.8051 22.8629C20.3815 24.4669 23.6457 24.4669 26.2221 22.8629C26.6324 22.5994 27.1314 22.5119 27.6069 22.6201C28.0823 22.7283 28.4943 23.0231 28.7502 23.4382C29.2578 24.3128 28.9676 25.433 28.0993 25.9512Z" fill="white"/>
</svg>
