<svg width="146" height="20" viewBox="0 0 146 20" fill="none" xmlns="http://www.w3.org/2000/svg">
<g clip-path="url(#clip0_4001_486)">
<path d="M108.996 20C107.687 20 106.596 19.7895 105.664 19.4255C104.741 19.0615 103.977 18.4887 103.43 17.8625C102.828 17.1862 102.45 16.4047 102.17 15.5214C101.904 14.6346 101.794 13.6444 101.794 12.6541C101.794 11.6121 101.955 10.6253 102.231 9.73859C102.56 8.85357 102.995 8.07034 103.593 7.39407C104.192 6.76956 104.96 6.1968 105.883 5.83279C106.764 5.46705 107.856 5.2583 109.057 5.2583C110.258 5.2583 111.349 5.46532 112.269 5.83279C113.142 6.1968 113.908 6.76956 114.51 7.39407C115.115 8.07034 115.552 8.85357 115.822 9.73859C116.097 10.6253 116.256 11.6121 116.256 12.6041C116.256 13.6461 116.097 14.6346 115.822 15.5214C115.603 16.4047 115.166 17.1862 114.561 17.8625C113.965 18.4887 113.201 19.0615 112.269 19.4255C111.398 19.7895 110.254 20 108.998 20M109.055 7.75981C107.687 7.75981 106.706 8.17558 105.993 9.01057C105.287 9.79035 104.902 11.0411 104.902 12.6524C104.902 14.2637 105.289 15.4679 105.993 16.2477C106.708 17.081 107.689 17.4967 109.055 17.4967C110.42 17.4967 111.347 17.081 112.049 16.2477C112.764 15.4679 113.091 14.2172 113.091 12.6524C113.091 11.0877 112.764 9.78862 112.049 9.01057C111.347 8.17558 110.366 7.75981 109.055 7.75981Z" fill="white"/>
<path d="M124.771 20C123.462 20 122.363 19.7895 121.44 19.4255C120.511 19.0615 119.745 18.4887 119.201 17.8625C118.605 17.1862 118.221 16.4047 117.948 15.5214C117.731 14.6346 117.564 13.6444 117.564 12.6541C117.564 11.6121 117.731 10.6253 118.001 9.73859C118.33 8.85357 118.764 8.07034 119.367 7.39407C119.963 6.76956 120.729 6.1968 121.657 5.83279C122.531 5.46705 123.623 5.2583 124.822 5.2583C126.021 5.2583 127.114 5.46532 128.045 5.83279C128.917 6.1968 129.681 6.76956 130.277 7.39407C130.882 8.07034 131.319 8.85357 131.593 9.73859C131.865 10.6253 132.03 11.6121 132.03 12.6041C132.03 13.6461 131.864 14.6346 131.644 15.5214C131.374 16.4047 130.937 17.1862 130.339 17.8625C129.73 18.4887 128.97 19.0615 128.094 19.4255C127.171 19.7895 126.083 20 124.771 20ZM124.822 7.75981C123.462 7.75981 122.475 8.17558 121.765 9.01057C121.052 9.79035 120.678 11.0411 120.678 12.6524C120.678 14.2637 121.052 15.4679 121.765 16.2477C122.475 17.081 123.462 17.4967 124.822 17.4967C126.182 17.4967 127.114 17.081 127.825 16.2994C128.533 15.4696 128.86 14.2172 128.86 12.6541C128.86 11.0911 128.533 9.79035 127.825 9.01229C127.114 8.1773 126.131 7.76154 124.822 7.76154" fill="white"/>
<path d="M144.36 19.5307C144.033 19.5307 143.708 19.3772 143.486 19.1667L138.576 14.2707C138.249 14.0102 138.031 13.8049 137.812 13.6996C137.591 13.5426 137.266 13.4909 136.882 13.4909H136.664V18.3852C136.664 19.0097 136.116 19.479 135.465 19.479H134.757C134.103 19.479 133.609 19.0097 133.609 18.3852V1.09375C133.609 0.415752 134.103 0.00170898 134.757 0.00170898H135.465C136.116 0.00170898 136.664 0.415752 136.664 1.09375V10.8841C136.991 10.8841 137.319 10.8841 137.534 10.8324C137.706 10.7289 137.924 10.6271 138.141 10.4183L142.126 6.04156C142.395 5.78106 142.726 5.62407 143.112 5.62407C143.38 5.62407 143.655 5.67582 143.872 5.83282L144.309 6.14507C144.525 6.30034 144.686 6.56084 144.744 6.8731C144.795 7.18536 144.686 7.44586 144.47 7.70809L140.382 12.0297L145.671 17.2915C145.89 17.5002 146 17.8125 146 18.0712C146 18.3835 145.835 18.6992 145.62 18.8527L145.183 19.2185C144.963 19.4255 144.687 19.5307 144.36 19.5307Z" fill="white"/>
<path d="M99.9895 11.8226C99.772 11.2499 99.443 10.7806 99.0664 10.3649C98.6807 9.94737 98.2438 9.63683 97.8068 9.37461C97.5308 9.21934 97.2621 9.11411 96.986 9.01232C97.1542 8.85533 97.3699 8.75009 97.5308 8.59483C97.858 8.28084 98.1853 7.96859 98.4631 7.6063C98.6807 7.24229 98.8982 6.87482 99.0664 6.45905C99.2254 5.98981 99.2839 5.57576 99.2839 5.10479C99.2839 4.11626 99.0664 3.33475 98.6807 2.65676C98.2968 1.98049 97.7483 1.45776 97.0939 1.04199C96.4395 0.677979 95.6771 0.365722 94.8033 0.210456C93.9898 0.0534644 93.0575 0.00170898 92.1362 0.00170898H85.8568C85.2024 0.00170898 84.6576 0.419202 84.6576 1.09375V18.3835C84.6576 19.0097 85.2024 19.4773 85.8568 19.4773H93.4944C94.5346 19.4773 95.4578 19.3737 96.2786 19.115C97.0939 18.9028 97.858 18.4887 98.4631 18.0212C99.0664 17.5485 99.5545 16.9257 99.878 16.2494C100.207 15.5197 100.377 14.7382 100.377 13.8532C100.377 13.0699 100.267 12.3937 99.9914 11.8209M91.1527 8.02034H90.9333C90.3319 8.12213 89.8365 8.59138 89.8365 9.21589V9.37116C89.8365 9.99567 90.3319 10.5167 90.9333 10.6236H93.712C94.041 10.6754 94.4249 10.7271 94.8618 10.8307C95.1324 10.9342 95.4084 11.0377 95.6772 11.1947C95.9514 11.3499 96.2219 11.557 96.3919 11.8192C96.6095 12.0262 96.7703 12.3385 96.9367 12.6507C97.0464 13.0165 97.0957 13.3822 97.0957 13.7997C97.0957 14.9452 96.7703 15.725 96.0629 16.1942C95.3006 16.7152 94.3701 16.924 93.169 16.924H87.822V2.49977H91.4799C92.8967 2.49977 94.041 2.65503 94.8618 3.07253C95.6771 3.43654 96.0044 4.11454 96.0044 5.10306C96.0044 5.62579 95.9532 6.09332 95.7375 6.45733C95.5693 6.82134 95.3006 7.13532 94.9715 7.34407C94.6443 7.55109 94.2586 7.75984 93.7705 7.86508C93.2769 7.96686 92.7888 8.02207 92.1856 8.02207H91.1527V8.02034Z" fill="white"/>
<path d="M21.8326 20C20.5237 20 19.4323 19.7895 18.5037 19.4255C17.575 19.0615 16.8109 18.4887 16.2131 17.8625C15.6665 17.1862 15.2844 16.4047 15.0102 15.5214C14.7379 14.6346 14.6282 13.6444 14.6282 12.6541C14.6282 11.6121 14.7872 10.6253 15.0633 9.73859C15.3375 8.85357 15.8274 8.07034 16.427 7.39407C17.0284 6.76956 17.7907 6.1968 18.7194 5.83279C19.595 5.46705 20.6864 5.2583 21.8326 5.2583C23.0884 5.2583 24.1798 5.46532 25.1085 5.83279C25.9786 6.1968 26.7446 6.76956 27.346 7.39407C27.8926 8.07034 28.3825 8.85357 28.6567 9.73859C28.9291 10.6253 29.0918 11.6121 29.0918 12.6041C29.0918 13.6461 28.9291 14.6346 28.6567 15.5214C28.3825 16.4047 27.9474 17.1862 27.4027 17.8625C26.7994 18.4887 26.0353 19.0615 25.1085 19.4255C24.1798 19.7895 23.0884 20 21.8326 20ZM21.8326 7.75981C20.5237 7.75981 19.542 8.17558 18.8291 9.01057C18.1216 9.79035 17.7395 11.0411 17.7395 12.6524C17.7395 14.2637 18.1216 15.4679 18.8291 16.2477C19.5402 17.081 20.5218 17.4967 21.8326 17.4967C23.1433 17.4967 24.1798 17.081 24.8909 16.2477C25.5472 15.4679 25.9256 14.2172 25.9256 12.6524C25.9256 11.0877 25.5472 9.78862 24.8361 9.01057C24.1268 8.17558 23.1981 7.75981 21.8326 7.75981Z" fill="white"/>
<path d="M56.1068 19.5308C55.7248 19.5308 55.4524 19.3772 55.1818 19.1667L50.2662 14.2707C49.9938 14.0102 49.7214 13.8049 49.5039 13.6996C49.2863 13.5427 48.9573 13.4909 48.577 13.4909H48.3577V18.3852C48.3577 19.0097 47.8111 19.479 47.1548 19.479H46.5004C45.8477 19.479 45.3011 19.0097 45.3011 18.3852V1.09376C45.3011 0.415768 45.8477 0 46.5004 0H47.1548C47.8093 0 48.3577 0.414043 48.3577 1.09204V10.8824C48.7416 10.8824 49.0121 10.8824 49.2333 10.8307C49.3942 10.7272 49.6154 10.6254 49.8293 10.4166L53.8144 6.03985C54.0868 5.77935 54.414 5.62236 54.7961 5.62236C55.0703 5.62236 55.3427 5.67411 55.5621 5.8311L55.9971 6.14336C56.2695 6.29863 56.434 6.55913 56.434 6.87139C56.4907 7.18365 56.3792 7.44415 56.1598 7.70637L52.0668 12.0279L57.3609 17.2897C57.5802 17.4985 57.6881 17.8107 57.6881 18.0695C57.6881 18.3818 57.5254 18.6975 57.3079 18.851L56.9258 19.2168C56.7083 19.4238 56.3792 19.529 56.1068 19.529" fill="white"/>
<path d="M14.0816 3.38653C13.6977 2.55154 13.2096 1.92702 12.5533 1.40775C11.897 0.885017 11.1366 0.521004 10.2609 0.262227C9.44377 0.0517554 8.56995 0 7.58828 0H1.14619C0.493577 0 0 0.415768 0 1.09376V18.3818C0 19.008 0.493577 19.4773 1.14619 19.4773H1.96334C2.62144 19.4773 3.1662 19.008 3.1662 18.3818V2.4463H6.93201C7.53344 2.4463 8.07821 2.49978 8.6248 2.6033C9.11106 2.65333 9.60647 2.8638 9.98853 3.1243C10.4236 3.38653 10.696 3.75054 10.9702 4.21806C11.1914 4.73907 11.3541 5.41706 11.3541 6.2486C11.3541 6.92659 11.1914 7.49935 10.9702 7.96688C10.696 8.43612 10.3706 8.80014 9.93552 9.1124C9.55162 9.3729 9.11289 9.58164 8.56995 9.68515C8.02519 9.78867 7.48043 9.89563 6.98868 9.89563H6.06003C5.40741 9.94566 4.91566 10.4184 4.91566 11.0411V11.1964C4.91566 11.8209 5.40741 12.3402 6.06003 12.3937H7.42742C8.40726 12.3937 9.39258 12.2367 10.2646 11.9244C11.1384 11.6622 11.8989 11.1964 12.557 10.6754C13.2132 10.1544 13.7013 9.47468 14.0852 8.74838C14.4673 7.96688 14.6318 7.13189 14.6318 6.24687C14.6318 5.10135 14.4673 4.16458 14.0852 3.38308" fill="white"/>
<path d="M71.8245 12.0297C71.8245 11.5104 71.8245 11.0412 71.7167 10.5719C71.7167 10.3097 71.6636 10.1027 71.6088 9.89567V9.84392C71.5521 9.63689 71.4991 9.42642 71.4443 9.21768L71.3894 9.1642C71.3328 8.95717 71.2798 8.80018 71.2231 8.64492C71.1701 8.59316 71.1701 8.54141 71.1152 8.48965C71.0622 8.38441 71.0074 8.22742 70.9525 8.07216C70.8977 8.02213 70.8447 7.91689 70.7898 7.86686C70.735 7.76162 70.6783 7.65811 70.6235 7.60463C70.5175 7.39416 70.4041 7.24235 70.2414 7.13539C69.2049 5.88463 67.5688 5.26184 65.3843 5.26184C65.2746 5.26184 65.1649 5.3136 65.057 5.3136H64.8377C63.856 5.36363 62.9804 5.57237 62.2747 5.88463C61.3461 6.3004 60.6349 6.8214 60.0353 7.4994C59.4339 8.17739 58.997 8.9589 58.7228 9.8974C58.4504 10.7289 58.2859 11.7209 58.2859 12.7094C58.2859 13.7514 58.4504 14.7935 58.668 15.625C58.9422 16.5652 59.3772 17.345 59.9805 17.9712C60.5801 18.5957 61.3442 19.1185 62.3277 19.4808C63.2546 19.7947 64.4026 20.0035 65.7663 20.0035C67.1301 20.0035 68.1684 19.8465 69.0952 19.6378C69.1318 19.6378 69.1677 19.6205 69.2031 19.586C69.3128 19.586 69.4224 19.5342 69.5321 19.5342C69.5851 19.5342 69.6418 19.4808 69.6418 19.4808C69.8027 19.4273 69.9654 19.4273 70.0769 19.3773H70.1317L70.4023 19.272C70.459 19.272 70.5138 19.222 70.5138 19.222C70.841 19.1685 71.0586 18.9598 71.2213 18.6475C71.3309 18.3853 71.3876 18.0747 71.2779 17.8125L71.1682 17.6055C71.0055 17.1362 70.5156 16.8223 70.0239 16.8223C69.916 16.8223 69.8027 16.8223 69.693 16.8757L69.3109 16.9793H69.2012C68.8192 17.0845 68.492 17.1863 68.1117 17.2398C67.7827 17.2932 67.4024 17.3433 67.0716 17.3967C66.6895 17.4485 66.3093 17.4485 65.8175 17.4485C64.4556 17.4485 63.4154 17.0845 62.6531 16.3547C61.9438 15.675 61.5581 14.7382 61.5069 13.5945H70.6747C71.3291 13.5945 71.8757 13.1252 71.8757 12.5007V12.2402C71.8757 12.1367 71.8209 12.0849 71.8209 12.0314M68.6016 10.3114C68.6565 10.4184 68.6565 10.5202 68.6565 10.5202V10.6271C68.6565 10.7807 68.7132 10.9912 68.7132 11.1464H61.5599C61.6715 10.1562 62.0005 9.37639 62.5983 8.75015C63.143 8.17739 63.9602 7.86514 64.8888 7.80993H65.11C65.1631 7.80993 65.2727 7.7599 65.3824 7.7599C65.8175 7.7599 66.3093 7.86514 66.6895 7.96692C67.0716 8.07043 67.4536 8.2809 67.7297 8.54141C68.0569 8.80018 68.2744 9.1642 68.4389 9.63517C68.492 9.84219 68.5505 10.0509 68.6035 10.3097" fill="white"/>
<path d="M43.2263 17.8125L43.1166 17.6055C42.9558 17.1362 42.4604 16.824 41.9704 16.824C41.8608 16.824 41.7511 16.824 41.6962 16.8757V16.824L41.4257 16.9292C41.3727 16.9292 41.3178 16.9292 41.2612 16.9792L41.0985 17.031C40.7146 17.1362 40.3892 17.188 40.0619 17.2415C39.243 17.345 38.5867 17.4502 37.9322 17.4502C36.5137 17.4502 35.4205 17.0845 34.6582 16.3012C33.9471 15.5215 33.5668 14.3225 33.5668 12.7594C33.5668 12.0314 33.6765 11.3551 33.8941 10.7306C34.0568 10.1579 34.331 9.63859 34.7112 9.21937C35.0951 8.80188 35.585 8.43787 36.1298 8.17736C36.6745 7.96862 37.3308 7.81163 38.0949 7.81163C38.8042 7.81163 39.4057 7.86511 40.0053 7.96862C40.3343 8.02382 40.6597 8.07213 40.9888 8.17736C41.0229 8.21187 41.0588 8.22912 41.0966 8.22912L41.2045 8.2826L41.5865 8.38611C41.6944 8.43959 41.8059 8.43959 41.9686 8.43959C42.4567 8.43959 42.9521 8.12733 43.1148 7.65981L43.2245 7.45106C43.3342 7.19056 43.2812 6.87658 43.1715 6.56432C43.0069 6.30554 42.7894 6.09507 42.4604 5.99156C42.4604 5.99156 41.9156 5.8363 41.0418 5.62927H40.9339C40.115 5.42053 39.1315 5.31702 37.9871 5.31702C36.7824 5.31702 35.6947 5.52404 34.7112 5.88805C33.7862 6.25206 32.9654 6.77479 32.3658 7.45279C31.7095 8.13078 31.2214 8.90884 30.8906 9.79386C30.5615 10.7341 30.3988 11.7226 30.3988 12.7629C30.3988 13.8032 30.5085 14.7951 30.7827 15.6784C31.0533 16.5669 31.4883 17.2949 32.0916 17.9712C32.6894 18.5974 33.4535 19.0667 34.4388 19.4307C35.3638 19.7947 36.5118 20.0052 37.8737 20.0052C38.9669 20.0052 39.9504 19.9 40.8242 19.6895C41.1496 19.6395 41.4769 19.5342 41.8059 19.4307L42.0235 19.3772C42.2958 19.272 42.4585 19.222 42.4585 19.222C42.7894 19.1685 43.0069 18.9615 43.1696 18.6492C43.2812 18.3852 43.3342 18.0747 43.2227 17.8159" fill="white"/>
<path d="M82.4145 18.1765L82.3615 18.0712C82.2554 17.5485 81.76 17.238 81.2171 17.238H80.9977L80.6138 17.2914L80.3926 17.3415C80.0142 17.395 79.687 17.395 79.3031 17.395C78.539 17.395 77.9412 17.2397 77.614 16.8757C77.2283 16.5099 77.0674 15.8337 77.0674 14.7917V8.17732H80.5005C81.1549 8.17732 81.6997 7.65632 81.6997 7.03008V6.87481C81.6997 6.2503 81.1549 5.78277 80.5005 5.78277H77.0674V2.96728C77.0674 2.34449 76.5208 1.82349 75.87 1.82349H75.2137C74.5575 1.82349 74.0127 2.34449 74.0127 2.96728V15.4162C74.0127 16.1977 74.1224 16.9274 74.3399 17.4484C74.6105 18.0229 74.9395 18.4887 75.3746 18.8527C75.7603 19.2185 76.3033 19.479 76.901 19.6342C77.4476 19.7912 78.1002 19.8413 78.7565 19.8413C79.1404 19.8413 79.4695 19.8413 79.7382 19.7912H79.7967C79.7967 19.7912 80.1769 19.7912 80.6723 19.7377C81.2189 19.6342 81.5443 19.5825 81.5443 19.5825C81.8715 19.4772 82.0909 19.3237 82.2591 19.0615C82.4766 18.801 82.4766 18.4887 82.4181 18.1765" fill="white"/>
</g>
<defs>
<clipPath id="clip0_4001_486">
<rect width="146" height="20" fill="white"/>
</clipPath>
</defs>
</svg>
