<!-- Generated by IcoMoon.io -->
<svg version="1.1" xmlns="http://www.w3.org/2000/svg" width="32" height="32" viewBox="0 0 32 32">
<title>delivery</title>
<path d="M29.024 0.562c-2.649 0.641-4.969 1.513-7.145 2.627l0.181-0.084c-2.922 1.462-5.225 3.079-7.392 5.191l-0.774 0.753-3.108 0.652c-1.71 0.359-3.18 0.677-3.266 0.707-0.166 0.058-5.818 6.064-6.023 6.4-0.218 0.358-0.098 0.93 0.249 1.187 0.274 0.203 0.478 0.175 3.799-0.524 1.744-0.367 3.178-0.66 3.187-0.651s-0.124 0.338-0.296 0.732c-0.502 1.151-0.862 2.104-0.862 2.284 0 0.323 0.159 0.546 0.986 1.388 0.455 0.463 0.828 0.868 0.828 0.898 0 0.031-0.345 0.43-0.766 0.886-0.622 0.674-0.779 0.876-0.835 1.074-0.125 0.446 0.112 0.896 0.562 1.068 0.225 0.086 0.252 0.086 0.477 0 0.191-0.073 0.39-0.255 0.995-0.914 0.416-0.452 0.771-0.823 0.788-0.823s0.423 0.408 0.901 0.906c1.012 1.053 1.097 1.103 1.592 0.934 0.161-0.055 0.788-0.346 1.394-0.647s1.11-0.538 1.121-0.528c0.010 0.010-0.248 1.581-0.575 3.49-0.483 2.829-0.583 3.505-0.542 3.657 0.152 0.55 0.71 0.825 1.166 0.575 0.188-0.103 5.845-6.194 5.966-6.423 0.041-0.079 0.337-1.669 0.657-3.532 0.513-2.988 0.597-3.407 0.707-3.542 0.069-0.085 0.355-0.427 0.637-0.762 2.645-3.14 4.679-7.041 6.147-11.786 0.484-1.564 1.091-4.312 1.026-4.652-0.049-0.278-0.226-0.506-0.468-0.624l-0.005-0.002c-0.3-0.136-0.414-0.129-1.31 0.084zM21.623 7.787c0.569 0.145 0.901 0.337 1.339 0.774 0.656 0.654 0.952 1.389 0.947 2.347 0 0.011 0 0.024 0 0.037 0 0.635-0.196 1.225-0.532 1.711l0.007-0.010c-0.572 0.86-1.372 1.299-2.37 1.299-0.838 0-1.48-0.28-2.073-0.904-1.072-1.129-1.217-2.822-0.349-4.092 0.696-1.018 1.856-1.463 3.031-1.162zM20.668 9.488c-0.38 0.101-0.687 0.356-0.857 0.692l-0.003 0.008c-0.148 0.279-0.138 0.965 0.018 1.26 0.174 0.328 0.554 0.638 0.877 0.715 0.443 0.106 0.796 0 1.137-0.341 0.524-0.525 0.566-1.279 0.104-1.884-0.269-0.353-0.854-0.559-1.276-0.45zM5.253 20.788c-0.058 0.010-0.169 0.043-0.246 0.073-0.194 0.075-3.092 3.095-3.206 3.341-0.124 0.27-0.117 0.478 0.026 0.758 0.147 0.289 0.329 0.427 0.611 0.464 0.419 0.057 0.487 0.003 2.069-1.637 0.821-0.852 1.535-1.625 1.586-1.72 0.313-0.573-0.223-1.389-0.84-1.279zM6.427 25.523c-0.022 0.011-0.095 0.037-0.169 0.063l-0.051 0.015c-0.064 0.008-2.874 3.305-2.929 3.438-0.293 0.701 0.413 1.484 1.061 1.177 0.131-0.063 0.636-0.597 1.593-1.688 0.771-0.878 1.443-1.673 1.495-1.767 0.124-0.228 0.118-0.541-0.017-0.82-0.186-0.383-0.598-0.558-0.983-0.418zM10.736 26.934c-0.181 0.11-2.568 2.809-2.778 3.141-0.156 0.246-0.144 0.727 0.025 0.954 0.265 0.358 0.689 0.483 1.034 0.305 0.203-0.105 2.763-3.033 2.865-3.277 0.099-0.239 0.061-0.658-0.078-0.846-0.275-0.37-0.724-0.487-1.068-0.277z"></path>
</svg>
