<svg width="32" height="32" fill="none" xmlns="http://www.w3.org/2000/svg"><path d="M16.257 1.518C13.602 3.642 9.986 4.439 5.948 3.789c-.698-.112-.889-.08-1.028.173-.086.157-.093.4-.091 2.945.003 2.816.051 3.863.268 5.786.467 4.143 1.407 7.324 2.765 9.353.898 1.343 3.263 3.931 4.885 5.348 1.255 1.096 2.857 2.263 3.754 2.734.455.239.556.223 1.278-.206 2.277-1.352 4.902-3.781 7.181-6.642.873-1.096 1.345-1.888 1.83-3.067 1.323-3.221 1.976-8.551 1.747-14.266-.07-1.743-.1-1.98-.274-2.12-.147-.12-.337-.117-1.246.016-3.897.572-7.456-.252-10.048-2.325-.127-.102-.287-.185-.356-.185-.068 0-.229.083-.356.185m5.171 10.031c.612.256.897 1.043.585 1.614-.066.121-1.412 1.697-2.991 3.503-2.164 2.474-2.926 3.311-3.091 3.395a1.235 1.235 0 0 1-.891.054c-.103-.035-.751-.489-1.44-1.009-1.01-.763-1.278-.992-1.382-1.181-.273-.499-.114-1.189.35-1.515.274-.193.747-.25 1.042-.127.155.065.814.532 1.571 1.113.04.032.88-.892 2.575-2.834 1.695-1.943 2.579-2.916 2.713-2.986.243-.129.685-.141.959-.027" fill="#2A2D32" fill-rule="evenodd"/></svg>