<svg width="32" height="32" fill="none" xmlns="http://www.w3.org/2000/svg"><path d="M16.525 4.059c-3.576.275-6.806 2.651-8.291 6.101-.703 1.631-.963 3.015-.913 4.849.031 1.133.132 1.792.434 2.839.951 3.297 3.388 5.997 6.432 7.128 1.041.387 1.946.564 3.093.606a9.085 9.085 0 0 0 3.652-.596c.502-.188.54-.195.667-.116.817.508 1.431.784 2.171.978.774.203 2.007.235 2.79.073a6.356 6.356 0 0 0 3.154-1.647c1.127-1.067 1.805-2.273 2.133-3.796.16-.741.175-2.229.03-2.946-.31-1.536-.986-2.809-2.06-3.881-.635-.634-1.425-1.19-2.147-1.512l-.451-.201-.227-.676a10.893 10.893 0 0 0-2.759-4.383c-1.697-1.639-3.722-2.594-5.985-2.823-.612-.062-.887-.062-1.723.003M5.493 12.731c-1.155.202-2.115.695-2.973 1.527-2.352 2.283-2.419 6.209-.148 8.662 1.126 1.216 2.76 1.907 4.284 1.812.244-.015.455-.039.469-.053.014-.014-.034-.202-.106-.419-.182-.545-.267-1.367-.229-2.207.036-.775.16-1.365.419-1.986.151-.363.161-.421.101-.569-.434-1.071-.705-2.074-.834-3.086-.133-1.047-.081-2.712.113-3.599.026-.118.018-.12-.468-.112a6.754 6.754 0 0 0-.628.03m2.298 8.151c-.261.697-.333 1.055-.362 1.811-.022.575-.007.858.062 1.226.281 1.487 1.171 2.795 2.402 3.527 1.878 1.116 4.207.823 5.733-.722l.347-.351-.293-.044a10.944 10.944 0 0 1-2.991-.943c-1.836-.917-3.41-2.414-4.46-4.242l-.325-.566-.113.304" fill="#2A2D32" fill-rule="evenodd"/></svg>