<svg width="827" height="764" viewBox="0 0 827 764" fill="none" xmlns="http://www.w3.org/2000/svg">
<g clip-path="url(#clip0_8_830)">
<path d="M525.1 185.42C523.23 182.34 521.28 179.32 519.24 176.37C492.14 137.08 447.03 110.19 403.19 98.01C383.98 92.67 364.26 89.87 344.58 89.16C215.46 84.53 168.03 189.57 126.43 216.66C84.83 243.74 20.99 290 29 387.18C35.08 461.07 77.68 531.72 155.48 563.87C164.05 567.42 173.05 570.51 182.48 573.06C200.02 577.82 219.03 580.81 239.51 581.71C298.33 584.3 346.1 570.3 392.82 535.07C403.68 526.88 414.48 517.64 428.58 516.63C438.82 515.89 448.54 519.53 437.83 529.29C425.24 540.77 439.77 563.35 471.71 547.66C525.07 521.46 547.02 464.92 557.36 407.44C570.05 336.88 563.9 249.13 525.11 185.41L525.1 185.42Z" fill="#D4CEF5"/>
<path opacity="0.7" d="M525.1 185.42C523.23 182.34 521.28 179.32 519.24 176.37C492.14 137.08 447.03 110.19 403.19 98.01C383.98 92.67 364.26 89.87 344.58 89.16C215.46 84.53 168.03 189.57 126.43 216.66C84.83 243.74 20.99 290 29 387.18C35.08 461.07 77.68 531.72 155.48 563.87C164.05 567.42 173.05 570.51 182.48 573.06C200.02 577.82 219.03 580.81 239.51 581.71C298.33 584.3 346.1 570.3 392.82 535.07C403.68 526.88 414.48 517.64 428.58 516.63C438.82 515.89 448.54 519.53 437.83 529.29C425.24 540.77 439.77 563.35 471.71 547.66C525.07 521.46 547.02 464.92 557.36 407.44C570.05 336.88 563.9 249.13 525.11 185.41L525.1 185.42Z" fill="#DA6AB4"/>
<path d="M265 635.82C260.23 635.82 255.29 635.71 250.32 635.49C228.83 634.54 208.21 631.38 189.04 626.1C179.27 623.41 169.71 620.11 160.61 616.3C84.96 584.62 35.67 514.54 28.71 428.83C25.12 384.67 34.89 347.52 58.58 315.24C78.59 287.98 105.26 268.45 131.1 251.4C147.95 240.28 163 223.45 180.42 203.95C221.37 158.12 272.33 101.09 365.52 101.09C368.37 101.09 371.29 101.14 374.2 101.25C396.15 102.06 417.25 105.28 436.91 110.82C487.4 125.04 532.69 155.78 558.06 193.06C560.08 196.03 562.11 199.21 564.09 202.5C608.81 276.95 611.27 379.39 598.66 450.42C586.17 520.8 563.07 565.66 526.49 589.97C525.96 586.77 525.12 584.12 524.38 582.23C517.92 565.73 501.2 555.88 479.65 555.88C477.85 555.88 476 555.95 474.17 556.08C448.65 557.94 430.12 572.27 416.59 582.74C415.43 583.64 414.28 584.53 413.12 585.41C367.51 620.27 321.83 635.81 265.01 635.81L265 635.82Z" fill="#201C2A"/>
<path d="M112.74 173.8L115.97 155.7C116.9 150.52 113.45 145.57 108.27 144.65C103.09 143.73 98.14 147.17 97.22 152.35L93.99 170.45C93.06 175.63 96.51 180.58 101.69 181.5C106.87 182.43 111.82 178.98 112.74 173.8Z" fill="#FFC800"/>
<path d="M332.01 177.99L329.38 159.8C328.63 154.59 323.8 150.98 318.59 151.73C313.38 152.48 309.77 157.31 310.52 162.52L313.15 180.71C313.9 185.92 318.73 189.53 323.94 188.78C329.15 188.03 332.76 183.2 332.01 177.99Z" fill="#FFC800"/>
<path d="M144.03 107.26L151.25 100.52C155.1 96.93 155.31 90.9 151.72 87.05C148.13 83.2 142.1 82.99 138.25 86.58L131.03 93.32C127.18 96.91 126.97 102.94 130.56 106.79C134.15 110.64 140.18 110.85 144.03 107.26Z" fill="#FFC800"/>
<path d="M154.14 257.4L147.4 250.18C143.81 246.33 137.78 246.12 133.93 249.71C130.08 253.3 129.87 259.33 133.46 263.18L140.2 270.4C143.79 274.25 149.82 274.46 153.67 270.87C157.52 267.28 157.73 261.25 154.14 257.4Z" fill="#FFC800"/>
<path d="M317.981 125.952L304.971 107.289C303.995 105.889 302.069 105.545 300.669 106.521L290.111 113.881C288.711 114.857 288.368 116.783 289.343 118.183L302.353 136.846C303.329 138.246 305.255 138.589 306.655 137.613L317.213 130.254C318.613 129.278 318.957 127.352 317.981 125.952Z" fill="#FFC800"/>
<path d="M250.61 291.11L259.9 287.75C264.85 285.96 267.41 280.5 265.62 275.55C263.83 270.6 258.37 268.04 253.42 269.83L244.13 273.19C239.18 274.98 236.62 280.44 238.41 285.39C240.2 290.34 245.66 292.9 250.61 291.11Z" fill="#FFC800"/>
<path d="M291.109 257.684C334.035 214.757 334.035 145.16 291.109 102.233C248.182 59.3069 178.585 59.3069 135.658 102.233C92.7318 145.16 92.7318 214.757 135.658 257.684C178.585 300.61 248.182 300.61 291.109 257.684Z" fill="#FFC800"/>
<path opacity="0.2" d="M202.94 96.76C206.19 100.75 207.92 106 208.14 111.33C208.4 116.69 206.95 122.11 204.37 126.82C201.68 131.56 197.23 135.67 191.91 137.18C186.69 138.81 181.13 138.46 176.42 136.46C181.51 136.49 186.4 135.66 190.57 133.69C192.65 132.7 194.54 131.44 196.11 129.84C197.79 128.36 199.04 126.44 200.19 124.49C200.74 123.48 201.28 122.43 201.76 121.37C202.16 120.28 202.66 119.22 202.96 118.1C203.78 115.9 204.09 113.58 204.41 111.25C204.87 106.55 204.41 101.65 202.94 96.77V96.76Z" fill="black"/>
<path opacity="0.2" d="M174.14 124.54C171.64 121.97 170.26 118.33 170.01 114.61C169.74 110.87 170.66 107 172.5 103.71C174.36 100.33 177.66 97.45 181.43 96.47C185.15 95.42 189.04 95.85 192.19 97.52C188.67 97.81 185.45 98.57 182.78 99.97C180.08 101.34 178.17 103.51 176.69 106.05C173.67 111.4 172.72 117.63 174.14 124.54Z" fill="black"/>
<path opacity="0.2" d="M213.87 245.79C215.26 247.93 215.7 250.68 215.31 253.32C214.9 255.97 213.65 258.55 211.77 260.5C209.88 262.55 207.05 263.88 204.29 263.88C201.55 263.92 198.95 262.98 197.04 261.31C199.54 261.64 201.89 261.64 203.98 261.16C206.08 260.68 207.78 259.58 209.22 258.09C210.71 256.54 211.87 254.71 212.67 252.66C213.44 250.6 213.86 248.31 213.88 245.79H213.87Z" fill="black"/>
<path opacity="0.2" d="M198.9 257.48C197.72 256.08 197.3 254.14 197.49 252.24C197.71 250.34 198.59 248.47 199.93 247.08C201.29 245.6 203.39 244.64 205.38 244.72C207.35 244.78 209.15 245.56 210.37 246.92C208.58 246.92 207.02 247.05 205.7 247.47C204.38 247.88 203.39 248.57 202.49 249.5C200.6 251.51 199.39 253.95 198.91 257.49L198.9 257.48Z" fill="black"/>
<path opacity="0.2" d="M146.4 217.08C148.96 217.38 151.34 218.85 153.01 221.08C154.68 223.34 155.41 226.34 154.9 229.23C154.47 232.28 152.26 234.86 149.87 236.09C147.46 237.37 144.83 237.81 142.31 237.33C144.38 235.86 146.24 234.54 147.65 233.04C149.07 231.56 149.92 230.06 150.17 228.41C150.48 226.65 150.35 224.76 149.72 222.9C149.1 221 147.93 219.1 146.4 217.08Z" fill="black"/>
<path opacity="0.2" d="M141.33 233.62C139.43 233.69 137.61 232.76 136.31 231.19C135.01 229.59 134.42 227.37 134.8 225.22C135.13 222.92 136.85 220.99 138.62 220.19C140.42 219.35 142.33 219.2 144.12 219.83C142.79 221.14 141.64 222.18 140.84 223.24C140.02 224.29 139.67 225.13 139.52 226.04C139.34 227.06 139.33 228.17 139.6 229.37C139.85 230.61 140.45 231.98 141.33 233.62Z" fill="black"/>
<path opacity="0.2" d="M270.45 106.4C272.16 108.32 272.97 111.01 272.73 113.78C272.47 116.57 271.03 119.31 268.73 121.13C266.38 123.12 263.01 123.58 260.41 122.92C257.76 122.28 255.51 120.86 253.94 118.82C256.46 119.09 258.73 119.35 260.78 119.16C262.83 119 264.45 118.44 265.74 117.37C267.14 116.26 268.3 114.76 269.06 112.95C269.86 111.12 270.25 108.92 270.45 106.4Z" fill="black"/>
<path opacity="0.2" d="M255.67 115.4C254.2 114.19 253.46 112.28 253.53 110.25C253.62 108.19 254.65 106.13 256.36 104.78C258.13 103.28 260.7 102.98 262.56 103.56C264.46 104.13 265.99 105.28 266.91 106.95C265.04 107.05 263.49 107.06 262.2 107.32C260.89 107.56 260.07 107.95 259.36 108.54C258.55 109.18 257.81 110.01 257.21 111.08C256.57 112.18 256.12 113.59 255.68 115.41L255.67 115.4Z" fill="black"/>
<path d="M243.49 200.75C256.63 198.23 265.23 185.49 262.7 172.27C260.17 159.06 247.47 150.39 234.33 152.91C221.19 155.43 212.59 168.17 215.12 181.39C217.65 194.6 230.35 203.27 243.49 200.75Z" fill="#FFC800"/>
<path opacity="0.1" d="M243.49 200.75C256.63 198.23 265.23 185.49 262.7 172.27C260.17 159.06 247.47 150.39 234.33 152.91C221.19 155.43 212.59 168.17 215.12 181.39C217.65 194.6 230.35 203.27 243.49 200.75Z" fill="black"/>
<path opacity="0.2" d="M241.71 160.92C248.87 159.55 255.89 161.83 260.85 166.48C256.24 156.65 245.45 150.77 234.33 152.9C221.2 155.41 212.59 168.17 215.12 181.38C216.94 190.91 224.05 198.08 232.81 200.37C228.5 197.2 225.35 192.46 224.26 186.76C221.97 174.79 229.78 163.21 241.71 160.92Z" fill="black"/>
<path opacity="0.2" d="M268.81 160.97C272.62 166 274.6 172.44 274.79 178.94C275.02 185.47 273.23 192.07 270.09 197.8C266.82 203.56 261.48 208.54 255.04 210.45C248.72 212.5 241.94 212.21 236.07 209.97C242.31 210.24 248.42 209.35 253.69 206.96C255.02 206.39 256.22 205.61 257.45 204.89C258.57 204.01 259.78 203.27 260.73 202.19C262.86 200.33 264.44 197.91 265.9 195.46C266.59 194.19 267.25 192.87 267.86 191.55C268.36 190.18 268.98 188.85 269.35 187.44C270.34 184.68 270.73 181.77 271.07 178.85C271.55 172.98 270.84 166.89 268.82 160.97H268.81Z" fill="black"/>
<path d="M295.92 153.35C300.55 151.49 302.79 146.21 300.93 141.55C299.06 136.89 293.79 134.62 289.16 136.48C284.53 138.34 282.29 143.62 284.15 148.28C286.02 152.94 291.29 155.21 295.92 153.35Z" fill="#FFC800"/>
<path opacity="0.1" d="M295.92 153.35C300.55 151.49 302.79 146.21 300.93 141.55C299.06 136.89 293.79 134.62 289.16 136.48C284.53 138.34 282.29 143.62 284.15 148.28C286.02 152.94 291.29 155.21 295.92 153.35Z" fill="black"/>
<path opacity="0.2" d="M292.43 138.89C294.95 137.88 297.69 138.21 299.84 139.56C297.45 136.29 293.08 134.9 289.16 136.48C284.53 138.34 282.29 143.62 284.15 148.28C285.5 151.64 288.61 153.76 291.98 153.97C290.18 153.11 288.69 151.6 287.88 149.6C286.19 145.38 288.22 140.58 292.43 138.9V138.89Z" fill="black"/>
<path opacity="0.2" d="M302.36 136.98C304.21 138.47 305.48 140.7 306.06 143.1C306.66 145.51 306.49 148.11 305.74 150.48C304.93 152.88 303.26 155.15 300.97 156.29C298.73 157.48 296.17 157.79 293.86 157.26C296.16 156.79 298.28 155.96 299.97 154.7C301.67 153.45 302.81 151.7 303.46 149.73C304.82 145.67 304.48 141.19 302.36 136.98Z" fill="black"/>
<path d="M278.41 237.26C284.44 233.52 286.27 225.58 282.52 219.52C278.76 213.46 270.83 211.58 264.8 215.32C258.77 219.06 256.94 227 260.69 233.06C264.45 239.12 272.38 241 278.41 237.26Z" fill="#FFC800"/>
<path opacity="0.1" d="M278.41 237.26C284.44 233.52 286.27 225.58 282.52 219.52C278.76 213.46 270.83 211.58 264.8 215.32C258.77 219.06 256.94 227 260.69 233.06C264.45 239.12 272.38 241 278.41 237.26Z" fill="black"/>
<path opacity="0.2" d="M269.97 217.89C273.25 215.85 277.16 215.65 280.5 217.01C276.35 213.02 269.9 212.15 264.79 215.32C258.77 219.06 256.93 227 260.68 233.06C263.39 237.43 268.27 239.63 273.04 239.11C270.31 238.36 267.85 236.61 266.23 233.99C262.82 228.5 264.49 221.28 269.97 217.89Z" fill="black"/>
<path opacity="0.2" d="M283.39 212.77C286.18 214.58 288.41 217.36 289.71 220.55C291.05 223.74 291.41 227.32 290.94 230.75C290.42 234.21 288.73 237.67 285.93 239.84C283.21 242.07 279.8 243.18 276.49 243.24C279.64 242.25 282.5 240.61 284.68 238.45C286.88 236.28 288.13 233.43 288.57 230.41C289.03 227.34 288.82 224.18 287.95 221.18C287.05 218.19 285.56 215.28 283.39 212.77Z" fill="black"/>
<path d="M158.94 168.25C159.24 178.17 150.39 186.48 139.18 186.82C127.97 187.15 118.65 179.38 118.35 169.46C118.05 159.54 126.9 151.23 138.11 150.89C149.32 150.56 158.64 158.33 158.94 168.25Z" fill="#FFC800"/>
<path opacity="0.1" d="M158.94 168.25C159.24 178.17 150.39 186.48 139.18 186.82C127.97 187.15 118.65 179.38 118.35 169.46C118.05 159.54 126.9 151.23 138.11 150.89C149.32 150.56 158.64 158.33 158.94 168.25Z" fill="black"/>
<path opacity="0.2" d="M126.19 173.49C126.35 178.89 129.46 183.6 134.13 186.43C125.3 184.7 118.59 177.86 118.34 169.46C118.04 159.54 126.9 151.23 138.1 150.89C146.18 150.65 153.29 154.62 156.72 160.58C153.37 157.98 148.95 156.48 144.11 156.63C133.95 156.93 125.92 164.49 126.19 173.49Z" fill="black"/>
<path opacity="0.2" d="M156.52 153.21C161.09 155.03 165.04 158.81 167.08 163.71C168.17 166.14 168.5 168.88 168.45 171.53C168.42 174.21 167.68 176.76 166.72 179.32C165.49 181.73 163.95 184 161.97 185.77C159.97 187.48 157.84 189.02 155.49 190.01C150.87 192.14 145.88 193.15 140.97 192.95C145.58 191.31 149.95 189.41 153.82 186.94C157.68 184.48 160.89 181.32 162.65 177.48C163.44 175.56 164.11 173.43 164.24 171.27C164.49 169.13 164.34 166.95 163.8 164.84C162.68 160.61 160.08 156.58 156.55 153.22L156.52 153.21Z" fill="black"/>
<path d="M544.62 583.84C536.94 586.32 528.8 587.83 520.37 588.27C499.48 589.37 480.99 582.6 466.89 568.71C450.39 552.45 443.43 530.33 443.95 516.66L448.21 516.82C447.71 529.99 455 551 469.89 565.67C483.12 578.7 500.5 585.05 520.16 584.01C548.38 582.53 573.09 568.57 587.96 545.71C604.47 520.32 606.46 487.76 593.56 454.01C580.67 420.29 551.43 383.93 520.47 345.45C490.61 308.32 459.72 269.92 444.01 233.26C427.67 195.15 427.12 156.62 442.4 121.83C461.14 79.2 503.31 44.53 561.15 24.21L562.56 28.23C505.84 48.15 464.55 82 446.3 123.54C431.5 157.21 432.06 194.57 447.92 231.57C463.41 267.7 494.1 305.86 523.79 342.77C554.96 381.53 584.41 418.13 597.54 452.48C610.94 487.53 608.8 521.47 591.53 548.03C580.36 565.2 563.92 577.6 544.63 583.83L544.62 583.84Z" fill="#C8C8C8"/>
<path d="M396.73 327.47V264.73H313.63V227.53L386.08 72.11H441.37V230.05H469.87V264.73H441.37V327.47H396.73ZM353.46 230.06H396.73V119.09L353.46 230.06ZM567.39 331.26C551.13 331.26 537.69 328.11 527.04 321.8C516.4 315.5 508.38 306.78 503 295.63C497.62 284.49 494.93 271.67 494.93 257.17V143.99C494.93 129.07 497.51 115.99 502.66 104.74C507.81 93.5 515.71 84.72 526.35 78.42C536.99 72.12 550.67 68.96 567.38 68.96C584.09 68.96 597.77 72.11 608.42 78.42C619.07 84.73 626.96 93.5 632.11 104.74C637.26 115.98 639.84 129.07 639.84 143.99V257.17C639.84 271.67 637.15 284.49 631.77 295.63C626.39 306.77 618.38 315.49 607.73 321.8C597.08 328.11 583.63 331.26 567.38 331.26H567.39ZM567.39 293.75C574.48 293.75 579.75 291.76 583.19 287.76C586.62 283.77 588.91 278.93 590.06 273.26C591.2 267.59 591.78 262.02 591.78 256.55V144.64C591.78 138.76 591.26 132.93 590.23 127.14C589.2 121.36 586.97 116.47 583.53 112.48C580.1 108.49 574.72 106.49 567.39 106.49C560.06 106.49 554.69 108.49 551.25 112.48C547.82 116.47 545.58 121.36 544.55 127.14C543.52 132.92 543 138.75 543 144.64V256.55C543 262.02 543.63 267.58 544.89 273.26C546.14 278.93 548.5 283.77 551.93 287.76C555.36 291.76 560.51 293.75 567.38 293.75H567.39ZM753.16 327.48V264.74H670.06V227.54L742.52 72.12H797.8V230.06H826.3V264.74H797.8V327.48H753.16ZM709.89 230.07H753.16V119.1L709.89 230.07Z" fill="#6946E8"/>
<path d="M432.73 362.22C434.3 351.15 436.93 337.46 432.13 325.79C431.19 323.5 429.5 322.66 429.5 322.66C427.44 317.39 424.33 316.78 424.33 316.78C420.91 312.46 417.64 312.28 417.64 312.28C417.64 312.28 415.15 306.12 411.18 307.01C406.72 307.99 411.09 316.45 410.65 322.56C409.64 336.58 404.28 356.22 403.58 360.24L432.73 362.22Z" fill="#A8A8A8"/>
<path d="M399.72 503.4C399.62 504.5 440.93 548.05 443.54 549.5C443.64 549.56 443.77 549.61 443.94 549.66C447.6 551.01 469.57 552.37 471.31 552.38C475.6 552.41 495.11 479.96 494.66 468.39C494.55 465.49 468.35 439.04 461.51 436.44C458.58 435.33 448.8 435.23 447.8 435.95C446.41 437.07 399.83 502.29 399.72 503.41V503.4Z" fill="#6946E1"/>
<path opacity="0.1" d="M399.72 503.4C399.62 504.5 440.93 548.05 443.54 549.5C443.64 549.56 443.77 549.61 443.94 549.66C447.6 551.01 469.57 552.37 471.31 552.38C475.6 552.41 495.11 479.96 494.66 468.39C494.55 465.49 468.35 439.04 461.51 436.44C458.58 435.33 448.8 435.23 447.8 435.95C446.41 437.07 399.83 502.29 399.72 503.41V503.4Z" fill="#6946E1"/>
<path opacity="0.1" d="M399.72 503.4C399.62 504.5 440.93 548.05 443.54 549.5C443.64 549.56 443.77 549.61 443.94 549.66C450.37 535.28 480.51 467.77 480.28 466.92C480.05 466.09 454.34 441.47 447.8 435.96C446.41 437.07 399.83 502.29 399.72 503.4Z" fill="black"/>
<path d="M246.01 506.69C246.01 506.69 200.3 528.79 200.27 528.81C191.55 533.08 183.83 536.67 179.66 538.16C179.64 538.17 179.62 538.18 179.59 538.18C178.02 538.74 176.97 539 176.58 538.86C176.55 538.86 176.52 538.86 176.5 538.84C173.47 537.11 137.29 468.42 136.83 465.6C136.36 462.78 144.38 461.26 147.91 462.81C151.45 464.38 177.06 484.47 177.06 484.47L222.96 462.81L246 506.7L246.01 506.69Z" fill="#6946E1"/>
<path d="M169.99 542.5L168.06 538.98C168.43 538.75 168.77 538.45 169.05 538.08C170.36 536.37 170.04 533.9 168.32 532.59C167.13 531.68 165.58 531.55 164.3 532.13L162.55 528.94C162.93 528.7 163.29 528.39 163.57 528.01C164.89 526.29 164.56 523.84 162.84 522.52C161.64 521.6 160.07 521.49 158.79 522.09L157.03 518.89C157.43 518.65 157.8 518.33 158.1 517.94C159.42 516.22 159.09 513.76 157.37 512.45C156.15 511.51 154.57 511.4 153.28 512.05L151.53 508.86C151.94 508.61 152.32 508.28 152.63 507.87C153.94 506.16 153.62 503.7 151.9 502.38C150.68 501.44 149.05 501.34 147.76 502L146.01 498.81C146.45 498.56 146.83 498.23 147.16 497.81C148.47 496.1 148.15 493.63 146.43 492.32C145.18 491.36 143.54 491.28 142.24 491.95L140.49 488.76C140.95 488.51 141.35 488.17 141.68 487.74C143 486.02 142.67 483.56 140.95 482.25C139.69 481.29 138.04 481.2 136.72 481.89L134.97 478.7C135.45 478.45 135.86 478.1 136.2 477.66C137.51 475.95 137.19 473.49 135.47 472.17C134.2 471.2 132.52 471.12 131.2 471.85L129.55 468.84L136.83 465.6L176.58 538.87L169.99 542.51V542.5Z" fill="#2B454E"/>
<path d="M191.4 530.75C189.66 526.2 185.65 522.74 181.94 521.45C178.37 520.21 173.91 519.76 170.06 521.57C169.95 521.62 170.04 521.83 170.16 521.8C178 519.7 187.37 523.62 191.17 530.85C191.25 531 191.47 530.9 191.41 530.75H191.4Z" fill="#2B454E"/>
<path d="M199.81 525.48C197.76 520.26 195.28 515.21 192.77 510.2C190.28 505.24 187.76 500.3 185.21 495.38C183.75 492.56 182.28 489.73 180.67 487C180.56 486.82 180.3 486.96 180.38 487.15C182.5 492.34 185.01 497.37 187.43 502.42C189.82 507.43 192.26 512.41 194.78 517.35C196.23 520.19 197.74 522.97 199.4 525.69C199.56 525.95 199.93 525.75 199.82 525.47L199.81 525.48Z" fill="#2B454E"/>
<path d="M203.47 523.02C201.42 517.8 198.94 512.75 196.43 507.74C193.94 502.78 191.42 497.84 188.87 492.92C187.41 490.1 185.94 487.27 184.33 484.54C184.22 484.36 183.96 484.5 184.04 484.69C186.16 489.88 188.67 494.91 191.09 499.96C193.48 504.97 195.92 509.95 198.44 514.89C199.89 517.73 201.4 520.51 203.06 523.23C203.22 523.49 203.59 523.29 203.48 523.01L203.47 523.02Z" fill="#2B454E"/>
<path d="M213.9 522.22L193.24 476.83C193.24 476.83 196.3 470.33 204.83 465.85C223.67 455.94 259.82 442.89 282.31 439.75C301.29 437.1 375.61 472.17 386.89 476.36C391 477.89 397.12 470.77 397.12 470.77L440.28 515.51C440.28 515.51 424.22 535.86 400.09 530.51C370.39 523.93 302.42 488.86 291.6 490.04C281.83 491.11 245.56 512.91 226.55 521.73C219.91 524.81 213.9 522.22 213.9 522.22Z" fill="#8666FF"/>
<path d="M219.46 515.83C217.62 510.53 215.34 505.39 213.02 500.29C210.73 495.24 208.4 490.2 206.05 485.18C204.7 482.31 203.34 479.42 201.84 476.63C201.74 476.44 201.47 476.58 201.54 476.77C203.46 482.03 205.77 487.16 207.99 492.31C210.19 497.41 212.42 502.49 214.75 507.52C216.09 510.41 217.49 513.25 219.04 516.04C219.19 516.31 219.57 516.12 219.47 515.84L219.46 515.83Z" fill="#1A2E35"/>
<path opacity="0.1" d="M289.69 458.66C288.62 459.59 288.01 460.91 287.46 462.2C286.99 463.52 286.6 464.89 286.42 466.27C286.02 469.04 286.05 471.84 286.39 474.57C286.56 475.94 286.82 477.29 287.1 478.63C287.45 479.95 287.76 481.28 288.21 482.58C288.66 483.87 289.14 485.15 289.69 486.39C290.29 487.62 290.88 488.85 291.6 490.03C291.56 488.64 291.38 487.3 291.22 485.96C291.03 484.63 290.91 483.29 290.69 481.99C290.5 480.68 290.34 479.37 290.12 478.07L289.87 476.12C289.79 475.47 289.66 474.83 289.61 474.18C289.28 471.59 289.05 469.02 288.96 466.44C288.91 463.86 288.88 461.26 289.7 458.66H289.69Z" fill="#6946E1"/>
<path d="M308.269 452.616C309.785 445.53 302.918 438.055 292.932 435.92C282.946 433.784 273.622 437.797 272.107 444.883C270.592 451.969 277.459 459.444 287.445 461.579C297.431 463.715 306.754 459.702 308.269 452.616Z" fill="#6946E1"/>
<path opacity="0.1" d="M308.269 452.616C309.785 445.53 302.918 438.055 292.932 435.92C282.946 433.784 273.622 437.797 272.107 444.883C270.592 451.969 277.459 459.444 287.445 461.579C297.431 463.715 306.754 459.702 308.269 452.616Z" fill="#6946E1"/>
<path opacity="0.1" d="M440.27 515.5C440.27 515.5 424.22 535.86 400.09 530.51C370.39 523.92 302.41 488.85 291.59 490.05C281.82 491.12 245.55 512.92 226.54 521.74C219.91 524.81 213.9 522.23 213.9 522.23L194.95 480.6L417.86 492.29L440.27 515.52V515.5Z" fill="black"/>
<path d="M336.94 543.19C336.94 543.19 362.52 587.05 362.54 587.08C367.48 595.44 371.66 602.86 373.46 606.9C373.47 606.92 373.49 606.94 373.49 606.97C374.17 608.49 374.51 609.52 374.4 609.92C374.4 609.95 374.4 609.98 374.38 610C372.89 613.16 307.21 654.56 304.44 655.23C301.66 655.92 299.53 648.04 300.79 644.4C302.08 640.75 320.12 613.66 320.12 613.66L294.96 569.58L336.93 543.2L336.94 543.19Z" fill="#6946E1"/>
<path d="M378.54 616.21L375.18 618.4C374.92 618.05 374.59 617.74 374.21 617.48C372.4 616.3 369.97 616.82 368.79 618.63C367.97 619.89 367.97 621.44 368.64 622.68L365.59 624.68C365.33 624.31 364.98 623.99 364.58 623.73C362.76 622.55 360.34 623.06 359.16 624.88C358.34 626.15 358.34 627.72 359.05 628.95L356 630.96C355.73 630.58 355.39 630.24 354.97 629.97C353.15 628.79 350.73 629.31 349.55 631.12C348.71 632.41 348.73 633.99 349.46 635.23L346.41 637.23C346.12 636.84 345.77 636.49 345.34 636.21C343.53 635.03 341.1 635.54 339.92 637.36C339.08 638.65 339.1 640.28 339.86 641.51L336.81 643.51C336.53 643.09 336.17 642.73 335.73 642.45C333.92 641.27 331.49 641.79 330.31 643.6C329.45 644.92 329.5 646.56 330.27 647.81L327.23 649.8C326.95 649.36 326.57 648.99 326.12 648.69C324.3 647.51 321.88 648.03 320.7 649.84C319.84 651.17 319.88 652.82 320.67 654.08L317.62 656.08C317.34 655.63 316.96 655.24 316.49 654.93C314.68 653.75 312.25 654.26 311.07 656.08C310.2 657.42 310.25 659.1 311.08 660.36L308.21 662.24L304.41 655.23L374.38 609.92L378.52 616.21H378.54Z" fill="#2B454E"/>
<path d="M365.16 595.77C360.76 597.86 357.62 602.12 356.62 605.93C355.66 609.58 355.55 614.07 357.66 617.77C357.72 617.88 357.92 617.77 357.88 617.65C355.18 609.99 358.36 600.35 365.27 596C365.41 595.91 365.3 595.7 365.15 595.77H365.16Z" fill="#2B454E"/>
<path d="M359.25 587.8C354.2 590.25 349.36 593.11 344.57 596.01C339.82 598.88 335.09 601.77 330.38 604.7C327.68 606.37 324.98 608.06 322.38 609.88C322.21 610 322.37 610.25 322.55 610.16C327.56 607.64 332.38 604.75 337.23 601.95C342.04 599.17 346.82 596.36 351.55 593.46C354.27 591.79 356.92 590.07 359.51 588.21C359.76 588.03 359.53 587.68 359.26 587.81L359.25 587.8Z" fill="#2B454E"/>
<path d="M356.51 584.33C351.46 586.78 346.62 589.64 341.83 592.54C337.08 595.41 332.35 598.3 327.64 601.23C324.94 602.9 322.24 604.59 319.64 606.41C319.47 606.53 319.63 606.78 319.81 606.69C324.81 604.17 329.64 601.28 334.49 598.48C339.3 595.71 344.08 592.89 348.81 589.99C351.53 588.32 354.18 586.6 356.77 584.74C357.02 584.56 356.79 584.21 356.52 584.34L356.51 584.33Z" fill="#2B454E"/>
<path d="M401.71 475.54C401.71 475.54 383.23 487.59 381.84 488.5C381.09 488.99 382.54 495.58 382.54 495.58C382.54 495.58 315.72 482.46 292.34 489.39C284.33 491.76 270.29 510.75 273.33 523.63C278.27 544.52 289.64 572.33 298.89 587.79C303.02 594.69 310.23 599.51 310.23 599.51L355.72 574.85C355.72 574.85 353.37 564.64 350.62 559.47C346.47 551.64 334.9 534.57 334.9 534.57C351.29 532.16 400.2 539.53 400.2 539.53C400.2 539.53 428.67 549.9 446.46 521.45L401.7 475.55L401.71 475.54Z" fill="#8666FF"/>
<path d="M381.49 486.86C382.64 491.82 383.2 497.01 383.57 502.08C383.58 502.28 383.33 502.33 383.3 502.12C382.47 497.08 381.54 492.01 380.96 486.94C380.91 486.54 381.41 486.47 381.5 486.86H381.49Z" fill="#1A2E35"/>
<path d="M400.9 472.95C401 472.89 401.14 473.07 401.03 473.15C397.69 475.54 394.91 477.91 391.99 480.5C390.64 481.7 383.45 488.84 385.72 491.33C386.1 491.75 386.66 491.69 387.33 491.31C388.14 490.85 388.88 489.84 389.55 489.15C391.03 487.61 392.55 486.14 394.14 484.75C397.1 482.15 400.24 479.85 403.63 478.01C403.74 477.95 403.83 478.13 403.73 478.2C399.37 481.36 395.1 484.65 391.23 488.55C389.37 490.42 386.95 493.9 385.17 491.62C383.35 489.29 387.61 483.83 388.86 482.48C392.34 478.7 396.63 475.54 400.88 472.97L400.9 472.95Z" fill="#1A2E35"/>
<path d="M385.37 491.05C384.9 491.85 384.36 492.6 383.8 493.32C383.36 493.88 382.92 494.53 382.32 494.86C382.2 494.93 382.1 494.77 382.13 494.65C382.35 493.9 382.87 493.27 383.28 492.65C383.75 491.92 384.21 491.19 384.7 490.48C385.03 490.01 385.66 490.56 385.37 491.05Z" fill="#1A2E35"/>
<path d="M311.02 590.25C316.03 587.93 320.83 585.2 325.6 582.42C330.32 579.68 335.02 576.9 339.7 574.1C342.38 572.5 345.07 570.88 347.65 569.13C347.82 569.01 347.66 568.76 347.48 568.85C342.51 571.24 337.72 574.01 332.9 576.68C328.13 579.33 323.38 582.02 318.68 584.79C315.98 586.38 313.34 588.04 310.77 589.83C310.52 590 310.75 590.36 311.01 590.24L311.02 590.25Z" fill="#1A2E35"/>
<path opacity="0.1" d="M297.98 509.09C298.27 511.04 299.46 512.75 300.62 514.3C301.22 515.09 301.88 515.79 302.53 516.53C303.21 517.23 303.91 517.91 304.62 518.57C307.47 521.23 310.66 523.41 313.91 525.46C317.19 527.45 320.58 529.24 324.09 530.75C327.58 532.3 331.18 533.6 334.91 534.56C331.83 532.21 328.62 530.21 325.42 528.2C322.22 526.19 319.02 524.25 315.82 522.31C312.65 520.34 309.46 518.41 306.39 516.33C304.87 515.27 303.34 514.22 301.9 513.05C300.45 511.89 299.01 510.7 297.98 509.09Z" fill="#6946E1"/>
<path d="M303.19 490.48C298.17 485.26 288.13 486.77 280.77 493.85C273.41 500.93 271.52 510.9 276.55 516.12C281.57 521.34 291.61 519.83 298.97 512.75C306.33 505.67 308.22 495.7 303.19 490.48Z" fill="#6946E1"/>
<path opacity="0.1" d="M303.19 490.48C298.17 485.26 288.13 486.77 280.77 493.85C273.41 500.93 271.52 510.9 276.55 516.12C281.57 521.34 291.61 519.83 298.97 512.75C306.33 505.67 308.22 495.7 303.19 490.48Z" fill="#6946E1"/>
<path d="M450.18 455.38C424.78 436.21 408.42 418.45 405.91 409.04C403.71 400.8 400.17 375.62 403.58 360.25C404.61 355.62 431.78 357.25 432.73 362.23C433.7 367.3 434.58 394.5 435.93 400.96C436.69 404.62 455.44 438.26 459.85 445.82C467.21 458.44 461.46 463.89 450.18 455.39V455.38Z" fill="#FFABA1"/>
<path d="M408.35 339.38C407.49 341.15 406.56 340.72 405.8 337.3C405.03 333.84 404.96 319.72 400.02 320.16C395.06 320.6 395.48 340.59 397.18 346.19C398.86 351.79 403.57 360.24 403.57 360.24C404.27 356.33 406.88 347.02 408.35 339.38Z" fill="#A8A8A8"/>
<path d="M419.91 338.01C420.13 333.88 420.45 329.83 420.1 325.69C419.72 321.15 418.6 316.84 417.56 312.43C417.53 312.29 417.72 312.23 417.77 312.36C420.91 320.05 421.65 329.88 420.1 338.02C420.06 338.22 419.9 338.22 419.91 338.01Z" fill="#1A2E35"/>
<path d="M428.28 339.85C428.27 335.82 428.2 328.73 424.19 316.83C424.18 316.79 424.24 316.76 424.26 316.8C427.89 324.18 429.13 331.72 428.47 339.85C428.45 340.1 428.28 340.12 428.28 339.85Z" fill="#1A2E35"/>
<path d="M432.8 340.75C432.52 333.9 431.47 329.61 429.47 322.7C429.46 322.66 429.52 322.63 429.54 322.67C432.64 330.29 432.9 333.4 433.03 340.77C433.03 341.02 432.8 341.01 432.79 340.75H432.8Z" fill="#1A2E35"/>
<path d="M432.73 362.22L403.58 360.24C403.58 360.24 400.09 363.35 398.88 368.7C397.68 374.05 402.74 406.93 407.55 415.13C412.36 423.34 439.66 450.25 452.33 458.14C465 466.03 466.29 456.9 461.79 448.22C457.3 439.54 438.11 403.42 437.39 401.11C436.67 398.8 437.06 375.91 436.75 371.31C436.44 366.7 432.72 362.21 432.72 362.21L432.73 362.22Z" fill="#8666FF"/>
<path opacity="0.1" d="M452.33 458.15C442.73 452.17 424.7 435.23 414.44 423.82L449.1 424.06C454.28 433.93 459.68 444.13 461.8 448.23C466.29 456.92 465 466.04 452.33 458.15Z" fill="#8666FF"/>
<path opacity="0.1" d="M433.63 369.08C429.54 368.6 425.42 368.33 421.31 368.09C417.24 367.85 413.17 367.63 409.1 367.42C406.77 367.3 404.43 367.19 402.1 367.15C401.95 367.15 401.94 367.29 402.1 367.3C406.19 367.74 410.32 367.99 414.42 368.28C418.49 368.57 422.56 368.84 426.63 369.06C428.97 369.19 431.29 369.28 433.63 369.29C433.85 369.29 433.85 369.1 433.63 369.07V369.08Z" fill="#8666FF"/>
<path d="M396.21 473.95L446.31 520.4C446.31 520.4 451.19 520.3 455.38 515.55C464.91 504.76 478.93 481.61 481.3 464.05C483.01 451.4 475.99 444.03 466.81 443.24C464.49 443.04 435.12 443.18 425.85 447.14C416.05 451.33 405.02 460.12 399.5 466.66C396.79 469.88 396.2 473.95 396.2 473.95H396.21Z" fill="#8666FF"/>
<path d="M392.91 475.45C392.52 474.65 396.37 470.73 397.11 470.76C397.86 470.78 449.57 519.14 449.78 519.55C449.99 519.95 445.2 524.56 444.63 524.17C444.06 523.78 393.42 476.52 392.91 475.45Z" fill="#6946E1"/>
<path opacity="0.1" d="M392.91 475.45C392.52 474.65 396.37 470.73 397.11 470.76C397.86 470.78 449.57 519.14 449.78 519.55C449.99 519.95 445.2 524.56 444.63 524.17C444.06 523.78 393.42 476.52 392.91 475.45Z" fill="#6946E1"/>
<path d="M434.33 475.2L419.57 448.59L444.6 440.19L459.35 466.8L434.33 475.2Z" fill="#6946E1"/>
<path opacity="0.1" d="M434.33 475.2L432.46 471.83L457.49 463.43L459.35 466.8L434.33 475.2Z" fill="black"/>
<path opacity="0.1" d="M441.28 446.71C440.39 447.01 439.33 446.64 438.91 445.89C438.49 445.14 438.88 444.28 439.77 443.99C440.66 443.69 441.72 444.06 442.14 444.81C442.56 445.56 442.17 446.42 441.28 446.71Z" fill="black"/>
<path opacity="0.1" d="M435.99 448.49C435.1 448.79 434.04 448.42 433.62 447.67C433.2 446.92 433.59 446.06 434.48 445.77C435.37 445.48 436.43 445.84 436.85 446.59C437.27 447.34 436.88 448.2 435.99 448.49Z" fill="black"/>
<path opacity="0.1" d="M430.69 450.27C429.8 450.57 428.74 450.2 428.32 449.45C427.9 448.7 428.29 447.84 429.18 447.55C430.07 447.25 431.13 447.62 431.55 448.37C431.97 449.12 431.58 449.98 430.69 450.27Z" fill="black"/>
<path opacity="0.1" d="M443.64 450.95C442.75 451.25 441.69 450.88 441.27 450.13C440.85 449.38 441.24 448.52 442.13 448.23C443.02 447.93 444.08 448.3 444.5 449.05C444.92 449.8 444.53 450.66 443.64 450.95Z" fill="black"/>
<path opacity="0.1" d="M438.34 452.73C437.45 453.03 436.39 452.66 435.97 451.91C435.55 451.16 435.94 450.3 436.83 450.01C437.72 449.71 438.78 450.08 439.2 450.83C439.62 451.58 439.23 452.44 438.34 452.73Z" fill="black"/>
<path opacity="0.1" d="M433.04 454.51C432.15 454.81 431.09 454.44 430.67 453.69C430.25 452.94 430.64 452.08 431.53 451.79C432.42 451.49 433.48 451.86 433.9 452.61C434.32 453.36 433.93 454.22 433.04 454.51Z" fill="black"/>
<path opacity="0.1" d="M445.99 455.19C445.1 455.49 444.04 455.12 443.62 454.37C443.2 453.62 443.59 452.76 444.48 452.47C445.37 452.17 446.43 452.54 446.85 453.29C447.27 454.04 446.88 454.9 445.99 455.19Z" fill="black"/>
<path opacity="0.1" d="M440.69 456.97C439.8 457.27 438.74 456.9 438.32 456.15C437.9 455.4 438.29 454.54 439.18 454.25C440.07 453.95 441.13 454.32 441.55 455.07C441.97 455.82 441.58 456.68 440.69 456.97Z" fill="black"/>
<path opacity="0.1" d="M435.4 458.75C434.51 459.05 433.45 458.68 433.03 457.93C432.61 457.18 433 456.32 433.89 456.03C434.78 455.73 435.84 456.1 436.26 456.85C436.68 457.6 436.29 458.46 435.4 458.75Z" fill="black"/>
<path d="M457.94 452.44C460.83 455.85 470.78 454.94 476.35 452.36C476.73 452.18 478.59 448.72 481.04 444.61C482.54 442.12 484.27 439.39 486.03 437.01C486.39 436.52 468.43 429.61 468.43 429.61C468.43 429.61 466.21 435.68 463.12 439.81C462.86 440.15 462.59 440.45 462.3 440.71C462.26 440.75 462.21 440.8 462.16 440.86C460.49 442.49 455.15 449.14 457.94 452.44Z" fill="#FFABA1"/>
<path d="M485.07 436.41C481.41 439.92 471.72 447.79 463.63 442.09C463.07 441.69 462.58 441.29 462.16 440.88C462.21 440.81 462.26 440.77 462.3 440.73C462.59 440.46 462.86 440.17 463.12 439.84C466.21 435.7 468.43 429.63 468.43 429.63C468.43 429.63 481.39 434.62 485.06 436.42L485.07 436.41Z" fill="#1A2E35"/>
<path d="M499.97 424.26C496.68 430.3 480.69 441.14 474.39 440.77C465.25 440.24 457.05 432.73 459.21 423.29C461.3 414.14 482.39 400.39 488.8 401.41C498.24 402.93 504.82 415.33 499.96 424.25L499.97 424.26Z" fill="#FFABA1"/>
<path d="M477.72 419.62C477.72 419.62 477.73 419.74 477.69 419.77C476.61 420.55 475.51 421.62 475.89 422.85C475.9 422.89 475.85 422.93 475.82 422.89C475.09 421.6 476.57 420.19 477.71 419.63L477.72 419.62Z" fill="#1A2E35"/>
<path d="M479.55 419.71C480.98 421.3 477.69 424.06 476.36 422.58C475.05 421.13 478.35 418.37 479.55 419.71Z" fill="#1A2E35"/>
<path d="M473.14 413.97C473.14 413.97 473.03 413.93 472.98 413.97C471.98 414.85 470.69 415.69 469.58 415.05C469.55 415.03 469.5 415.08 469.53 415.11C470.63 416.11 472.33 414.97 473.13 413.98L473.14 413.97Z" fill="#1A2E35"/>
<path d="M473.45 412.17C472.21 410.42 468.8 413.03 469.95 414.65C471.08 416.25 474.49 413.63 473.45 412.17Z" fill="#1A2E35"/>
<path d="M482.27 419.71C482.04 419.15 481.92 418.6 481.74 418.03C481.54 417.38 481.32 416.89 481.53 416.21C481.64 415.85 482.14 415.59 482.5 415.67C483.34 415.84 483.78 416.58 484.05 417.35C484.34 418.19 484.35 418.9 484.05 419.73C483.76 420.53 482.59 420.45 482.28 419.71H482.27Z" fill="#1A2E35"/>
<path d="M473.87 409.57C474.33 409.96 474.81 410.25 475.3 410.6C475.85 410.99 476.26 411.35 476.96 411.37C477.34 411.37 477.73 410.99 477.78 410.62C477.88 409.77 477.32 409.12 476.67 408.63C475.97 408.09 475.29 407.86 474.4 407.89C473.54 407.92 473.26 409.06 473.87 409.58V409.57Z" fill="#1A2E35"/>
<path d="M469.88 426.77C469.32 425.04 467.78 423.51 466.77 422.56C466.69 422.43 466.83 422.13 466.93 422.02L469.15 420.29C468.77 420.12 466.92 419.21 467.35 418.89C470.89 416.31 474.83 413.44 478.9 411.62C479.03 411.55 479.15 411.74 479.03 411.83C475.72 414.45 471.98 416.46 468.61 419.03C469.17 419.35 470.12 419.84 470.45 420.25C470.51 420.39 468 421.95 467.68 422.28C467.68 422.28 470.01 423.84 470.32 426.42C470.4 427.09 470.12 427.6 469.86 426.77H469.88Z" fill="#1A2E35"/>
<path d="M466.68 426.29C466.4 425.53 468 422.71 468.97 423.59C469.94 424.47 471.2 427.31 470.4 429.38C469.7 431.19 468.26 427.46 467.67 427.15C467.18 426.89 466.89 426.84 466.69 426.3L466.68 426.29Z" fill="#1A2E35"/>
<path d="M467.66 427.13C467.55 427.07 467.46 427.03 467.38 426.98C468.11 426.33 469.47 426.16 470.64 427.5C470.69 428.14 470.64 428.78 470.4 429.36C469.69 431.17 468.25 427.44 467.66 427.13Z" fill="#FF9ABD"/>
<path d="M469.74 432.01C469.3 431.96 468.77 431.98 468.44 431.64C468.12 431.31 467.94 430.76 467.8 430.33C467.79 430.29 467.73 430.28 467.71 430.33C467.53 430.91 467.74 431.67 468.21 432.08C468.67 432.48 469.25 432.38 469.77 432.15C469.84 432.12 469.8 432.02 469.74 432.01Z" fill="#1A2E35"/>
<path d="M488.22 434.39C484.83 431.03 487.46 425.41 491.64 423.23C491.64 423.23 482.02 414.81 489.28 407.64C489.28 407.64 483.49 408.4 479.59 404.17L476.66 405.86C476.09 404.63 477.95 401.16 482.23 401.64C482.23 401.64 486.19 398.46 490.94 399.27C495.69 400.08 496.64 404.19 496.64 404.19C496.64 404.19 500.47 404.79 503.09 408.7C505.72 412.61 503.78 416.86 503.78 416.86C503.78 416.86 507.02 422.37 504.37 426.12C501.72 429.86 497.95 430.1 497.95 430.1C497.95 430.1 497.67 432.44 494.28 434.35C492.1 435.58 489.24 435.41 488.23 434.4L488.22 434.39Z" fill="#1A2E35"/>
<path d="M490.13 407.26C489.45 407.74 488.8 408.27 488.24 408.88C487.65 409.46 487.16 410.12 486.74 410.81C485.92 412.21 485.58 413.86 485.93 415.42C486.17 417.03 487.18 418.39 488.13 419.71C488.69 420.31 489.21 420.96 489.81 421.53C490.42 422.1 491.04 422.65 491.64 423.23C490.96 422.75 490.3 422.24 489.62 421.74C488.98 421.2 488.4 420.58 487.79 420C486.74 418.7 485.68 417.27 485.36 415.53C485.02 413.82 485.41 411.99 486.37 410.56C487.33 409.14 488.66 408.01 490.14 407.25L490.13 407.26Z" fill="#1A2E35"/>
<path d="M503.77 416.85C504.81 418.06 505.61 419.48 506.09 421.03C506.58 422.57 506.6 424.32 505.95 425.87C505.59 426.63 505.11 427.3 504.55 427.89C504.01 428.5 503.35 429.02 502.64 429.41C501.21 430.2 499.5 430.48 497.95 430.09C499.53 430.23 501.12 429.84 502.42 429.02C503.7 428.2 504.81 427 505.42 425.63C505.73 424.94 505.89 424.19 505.93 423.43C505.93 422.67 505.85 421.9 505.67 421.15C505.3 419.64 504.63 418.19 503.79 416.85H503.77Z" fill="#1A2E35"/>
<path d="M496.63 404.19C496.16 403 495.52 401.87 494.72 400.91C493.91 399.95 492.91 399.17 491.77 398.74C490.62 398.31 489.36 398.25 488.12 398.43C486.88 398.62 485.66 399.03 484.5 399.59C485.54 398.82 486.75 398.28 488.03 397.99C489.31 397.69 490.7 397.73 491.97 398.2C493.23 398.69 494.31 399.56 495.07 400.64C495.84 401.71 496.38 402.92 496.63 404.19Z" fill="#1A2E35"/>
<path d="M481.4 406.22C482.72 406.94 484.07 407.51 485.49 407.75C486.2 407.89 486.91 407.9 487.63 407.85C488.36 407.82 489.05 407.59 489.78 407.38C489.16 407.8 488.46 408.16 487.7 408.29C486.95 408.45 486.15 408.46 485.39 408.33C484.63 408.19 483.89 407.94 483.22 407.58C482.55 407.22 481.91 406.78 481.4 406.23V406.22Z" fill="#1A2E35"/>
<path d="M485.27 431.95C485.27 431.95 492.69 430.86 493.49 433.94C494.29 437.02 485.59 440.78 482.46 439.24C479.33 437.7 480.7 434.77 480.7 434.77L485.27 431.96V431.95Z" fill="#FFABA1"/>
<path d="M490.97 434.95C490.97 434.95 490.97 435.04 490.92 435.02C488.67 433.99 486.29 434.57 484.11 435.47C485.2 435.38 486.17 435.74 486.36 437.13C486.36 437.2 486.26 437.23 486.23 437.17C485.73 436.35 485.15 435.97 484.16 436.02C483.46 436.06 482.76 436.3 482.09 436.49C481.87 436.55 481.69 436.21 481.92 436.1C481.94 436.1 481.95 436.08 481.97 436.08C484.06 434.03 488.6 432.87 490.97 434.96V434.95Z" fill="#1A2E35"/>
<path d="M476.7 453.88C476.7 453.88 481.93 447.37 481.43 446.52C480.92 445.67 472.42 447.56 468.72 445.75C465.02 443.94 462.69 440.29 462.2 439.89C461.71 439.49 457.5 445.73 456.77 447.32C455.92 449.19 455.63 451.51 457.96 453.32C462.28 456.67 473.49 456.06 476.7 453.87V453.88Z" fill="#6946E1"/>
<path d="M479.38 447.48C477.86 449.1 476.63 450.99 475.8 453.05C477.33 451.43 478.54 449.54 479.38 447.48Z" fill="#1A2E35"/>
<path d="M462.3 441.05C460.68 442.57 459.34 444.39 458.38 446.39C460 444.87 461.34 443.05 462.3 441.05Z" fill="#1A2E35"/>
<path d="M462.97 443.49C460.92 445.6 459.15 447.99 457.76 450.58C459.82 448.47 461.57 446.08 462.97 443.49Z" fill="#1A2E35"/>
<path d="M465.23 445.61C463.18 447.72 461.41 450.11 460.02 452.7C462.08 450.59 463.83 448.2 465.23 445.61Z" fill="#1A2E35"/>
<path d="M468.62 447.04C466.57 449.15 464.8 451.54 463.41 454.13C465.47 452.02 467.22 449.63 468.62 447.04Z" fill="#1A2E35"/>
<path d="M471.95 447.77C469.98 449.76 468.31 452.04 466.99 454.51C468.96 452.52 470.63 450.24 471.95 447.77Z" fill="#1A2E35"/>
<path d="M475.66 447.87C473.95 449.68 472.54 451.76 471.5 454.02C473.21 452.22 474.62 450.13 475.66 447.87Z" fill="#1A2E35"/>
<path d="M477.92 460.47C476.69 461.47 475.16 462.18 473.32 462.46C467.88 463.26 460.08 459.8 455.96 453.36C453.33 449.25 452.94 445.7 453.9 442.95C458.92 452.17 468.38 458.72 477.92 460.48V460.47Z" fill="#375A64"/>
<path d="M518.61 426.75C518.63 408.9 504.77 388.33 479 393.79C461.18 397.56 449.38 413.73 449.23 428.34C449.04 449 470.05 464.21 486.91 461.48C499.71 459.41 518.6 445.61 518.61 426.75ZM481.74 451.02C469.27 452.39 452.93 439.7 452.17 423.7C451.62 412.41 459.71 400.43 472.85 398.3C491.84 395.21 504.18 410.94 504.95 424.75C505.77 439.35 491.19 449.99 481.74 451.02Z" fill="#8666FF"/>
<path opacity="0.1" d="M481.74 451.02C469.27 452.39 452.93 439.7 452.17 423.7C451.62 412.41 459.71 400.43 472.85 398.3C491.84 395.21 504.18 410.94 504.95 424.75C505.77 439.35 491.19 449.99 481.74 451.02Z" fill="#375A64"/>
<path opacity="0.1" d="M481.74 451.02C469.27 452.39 452.93 439.7 452.17 423.7C451.62 412.41 459.71 400.43 472.85 398.3C491.84 395.21 504.18 410.94 504.95 424.75C505.77 439.35 491.19 449.99 481.74 451.02Z" fill="#375A64"/>
<g opacity="0.2">
<path d="M497.46 406.99C484.54 405.83 471.01 406.08 457.14 407.89C459.17 405.15 461.8 402.79 464.91 401.07C473.18 400.39 481.3 400.26 489.23 400.62C492.42 402.21 495.18 404.41 497.46 406.99Z" fill="white"/>
<path d="M491.38 447.46C488.08 449.46 484.66 450.7 481.74 451.02C478.05 451.43 474.02 450.6 470.15 448.82C477.35 447.85 484.45 447.41 491.38 447.47V447.46Z" fill="white"/>
<path d="M500.74 411.47C485.99 409.89 470.37 410.19 454.33 412.66C454.5 412.28 454.68 411.91 454.87 411.55C470.49 409.23 485.7 408.94 500.1 410.43C500.33 410.77 500.55 411.12 500.75 411.47H500.74Z" fill="white"/>
<path d="M500.3 439.42C487.47 438.39 473.93 438.99 460.07 441.46C459.8 441.19 459.55 440.9 459.29 440.6C473.65 438.01 487.67 437.41 500.92 438.55C500.72 438.84 500.5 439.13 500.29 439.42H500.3Z" fill="white"/>
<path d="M495.39 444.6C495.02 444.9 494.67 445.2 494.28 445.48C485.45 445.22 476.32 445.74 467.01 447.13C466.6 446.88 466.19 446.63 465.8 446.36C475.91 444.78 485.83 444.23 495.39 444.61V444.6Z" fill="white"/>
<path d="M504.31 431.18C488.62 429.36 471.79 429.89 454.51 433.2C454.01 432.1 453.59 430.98 453.25 429.82C471.18 426.4 488.64 425.91 504.89 427.89C504.78 429.01 504.59 430.11 504.32 431.18H504.31Z" fill="white"/>
</g>
<path opacity="0.1" d="M502.45 460.26C506.64 458.93 513.05 453.69 513.42 447.92C513.78 442.47 509.68 436.93 501.21 440C495.35 442.12 491.2 447.7 490.87 452.17C490.4 458.5 496.92 462.01 502.45 460.26Z" fill="#6946E1"/>
<path d="M502.45 460.26C506.64 458.93 513.05 453.69 513.42 447.92C513.78 442.47 509.68 436.93 501.21 440C495.35 442.12 491.2 447.7 490.87 452.17C490.4 458.5 496.92 462.01 502.45 460.26Z" fill="#6946E1"/>
<path d="M504.4 460.29C507.62 459.27 512.54 455.24 512.83 450.81C513.1 446.62 509.96 442.37 503.45 444.72C498.95 446.35 495.76 450.64 495.51 454.07C495.15 458.93 500.16 461.63 504.4 460.28V460.29Z" fill="#8666FF"/>
<path d="M470.74 478.65C446.49 486.04 408.69 482.6 399.19 479.92C384.71 475.84 374.71 428.99 372.11 419.72C371 415.77 408.04 411.2 409.31 415.4C410.42 419.06 416.91 455.47 418.49 455.83C419.81 456.13 448.12 461.17 467.24 465.38C483.71 469.01 477.16 476.69 470.74 478.65Z" fill="#FFABA1"/>
<path d="M411.11 423.83C411.11 423.83 409.85 417.66 409.76 417.26C409.44 415.89 409.36 414.32 409.57 410.78C410.08 402.4 405.96 381.66 384.54 371.75C376.34 367.95 370.09 372.05 377.91 377.51C383.42 381.35 387.57 383.55 389.01 385.3C389.01 385.3 378.75 385.95 375.61 391.01C374.21 393.27 370.53 399.54 368.36 404.83C368.36 404.83 369.38 405.61 370.83 406.42C370.83 406.42 367.09 412.93 372.11 419.71L374.77 430.06L411.11 423.82V423.83Z" fill="#A8A8A8"/>
<path d="M408.78 402.71C406.09 399.23 400.27 391.94 393.44 387.63C385.85 382.85 369.93 375.68 366.46 381.32C363.91 385.46 369.75 388.73 369.75 388.73C369.75 388.73 362.55 387.15 361.07 391.39C359.72 395.25 364.38 397.51 364.38 397.51C364.38 397.51 359.85 397.31 359.26 401.28C358.56 406.06 368.17 405.7 371.64 411.16C372.42 412.38 408.78 402.71 408.78 402.71Z" fill="#A8A8A8"/>
<path d="M389.72 396.5C386.65 393.64 378.03 388.93 369.91 388.64C369.73 388.64 369.62 388.77 369.79 388.81C378.66 391.02 386.46 394.77 389.68 396.57C389.72 396.59 389.76 396.53 389.73 396.5H389.72Z" fill="#1A2E35"/>
<path d="M384.67 404.02C381.77 401.82 372.66 397.36 364.43 397.36C364.25 397.36 364.15 397.5 364.32 397.54C373.68 399.47 381.32 402.5 384.63 404.1C384.67 404.12 384.71 404.05 384.67 404.03V404.02Z" fill="#1A2E35"/>
<path d="M411.11 423.83L374.77 430.07C374.77 430.07 372.1 433.77 374.72 443.08C377.34 452.39 389.24 477.44 397.32 480.53C405.4 483.62 440.47 485.92 463.31 481.41C486.15 476.91 478.51 466.27 466.79 464.54C455.06 462.81 419.73 455.17 419.17 454.7C418.61 454.23 416.96 437.34 415.44 431.68C413.92 426.02 411.11 423.82 411.11 423.82V423.83Z" fill="#8666FF"/>
<path d="M425.06 456.17C427.22 456.86 429.4 457.44 431.59 458C433.77 458.57 435.97 459.06 438.17 459.55C440.38 460.01 442.58 460.48 444.81 460.86L448.15 461.43C449.27 461.58 450.39 461.77 451.52 461.89C450.45 461.53 449.36 461.24 448.27 460.92L445 460.06C442.82 459.49 440.61 459 438.41 458.51C436.2 458.05 433.99 457.58 431.77 457.2C429.55 456.81 427.32 456.43 425.07 456.17H425.06Z" fill="#1A2E35"/>
<path d="M444.97 460.43C445.79 460.54 446.59 460.5 447.38 460.45C448.18 460.38 448.95 460.28 449.76 460.13C449.37 459.98 448.96 459.94 448.55 459.9C448.14 459.86 447.74 459.88 447.33 459.9C446.53 459.97 445.73 460.11 444.96 460.42L444.97 460.43Z" fill="#1A2E35"/>
<path d="M401.4 481.62C403.48 482.12 405.58 482.47 407.69 482.84C409.8 483.16 411.92 483.44 414.04 483.69C418.28 484.18 422.55 484.43 426.82 484.59C431.09 484.67 435.37 484.67 439.63 484.4C443.9 484.18 448.15 483.69 452.36 483.02C450.22 483.09 448.11 483.31 445.98 483.36C443.85 483.46 441.73 483.56 439.6 483.58L433.22 483.66C431.1 483.62 428.97 483.63 426.85 483.53C422.6 483.47 418.36 483.2 414.12 482.89C409.88 482.58 405.64 482.17 401.41 481.65L401.4 481.62Z" fill="#1A2E35"/>
<path d="M444.84 483.71C445.61 484.11 446.41 484.36 447.22 484.57C448.04 484.76 448.86 484.91 449.73 484.9C448.97 484.5 448.16 484.25 447.35 484.04C446.53 483.85 445.7 483.7 444.84 483.71Z" fill="#1A2E35"/>
<path opacity="0.1" d="M409.94 430.19C405.85 430.63 401.77 431.29 397.71 431.97C393.69 432.64 389.67 433.33 385.66 434.04C383.36 434.44 381.06 434.85 378.78 435.33C378.63 435.36 378.66 435.5 378.81 435.48C382.89 435 386.97 434.32 391.04 433.69C395.07 433.07 399.1 432.42 403.11 431.73C405.42 431.33 407.7 430.9 409.98 430.4C410.2 430.35 410.15 430.16 409.94 430.18V430.19Z" fill="black"/>
<path d="M415.32 685.64L423 687.07L424.72 695.17L426.44 687.07L434.13 685.64L426.47 683.77L424.72 676.12L422.97 683.77L415.32 685.64Z" fill="#FFC800" fill-opacity="0.9"/>
<path d="M161 436.53L168.68 437.95L170.4 446.05L172.12 437.95L179.8 436.52L172.15 434.65L170.4 427L168.65 434.65L161 436.53Z" fill="white" fill-opacity="0.6"/>
<path d="M333 324.53L340.68 325.95L342.4 334.05L344.12 325.95L351.8 324.52L344.15 322.65L342.4 315L340.65 322.65L333 324.53Z" fill="white" fill-opacity="0.6"/>
<path d="M670.39 397.7L678.07 399.12L679.79 407.22L681.51 399.12L689.19 397.7L681.54 395.83L679.79 388.17L678.04 395.83L670.39 397.7Z" fill="#FFC800" fill-opacity="0.9"/>
<path d="M790 306.53L797.68 307.95L799.4 316.05L801.12 307.95L808.8 306.53L801.15 304.66L799.4 297L797.65 304.66L790 306.53Z" fill="white" fill-opacity="0.6"/>
<path d="M572 72.53L579.68 73.95L581.4 82.05L583.12 73.95L590.8 72.53L583.15 70.66L581.4 63L579.65 70.66L572 72.53Z" fill="white" fill-opacity="0.6"/>
<path d="M753.47 614.62L757.77 615.42L758.73 619.95L759.69 615.42L763.99 614.62L759.71 613.58L758.73 609.3L757.75 613.58L753.47 614.62Z" fill="#FFC800" fill-opacity="0.9"/>
<path d="M694.65 88.82L698.95 89.62L699.91 94.14L700.87 89.62L705.16 88.82L700.89 87.77L699.91 83.5L698.93 87.77L694.65 88.82Z" fill="white" fill-opacity="0.6"/>
<path d="M779.3 223.49L783.6 224.29L784.56 228.82L785.52 224.29L789.81 223.49L785.53 222.45L784.56 218.17L783.58 222.45L779.3 223.49Z" fill="#FFC800" fill-opacity="0.9"/>
<path d="M150 305.32L154.29 306.12L155.25 310.64L156.21 306.12L160.51 305.32L156.23 304.27L155.25 300L154.27 304.27L150 305.32Z" fill="white" fill-opacity="0.6"/>
<path d="M13.74 637.04L18.03 637.84L18.99 642.36L19.95 637.84L24.25 637.04L19.97 635.99L18.99 631.72L18.02 635.99L13.74 637.04Z" fill="#FFC800" fill-opacity="0.9"/>
<path d="M726.39 525.49L730.68 526.28L731.64 530.81L732.6 526.28L736.9 525.49L732.62 524.44L731.64 520.16L730.67 524.44L726.39 525.49Z" fill="white" fill-opacity="0.6"/>
<path d="M140.56 663.17L144.86 663.97L145.82 668.5L146.78 663.97L151.07 663.17L146.8 662.13L145.82 657.85L144.84 662.13L140.56 663.17Z" fill="white" fill-opacity="0.6"/>
<path d="M291.88 107.18L296.18 107.97L297.14 112.5L298.1 107.97L302.39 107.18L298.11 106.13L297.14 101.85L296.16 106.13L291.88 107.18Z" fill="white" fill-opacity="0.6"/>
<path d="M233 234.33L237.3 235.12L238.26 239.65L239.22 235.12L243.51 234.33L239.23 233.28L238.26 229L237.28 233.28L233 234.33Z" fill="white" fill-opacity="0.6"/>
<path d="M135 246.33L139.3 247.12L140.26 251.65L141.22 247.12L145.51 246.33L141.23 245.28L140.26 241L139.28 245.28L135 246.33Z" fill="white" fill-opacity="0.6"/>
<path d="M92 487.33L96.3 488.12L97.26 492.65L98.22 488.12L102.51 487.33L98.23 486.28L97.26 482L96.28 486.28L92 487.33Z" fill="#FFC800" fill-opacity="0.9"/>
<path d="M546.22 234.14L550.52 234.94L551.48 239.46L552.44 234.94L556.73 234.14L552.46 233.09L551.48 228.82L550.5 233.09L546.22 234.14Z" fill="#FFC800" fill-opacity="0.9"/>
<path d="M684 254.32L688.3 255.12L689.26 259.64L690.22 255.12L694.51 254.32L690.24 253.27L689.26 249L688.28 253.27L684 254.32Z" fill="white" fill-opacity="0.6"/>
<path d="M418 287.32L422.3 288.12L423.26 292.64L424.22 288.12L428.51 287.32L424.24 286.27L423.26 282L422.28 286.27L418 287.32Z" fill="white" fill-opacity="0.6"/>
<path d="M333 258.32L337.3 259.12L338.26 263.64L339.22 259.12L343.51 258.32L339.24 257.27L338.26 253L337.28 257.27L333 258.32Z" fill="white" fill-opacity="0.6"/>
<path d="M204.86 574.71L209.16 575.5L210.12 580.03L211.08 575.5L215.37 574.7L211.09 573.66L210.12 569.38L209.14 573.66L204.86 574.71Z" fill="white" fill-opacity="0.6"/>
<path d="M18.99 714.78C20.59 714.78 20.59 717.27 18.99 717.27C17.39 717.27 17.39 714.78 18.99 714.78Z" fill="white" fill-opacity="0.6"/>
<path d="M639.45 563.18C641.05 563.18 641.06 565.67 639.45 565.67C637.84 565.67 637.84 563.18 639.45 563.18Z" fill="white" fill-opacity="0.6"/>
<path d="M651.21 385.12C652.81 385.12 652.82 387.61 651.21 387.61C649.6 387.61 649.6 385.12 651.21 385.12Z" fill="white" fill-opacity="0.6"/>
<path d="M564.12 293.31C565.72 293.31 565.73 295.8 564.12 295.8C562.51 295.8 562.51 293.31 564.12 293.31Z" fill="white" fill-opacity="0.6"/>
<path d="M179.66 731.62C181.26 731.62 181.26 734.11 179.66 734.11C178.06 734.11 178.05 731.62 179.66 731.62Z" fill="white" fill-opacity="0.6"/>
<path d="M128.58 659.44C130.18 659.44 130.18 661.93 128.58 661.93C126.98 661.93 126.97 659.44 128.58 659.44Z" fill="white" fill-opacity="0.6"/>
<path d="M256.93 626.39C258.53 626.39 258.54 628.88 256.93 628.88C255.32 628.88 255.32 626.39 256.93 626.39Z" fill="white" fill-opacity="0.6"/>
<path d="M492.72 659.44C494.32 659.44 494.33 661.93 492.72 661.93C491.11 661.93 491.11 659.44 492.72 659.44Z" fill="white" fill-opacity="0.6"/>
<path d="M698.71 579.5C700.31 579.5 700.31 581.99 698.71 581.99C697.11 581.99 697.11 579.5 698.71 579.5Z" fill="white" fill-opacity="0.6"/>
<path d="M646.6 441.75C648.2 441.75 648.2 444.24 646.6 444.24C645 444.24 645 441.75 646.6 441.75Z" fill="white" fill-opacity="0.6"/>
<path d="M435.1 656.97C436.23 656.97 436.24 658.73 435.1 658.73C433.96 658.73 433.96 656.97 435.1 656.97Z" fill="white" fill-opacity="0.6"/>
<path d="M162.94 110.58C164.07 110.58 164.08 112.34 162.94 112.34C161.8 112.34 161.8 110.58 162.94 110.58Z" fill="white" fill-opacity="0.6"/>
<path d="M504.8 554.15C505.93 554.15 505.94 555.91 504.8 555.91C503.66 555.91 503.66 554.15 504.8 554.15Z" fill="white" fill-opacity="0.6"/>
<path d="M165.16 667.62C166.29 667.62 166.3 669.38 165.16 669.38C164.02 669.38 164.02 667.62 165.16 667.62Z" fill="white" fill-opacity="0.6"/>
<path d="M390.44 455.08C391.57 455.08 391.58 456.84 390.44 456.84C389.3 456.84 389.3 455.08 390.44 455.08Z" fill="white" fill-opacity="0.6"/>
<path d="M580.96 465.19C584.03 465.19 584.04 469.97 580.96 469.97C577.88 469.97 577.88 465.19 580.96 465.19Z" fill="white" fill-opacity="0.6"/>
<path d="M246.33 136.14L254.01 137.56L255.73 145.66L257.45 137.56L265.14 136.14L257.48 134.27L255.73 126.62L253.98 134.27L246.33 136.14Z" fill="white"/>
<path d="M93 142.52L100.68 143.94L102.4 152.04L104.12 143.94L111.81 142.52L104.15 140.65L102.4 133L100.65 140.65L93 142.52Z" fill="white" fill-opacity="0.6"/>
<path d="M502 183.53L509.68 184.95L511.4 193.05L513.12 184.95L520.81 183.53L513.15 181.66L511.4 174L509.65 181.66L502 183.53Z" fill="white"/>
<path d="M409 93.53L416.68 94.95L418.4 103.05L420.12 94.95L427.81 93.53L420.15 91.66L418.4 84L416.65 91.66L409 93.53Z" fill="white" fill-opacity="0.6"/>
<path d="M9.59 395.47L17.28 396.89L18.99 404.99L20.71 396.89L28.4 395.46L20.74 393.59L18.99 385.94L17.24 393.59L9.59 395.47Z" fill="white" fill-opacity="0.6"/>
<path d="M736 72.53L743.69 73.95L745.41 82.05L747.13 73.95L754.81 72.52L747.16 70.65L745.41 63L743.66 70.65L736 72.53Z" fill="white"/>
<path d="M414.21 27.81L418.51 28.6L419.47 33.13L420.43 28.6L424.72 27.8L420.45 26.76L419.47 22.48L418.49 26.76L414.21 27.81Z" fill="#FFC800" fill-opacity="0.9"/>
<path d="M18.99 179.09L23.29 179.88L24.25 184.41L25.21 179.88L29.51 179.09L25.23 178.04L24.25 173.76L23.27 178.04L18.99 179.09Z" fill="white" fill-opacity="0.6"/>
<path d="M97.9 171.57C99.5 171.57 99.51 174.06 97.9 174.06C96.29 174.06 96.3 171.57 97.9 171.57Z" fill="white" fill-opacity="0.6"/>
<path d="M3.21 617.66C4.81 617.66 4.82 620.15 3.21 620.15C1.6 620.15 1.61 617.66 3.21 617.66Z" fill="white" fill-opacity="0.6"/>
<path d="M105.36 574.71C106.96 574.71 106.97 577.2 105.36 577.2C103.75 577.2 103.76 574.71 105.36 574.71Z" fill="white" fill-opacity="0.6"/>
<path d="M4.41 259.39C6.01 259.39 6.01 261.88 4.41 261.88C2.81 261.88 2.81 259.39 4.41 259.39Z" fill="white" fill-opacity="0.6"/>
<path d="M105.36 72.14C106.96 72.14 106.96 74.63 105.36 74.63C103.76 74.63 103.75 72.14 105.36 72.14Z" fill="white" fill-opacity="0.6"/>
<path d="M268.44 8.28C270.04 8.28 270.04 10.77 268.44 10.77C266.84 10.77 266.83 8.28 268.44 8.28Z" fill="white" fill-opacity="0.6"/>
<path d="M218.4 453.57C219.53 453.57 219.54 455.33 218.4 455.33C217.26 455.33 217.26 453.57 218.4 453.57Z" fill="white" fill-opacity="0.6"/>
<path d="M217.55 680.48C218.68 680.48 218.69 682.24 217.55 682.24C216.41 682.24 216.41 680.48 217.55 680.48Z" fill="white" fill-opacity="0.6"/>
<path d="M763.73 387.64L768.02 388.43L768.98 392.96L769.94 388.43L774.24 387.63L769.96 386.59L768.98 382.31L768 386.59L763.73 387.64Z" fill="white" fill-opacity="0.6"/>
<path d="M655.6 167.05C657.2 167.05 657.2 169.54 655.6 169.54C654 169.54 653.99 167.05 655.6 167.05Z" fill="white" fill-opacity="0.6"/>
<path d="M528.4 42.57C529.53 42.57 529.54 44.33 528.4 44.33C527.26 44.33 527.26 42.57 528.4 42.57Z" fill="white" fill-opacity="0.6"/>
<path d="M341.03 762.24C342.16 762.24 342.17 764 341.03 764C339.89 764 339.89 762.24 341.03 762.24Z" fill="white" fill-opacity="0.6"/>
<path d="M744.57 188.09C745.7 188.09 745.71 189.85 744.57 189.85C743.43 189.85 743.43 188.09 744.57 188.09Z" fill="white" fill-opacity="0.6"/>
<path d="M567.33 144.78C568.46 144.78 568.47 146.54 567.33 146.54C566.19 146.54 566.19 144.78 567.33 144.78Z" fill="white" fill-opacity="0.6"/>
<path d="M569.88 9.89C571.01 9.89 571.02 11.65 569.88 11.65C568.74 11.65 568.74 9.89 569.88 9.89Z" fill="white" fill-opacity="0.6"/>
<path d="M368.31 291C371.38 291 371.39 295.78 368.31 295.78C365.23 295.78 365.23 291 368.31 291Z" fill="white" fill-opacity="0.6"/>
<path d="M648.9 300.09C651.97 300.09 651.98 304.87 648.9 304.87C645.82 304.87 645.82 300.09 648.9 300.09Z" fill="white" fill-opacity="0.6"/>
<path d="M109.41 302.48C112.48 302.48 112.49 307.26 109.41 307.26C106.33 307.26 106.33 302.48 109.41 302.48Z" fill="white" fill-opacity="0.6"/>
<path d="M766.29 316.88C769.36 316.88 769.37 321.66 766.29 321.66C763.21 321.66 763.21 316.88 766.29 316.88Z" fill="white" fill-opacity="0.6"/>
<path d="M76.14 535.43C79.21 535.43 79.22 540.21 76.14 540.21C73.06 540.21 73.06 535.43 76.14 535.43Z" fill="white" fill-opacity="0.6"/>
<path d="M196.55 69.31L200.84 70.1L201.8 74.63L202.76 70.1L207.06 69.3L202.78 68.26L201.8 63.98L200.83 68.26L196.55 69.31Z" fill="white" fill-opacity="0.6"/>
<path d="M430.78 519.52L435.08 520.32L436.04 524.85L437 520.32L441.29 519.52L437.02 518.48L436.04 514.2L435.06 518.48L430.78 519.52Z" fill="#FFC800" fill-opacity="0.9"/>
<path d="M569.48 726.52C571.08 726.52 571.09 729.01 569.48 729.01C567.87 729.01 567.87 726.52 569.48 726.52Z" fill="white" fill-opacity="0.6"/>
<path d="M486.93 714.78C488.53 714.78 488.54 717.27 486.93 717.27C485.32 717.27 485.33 714.78 486.93 714.78Z" fill="white" fill-opacity="0.6"/>
<path d="M513.49 382L517.79 382.8L518.75 387.32L519.71 382.8L524 382L519.73 380.95L518.75 376.68L517.77 380.95L513.49 382Z" fill="white" fill-opacity="0.6"/>
<path d="M660.73 640.15L665.02 640.95L665.98 645.48L666.94 640.95L671.24 640.15L666.96 639.11L665.98 634.83L665 639.11L660.73 640.15Z" fill="white" fill-opacity="0.6"/>
<path d="M699.91 748.69L704.2 749.48L705.16 754.01L706.12 749.48L710.42 748.68L706.14 747.64L705.16 743.36L704.19 747.64L699.91 748.69Z" fill="white" fill-opacity="0.6"/>
<path d="M531.62 143.17C533.22 143.17 533.22 145.66 531.62 145.66C530.02 145.66 530.01 143.17 531.62 143.17Z" fill="white" fill-opacity="0.6"/>
<path d="M671.24 697.33C672.37 697.33 672.38 699.09 671.24 699.09C670.1 699.09 670.1 697.33 671.24 697.33Z" fill="white" fill-opacity="0.6"/>
<path d="M50.86 422.27L55.16 423.07L56.12 427.6L57.08 423.07L61.38 422.27L57.1 421.23L56.12 416.95L55.14 421.23L50.86 422.27Z" fill="white" fill-opacity="0.6"/>
<path d="M1.2 514.45C2.8 514.45 2.81 516.94 1.2 516.94C-0.41 516.94 -0.4 514.45 1.2 514.45Z" fill="white" fill-opacity="0.6"/>
<path d="M297.207 333C298.807 333 298.818 335.49 297.207 335.49C295.597 335.49 295.597 333 297.207 333Z" fill="#FFC800" fill-opacity="0.9"/>
<path d="M217.55 180.18C218.68 180.18 218.69 181.94 217.55 181.94C216.41 181.94 216.41 180.18 217.55 180.18Z" fill="white" fill-opacity="0.6"/>
<path d="M73.83 25.42C76.9 25.42 76.91 30.2 73.83 30.2C70.75 30.2 70.75 25.42 73.83 25.42Z" fill="white" fill-opacity="0.6"/>
<path d="M639.81 78.72C642.88 78.72 642.89 83.5 639.81 83.5C636.73 83.5 636.73 78.72 639.81 78.72Z" fill="#FFC800" fill-opacity="0.9"/>
<path d="M139.328 360.664C141.184 361.208 142.736 361.368 143.984 361.144C145.264 360.888 146.4 359.992 147.392 358.456L149.024 356.008L149.744 355.192L160.88 333.4H168.512L154.208 359.992C152.928 362.392 151.408 364.232 149.648 365.512C147.92 366.792 146.016 367.512 143.936 367.672C141.856 367.864 139.696 367.496 137.456 366.568L139.328 360.664ZM149.6 361.672L134.432 333.4H142.736L153.872 355.96L149.6 361.672ZM172.207 367V333.4H202.831V367H195.103V337.96L196.879 339.736H178.159L179.935 337.96V367H172.207ZM227.048 367.576C224.456 367.576 222.04 367.16 219.8 366.328C217.592 365.464 215.672 364.248 214.04 362.68C212.408 361.112 211.128 359.272 210.2 357.16C209.304 355.048 208.856 352.728 208.856 350.2C208.856 347.672 209.304 345.352 210.2 343.24C211.128 341.128 212.408 339.288 214.04 337.72C215.704 336.152 217.64 334.952 219.848 334.12C222.056 333.256 224.472 332.824 227.096 332.824C230.008 332.824 232.632 333.336 234.968 334.36C237.336 335.352 239.32 336.824 240.92 338.776L235.928 343.384C234.776 342.072 233.496 341.096 232.088 340.456C230.68 339.784 229.144 339.448 227.48 339.448C225.912 339.448 224.472 339.704 223.16 340.216C221.848 340.728 220.712 341.464 219.752 342.424C218.792 343.384 218.04 344.52 217.496 345.832C216.984 347.144 216.728 348.6 216.728 350.2C216.728 351.8 216.984 353.256 217.496 354.568C218.04 355.88 218.792 357.016 219.752 357.976C220.712 358.936 221.848 359.672 223.16 360.184C224.472 360.696 225.912 360.952 227.48 360.952C229.144 360.952 230.68 360.632 232.088 359.992C233.496 359.32 234.776 358.312 235.928 356.968L240.92 361.576C239.32 363.528 237.336 365.016 234.968 366.04C232.632 367.064 229.992 367.576 227.048 367.576ZM245.797 355.336L244.309 333.4H253.237L251.749 355.336H245.797ZM248.773 367.384C247.429 367.384 246.325 366.952 245.461 366.088C244.597 365.224 244.165 364.2 244.165 363.016C244.165 361.8 244.597 360.792 245.461 359.992C246.325 359.16 247.429 358.744 248.773 358.744C250.149 358.744 251.253 359.16 252.085 359.992C252.949 360.792 253.381 361.8 253.381 363.016C253.381 364.2 252.949 365.224 252.085 366.088C251.253 366.952 250.149 367.384 248.773 367.384Z" fill="white"/>
<path d="M90.44 400.16C89.3733 400.16 88.3867 399.987 87.48 399.64C86.5867 399.28 85.8067 398.78 85.14 398.14C84.4867 397.487 83.9733 396.727 83.6 395.86C83.2267 394.993 83.04 394.04 83.04 393C83.04 391.96 83.2267 391.007 83.6 390.14C83.9733 389.273 84.4933 388.52 85.16 387.88C85.8267 387.227 86.6067 386.727 87.5 386.38C88.4067 386.02 89.3933 385.84 90.46 385.84C91.54 385.84 92.5333 386.027 93.44 386.4C94.36 386.76 95.14 387.3 95.78 388.02L94.48 389.28C93.9467 388.72 93.3467 388.307 92.68 388.04C92.0133 387.76 91.3 387.62 90.54 387.62C89.7533 387.62 89.02 387.753 88.34 388.02C87.6733 388.287 87.0933 388.66 86.6 389.14C86.1067 389.62 85.72 390.193 85.44 390.86C85.1733 391.513 85.04 392.227 85.04 393C85.04 393.773 85.1733 394.493 85.44 395.16C85.72 395.813 86.1067 396.38 86.6 396.86C87.0933 397.34 87.6733 397.713 88.34 397.98C89.02 398.247 89.7533 398.38 90.54 398.38C91.3 398.38 92.0133 398.247 92.68 397.98C93.3467 397.7 93.9467 397.273 94.48 396.7L95.78 397.96C95.14 398.68 94.36 399.227 93.44 399.6C92.5333 399.973 91.5333 400.16 90.44 400.16ZM100.023 400V390.58L100.503 391.08H96.1425V389.4H105.823V391.08H101.483L101.942 390.58V400H100.023ZM113.406 400.12C112.526 400.12 111.719 399.92 110.986 399.52C110.266 399.107 109.686 398.5 109.246 397.7C108.819 396.9 108.606 395.9 108.606 394.7C108.606 393.5 108.812 392.5 109.226 391.7C109.652 390.9 110.226 390.3 110.946 389.9C111.679 389.5 112.499 389.3 113.406 389.3C114.446 389.3 115.366 389.527 116.166 389.98C116.966 390.433 117.599 391.067 118.066 391.88C118.532 392.68 118.766 393.62 118.766 394.7C118.766 395.78 118.532 396.727 118.066 397.54C117.599 398.353 116.966 398.987 116.166 399.44C115.366 399.893 114.446 400.12 113.406 400.12ZM107.786 403.88V389.4H109.626V392.26L109.506 394.72L109.706 397.18V403.88H107.786ZM113.246 398.44C113.926 398.44 114.532 398.287 115.066 397.98C115.612 397.673 116.039 397.24 116.346 396.68C116.666 396.107 116.826 395.447 116.826 394.7C116.826 393.94 116.666 393.287 116.346 392.74C116.039 392.18 115.612 391.747 115.066 391.44C114.532 391.133 113.926 390.98 113.246 390.98C112.579 390.98 111.972 391.133 111.426 391.44C110.892 391.747 110.466 392.18 110.146 392.74C109.839 393.287 109.686 393.94 109.686 394.7C109.686 395.447 109.839 396.107 110.146 396.68C110.466 397.24 110.892 397.673 111.426 397.98C111.972 398.287 112.579 398.44 113.246 398.44ZM127.958 400V397.76L127.858 397.34V393.52C127.858 392.707 127.618 392.08 127.138 391.64C126.671 391.187 125.964 390.96 125.018 390.96C124.391 390.96 123.778 391.067 123.178 391.28C122.578 391.48 122.071 391.753 121.658 392.1L120.858 390.66C121.404 390.22 122.058 389.887 122.818 389.66C123.591 389.42 124.398 389.3 125.238 389.3C126.691 389.3 127.811 389.653 128.598 390.36C129.384 391.067 129.778 392.147 129.778 393.6V400H127.958ZM124.478 400.12C123.691 400.12 122.998 399.987 122.398 399.72C121.811 399.453 121.358 399.087 121.038 398.62C120.718 398.14 120.558 397.6 120.558 397C120.558 396.427 120.691 395.907 120.958 395.44C121.238 394.973 121.684 394.6 122.298 394.32C122.924 394.04 123.764 393.9 124.818 393.9H128.178V395.28H124.898C123.938 395.28 123.291 395.44 122.958 395.76C122.624 396.08 122.458 396.467 122.458 396.92C122.458 397.44 122.664 397.86 123.078 398.18C123.491 398.487 124.064 398.64 124.798 398.64C125.518 398.64 126.144 398.48 126.678 398.16C127.224 397.84 127.618 397.373 127.858 396.76L128.238 398.08C127.984 398.707 127.538 399.207 126.898 399.58C126.258 399.94 125.451 400.12 124.478 400.12ZM133.235 400V389.4H135.155V393.9H141.195V389.4H143.115V400H141.195V395.56H135.155V400H133.235ZM146.848 400V389.4H148.768V397.12L155.268 389.4H157.008V400H155.088V392.28L148.608 400H146.848ZM160.735 400V389.4H162.655V398.32H168.455V389.4H170.375V400H160.735ZM170.235 402.46V399.9L170.715 400H168.455V398.32H172.055V402.46H170.235ZM181.044 400V397.76L180.944 397.34V393.52C180.944 392.707 180.704 392.08 180.224 391.64C179.757 391.187 179.05 390.96 178.104 390.96C177.477 390.96 176.864 391.067 176.264 391.28C175.664 391.48 175.157 391.753 174.744 392.1L173.944 390.66C174.49 390.22 175.144 389.887 175.904 389.66C176.677 389.42 177.484 389.3 178.324 389.3C179.777 389.3 180.897 389.653 181.684 390.36C182.47 391.067 182.864 392.147 182.864 393.6V400H181.044ZM177.564 400.12C176.777 400.12 176.084 399.987 175.484 399.72C174.897 399.453 174.444 399.087 174.124 398.62C173.804 398.14 173.644 397.6 173.644 397C173.644 396.427 173.777 395.907 174.044 395.44C174.324 394.973 174.77 394.6 175.384 394.32C176.01 394.04 176.85 393.9 177.904 393.9H181.264V395.28H177.984C177.024 395.28 176.377 395.44 176.044 395.76C175.71 396.08 175.544 396.467 175.544 396.92C175.544 397.44 175.75 397.86 176.164 398.18C176.577 398.487 177.15 398.64 177.884 398.64C178.604 398.64 179.23 398.48 179.764 398.16C180.31 397.84 180.704 397.373 180.944 396.76L181.324 398.08C181.07 398.707 180.624 399.207 179.984 399.58C179.344 399.94 178.537 400.12 177.564 400.12ZM191.692 400V389.4H193.612V393.9H199.652V389.4H201.572V400H199.652V395.56H193.612V400H191.692ZM210.025 400.12C208.892 400.12 207.892 399.887 207.025 399.42C206.172 398.953 205.505 398.313 205.025 397.5C204.559 396.687 204.325 395.753 204.325 394.7C204.325 393.647 204.552 392.713 205.005 391.9C205.472 391.087 206.105 390.453 206.905 390C207.719 389.533 208.632 389.3 209.645 389.3C210.672 389.3 211.579 389.527 212.365 389.98C213.152 390.433 213.765 391.073 214.205 391.9C214.659 392.713 214.885 393.667 214.885 394.76C214.885 394.84 214.879 394.933 214.865 395.04C214.865 395.147 214.859 395.247 214.845 395.34H205.825V393.96H213.845L213.065 394.44C213.079 393.76 212.939 393.153 212.645 392.62C212.352 392.087 211.945 391.673 211.425 391.38C210.919 391.073 210.325 390.92 209.645 390.92C208.979 390.92 208.385 391.073 207.865 391.38C207.345 391.673 206.939 392.093 206.645 392.64C206.352 393.173 206.205 393.787 206.205 394.48V394.8C206.205 395.507 206.365 396.14 206.685 396.7C207.019 397.247 207.479 397.673 208.065 397.98C208.652 398.287 209.325 398.44 210.085 398.44C210.712 398.44 211.279 398.333 211.785 398.12C212.305 397.907 212.759 397.587 213.145 397.16L214.205 398.4C213.725 398.96 213.125 399.387 212.405 399.68C211.699 399.973 210.905 400.12 210.025 400.12ZM223.235 400V389.4H225.155V393.9H231.195V389.4H233.115V400H231.195V395.56H225.155V400H223.235ZM243.348 400V397.76L243.248 397.34V393.52C243.248 392.707 243.008 392.08 242.528 391.64C242.062 391.187 241.355 390.96 240.408 390.96C239.782 390.96 239.168 391.067 238.568 391.28C237.968 391.48 237.462 391.753 237.048 392.1L236.248 390.66C236.795 390.22 237.448 389.887 238.208 389.66C238.982 389.42 239.788 389.3 240.628 389.3C242.082 389.3 243.202 389.653 243.988 390.36C244.775 391.067 245.168 392.147 245.168 393.6V400H243.348ZM239.868 400.12C239.082 400.12 238.388 399.987 237.788 399.72C237.202 399.453 236.748 399.087 236.428 398.62C236.108 398.14 235.948 397.6 235.948 397C235.948 396.427 236.082 395.907 236.348 395.44C236.628 394.973 237.075 394.6 237.688 394.32C238.315 394.04 239.155 393.9 240.208 393.9H243.568V395.28H240.288C239.328 395.28 238.682 395.44 238.348 395.76C238.015 396.08 237.848 396.467 237.848 396.92C237.848 397.44 238.055 397.86 238.468 398.18C238.882 398.487 239.455 398.64 240.188 398.64C240.908 398.64 241.535 398.48 242.068 398.16C242.615 397.84 243.008 397.373 243.248 396.76L243.628 398.08C243.375 398.707 242.928 399.207 242.288 399.58C241.648 399.94 240.842 400.12 239.868 400.12ZM248.626 400V389.4H250.546V397.12L257.046 389.4H258.786V400H256.866V392.28L250.386 400H248.626ZM253.586 388.02C252.612 388.02 251.846 387.787 251.286 387.32C250.739 386.84 250.459 386.153 250.446 385.26H251.746C251.759 385.767 251.926 386.167 252.246 386.46C252.579 386.753 253.019 386.9 253.566 386.9C254.112 386.9 254.552 386.753 254.886 386.46C255.219 386.167 255.392 385.767 255.406 385.26H256.746C256.732 386.153 256.446 386.84 255.886 387.32C255.326 387.787 254.559 388.02 253.586 388.02ZM269.752 399.1V391.08H265.152L265.052 393.12C265.026 393.787 264.979 394.433 264.912 395.06C264.859 395.673 264.766 396.24 264.632 396.76C264.512 397.28 264.332 397.707 264.092 398.04C263.852 398.373 263.532 398.58 263.132 398.66L261.232 398.32C261.646 398.333 261.979 398.2 262.232 397.92C262.486 397.627 262.679 397.227 262.812 396.72C262.959 396.213 263.066 395.64 263.132 395C263.199 394.347 263.252 393.673 263.292 392.98L263.452 389.4H271.672V399.1H269.752ZM260.812 402.46V398.32H273.292V402.46H271.492V400H262.632V402.46H260.812ZM280.514 400.12C279.38 400.12 278.38 399.887 277.514 399.42C276.66 398.953 275.994 398.313 275.514 397.5C275.047 396.687 274.814 395.753 274.814 394.7C274.814 393.647 275.04 392.713 275.494 391.9C275.96 391.087 276.594 390.453 277.394 390C278.207 389.533 279.12 389.3 280.134 389.3C281.16 389.3 282.067 389.527 282.854 389.98C283.64 390.433 284.254 391.073 284.694 391.9C285.147 392.713 285.374 393.667 285.374 394.76C285.374 394.84 285.367 394.933 285.354 395.04C285.354 395.147 285.347 395.247 285.334 395.34H276.314V393.96H284.334L283.554 394.44C283.567 393.76 283.427 393.153 283.134 392.62C282.84 392.087 282.434 391.673 281.914 391.38C281.407 391.073 280.814 390.92 280.134 390.92C279.467 390.92 278.874 391.073 278.354 391.38C277.834 391.673 277.427 392.093 277.134 392.64C276.84 393.173 276.694 393.787 276.694 394.48V394.8C276.694 395.507 276.854 396.14 277.174 396.7C277.507 397.247 277.967 397.673 278.554 397.98C279.14 398.287 279.814 398.44 280.574 398.44C281.2 398.44 281.767 398.333 282.274 398.12C282.794 397.907 283.247 397.587 283.634 397.16L284.694 398.4C284.214 398.96 283.614 399.387 282.894 399.68C282.187 399.973 281.394 400.12 280.514 400.12ZM288.352 400V389.4H290.272V393.9H296.312V389.4H298.232V400H296.312V395.56H290.272V400H288.352ZM308.465 400V397.76L308.365 397.34V393.52C308.365 392.707 308.125 392.08 307.645 391.64C307.179 391.187 306.472 390.96 305.525 390.96C304.899 390.96 304.285 391.067 303.685 391.28C303.085 391.48 302.579 391.753 302.165 392.1L301.365 390.66C301.912 390.22 302.565 389.887 303.325 389.66C304.099 389.42 304.905 389.3 305.745 389.3C307.199 389.3 308.319 389.653 309.105 390.36C309.892 391.067 310.285 392.147 310.285 393.6V400H308.465ZM304.985 400.12C304.199 400.12 303.505 399.987 302.905 399.72C302.319 399.453 301.865 399.087 301.545 398.62C301.225 398.14 301.065 397.6 301.065 397C301.065 396.427 301.199 395.907 301.465 395.44C301.745 394.973 302.192 394.6 302.805 394.32C303.432 394.04 304.272 393.9 305.325 393.9H308.685V395.28H305.405C304.445 395.28 303.799 395.44 303.465 395.76C303.132 396.08 302.965 396.467 302.965 396.92C302.965 397.44 303.172 397.86 303.585 398.18C303.999 398.487 304.572 398.64 305.305 398.64C306.025 398.64 306.652 398.48 307.185 398.16C307.732 397.84 308.125 397.373 308.365 396.76L308.745 398.08C308.492 398.707 308.045 399.207 307.405 399.58C306.765 399.94 305.959 400.12 304.985 400.12ZM319.534 392.04C319.161 392.04 318.841 391.913 318.574 391.66C318.307 391.393 318.174 391.06 318.174 390.66C318.174 390.26 318.307 389.933 318.574 389.68C318.841 389.427 319.161 389.3 319.534 389.3C319.894 389.3 320.201 389.427 320.454 389.68C320.721 389.933 320.854 390.26 320.854 390.66C320.854 391.06 320.721 391.393 320.454 391.66C320.201 391.913 319.894 392.04 319.534 392.04ZM319.534 400.12C319.161 400.12 318.841 399.993 318.574 399.74C318.307 399.473 318.174 399.14 318.174 398.74C318.174 398.34 318.307 398.013 318.574 397.76C318.841 397.507 319.161 397.38 319.534 397.38C319.894 397.38 320.201 397.507 320.454 397.76C320.721 398.013 320.854 398.34 320.854 398.74C320.854 399.14 320.721 399.473 320.454 399.74C320.201 399.993 319.894 400.12 319.534 400.12ZM326.065 403.88C325.305 402.667 324.718 401.267 324.305 399.68C323.892 398.08 323.685 396.36 323.685 394.52C323.685 392.68 323.892 390.96 324.305 389.36C324.718 387.747 325.305 386.347 326.065 385.16H327.885C327.085 386.573 326.498 388.053 326.125 389.6C325.752 391.133 325.565 392.773 325.565 394.52C325.565 396.267 325.752 397.913 326.125 399.46C326.498 400.993 327.085 402.467 327.885 403.88H326.065Z" fill="white"/>
</g>
<defs>
<clipPath id="clip0_8_830">
<rect width="826.31" height="764" fill="white"/>
</clipPath>
</defs>
</svg>
